{
.appVersion = "1264";
copyright = "Copyright 2018 Google Inc. All Rights Reserved.";
customParameters = (
{
name = licenseURL;
value = "http://scripts.sil.org/OFL";
},
{
name = description;
value = "Designed by Monotype design team.";
},
{
name = trademark;
value = "Noto is a trademark of Google Inc.";
},
{
name = license;
value = "This Font Software is licensed under the SIL Open Font License, Version 1.1. This Font Software is distributed on an \"AS IS\" BASIS, WITHOUT WARRANTIES OR CONDITIONS OF ANY KIND, either express or implied. See the SIL Open Font License for the specific language, permissions and limitations governing your use of this Font Software.";
},
{
name = openTypeOS2VendorID;
value = GOOG;
},
{
name = glyphOrder;
value = (
.notdef,
NULL,
CR,
space,
uni00A0,
u1820.fin,
u1823.med,
u1823.fin,
u1820.iniV1,
u1823.finV1,
u1822.med,
u1822.medV1,
u182E,
u1829.med,
u182F.fin,
MongolianDot,
u1828,
u1828.ini,
u1828.iniV1,
u1826.iniV1,
u180A,
u182C.med,
u182A_1822.ini,
u182C_1822.ini,
u182C_1822.med,
u1830.fin,
u1834.med,
u1834.ini,
tail,
u182A_1822.med,
u1837,
u1837.ini,
u1837.med,
u1837.fin,
u1832.med,
u1832,
u1832.ini,
u1833,
u1833.iniV1,
u1833.ini,
u1834,
u1830.med,
u182C.fin,
u182C.finV1,
u1830.ini,
u182A_1823,
u182A_1823.fin,
u182A_1823.ini,
u182A_1823.med,
u182A_1824.ini,
u182A_1824.med,
u182A_1824.fin,
u182A_1824,
u1829,
u1829.ini,
u1829.fin,
u1828.medV2,
u1828.fin,
u1828.finV1,
u1822.fin,
u1822.ini,
u1820.medV1,
u1820.medV2,
u1821.ini,
u1821.iniV1,
u1821.med,
u1824.fin,
u1825.fin,
u182A,
u182A_1825,
u182A_1825.fin,
u182A_1825.ini,
u182A_1825.med,
u182A_1825.finV1,
u182A_1826,
u182F.ini,
u182F.med,
u182F,
u1829_182F.med,
u182E.fin,
u182C.ini,
u1831.ini,
u1831.med,
u1831,
u1830,
u1831.fin,
u1830.finV1,
u183E.med,
u183F.ini,
u183F.med,
u1820,
u1820.V1,
u1820.ini,
u182A_1820.ini,
u1827.med,
u182C_1825.V1,
u182C_1825.iniV1,
u182C_1821.ini,
u182B_1820.ini,
u1839_1823,
u183B_1820.ini,
u183C.ini,
u1835.med,
u1836.ini,
u182C_1821.med,
u182C_1825.fin,

glyphs = (
{
glyphname = .notdef;
lastChange = "2019-09-24 14:05:55 +0000";
layers = (
{
layerId = UUID0;
paths = (
{
closed = 1;
nodes = (
"505 0 LINE",
"505 714 LINE",
"94 714 LINE",
"94 0 LINE"
);
},
{
closed = 1;
nodes = (
"145 663 LINE",
"454 663 LINE",
"454 51 LINE",
"145 51 LINE"
);
}
);
width = 600;
}
);
},
{
glyphname = u1820.fin;
lastChange = "2019-09-24 14:05:55 +0000";
layers = (
{
layerId = UUID0;
paths = (
{
closed = 1;
nodes = (
"228 156 LINE SMOOTH",
"228 299 OFFCURVE",
"245 429 OFFCURVE",
"277 547 CURVE SMOOTH",
"309 666 OFFCURVE",
"357 762 OFFCURVE",
"417 836 CURVE",
"325 836 LINE",
"273 768 OFFCURVE",
"231 674 OFFCURVE",
"199 555 CURVE SMOOTH",
"167 435 OFFCURVE",
"151 302 OFFCURVE",
"151 156 CURVE",
"58 210 OFFCURVE",
"41 312 OFFCURVE",
"41 444 CURVE",
"-33 444 LINE",
"-33 364 LINE SMOOTH",
"-33 206 OFFCURVE",
"67 63 OFFCURVE",
"228 53 CURVE"
);
}
);
width = 427;
}
);
},
{
glyphname = u1823.med;
lastChange = "2019-09-24 14:05:55 +0000";
layers = (
{
layerId = UUID0;
paths = (
{
closed = 1;
nodes = (
"324 40 OFFCURVE",
"395 123 OFFCURVE",
"395 249 CURVE SMOOTH",
"395 293 OFFCURVE",
"388 331 OFFCURVE",
"373 364 CURVE",
"603 364 LINE",
"603 444 LINE",
"0 444 LINE",
"0 364 LINE",
"20 364 LINE",
"7 333 OFFCURVE",
"0 294 OFFCURVE",
"0 249 CURVE SMOOTH",
"0 117 OFFCURVE",
"68 40 OFFCURVE",
"197 40 CURVE SMOOTH"
);
},
{
closed = 1;
nodes = (
"118 123 OFFCURVE",
"79 166 OFFCURVE",
"79 251 CURVE SMOOTH",
"79 295 OFFCURVE",
"86 333 OFFCURVE",
"99 364 CURVE",
"296 364 LINE",
"309 333 OFFCURVE",
"316 295 OFFCURVE",
"316 251 CURVE SMOOTH",
"316 166 OFFCURVE",
"271 123 OFFCURVE",
"197 123 CURVE SMOOTH"
);
}
);
width = 573;
}
);
},
{
glyphname = u1823.fin;
lastChange = "2019-09-24 14:05:55 +0000";
layers = (
{
layerId = UUID0;
paths = (
{
closed = 1;
nodes = (
"331 40 OFFCURVE",
"405 137 OFFCURVE",
"405 275 CURVE SMOOTH",
"405 316 OFFCURVE",
"395 403 OFFCURVE",
"382 444 CURVE",
"78 444 LINE",
"82 592 OFFCURVE",
"151 699 OFFCURVE",
"289 699 CURVE SMOOTH",
"427 699 OFFCURVE",
"496 573 OFFCURVE",
"509 409 CURVE",
"589 419 LINE",
"575 616 OFFCURVE",
"469 782 OFFCURVE",
"289 782 CURVE SMOOTH",
"95 782 OFFCURVE",
"-1 624 OFFCURVE",
"-1 408 CURVE SMOOTH",
"-1 164 OFFCURVE",
"71 40 OFFCURVE",
"225 40 CURVE SMOOTH"
);
},
{
closed = 1;
nodes = (
"127 123 OFFCURVE",
"81 203 OFFCURVE",
"78 364 CURVE",
"316 364 LINE",
"323 343 OFFCURVE",
"326 313 OFFCURVE",
"326 275 CURVE SMOOTH",
"326 190 OFFCURVE",
"291 123 OFFCURVE",
"218 123 CURVE SMOOTH"
);
}
);
width = 634;
}
);
},
{
glyphname = u1820.iniV1;
lastChange = "2019-09-24 14:05:55 +0000";
layers = (
{
layerId = UUID0;
paths = (
{
closed = 1;
nodes = (
"292 74 LINE",
"302 219 LINE SMOOTH",
"310 329 OFFCURVE",
"337 364 OFFCURVE",
"445 364 CURVE SMOOTH",
"522 364 LINE",
"522 444 LINE",
"444 444 LINE SMOOTH",
"360 444 OFFCURVE",
"307 416 OFFCURVE",
"285 361 CURVE",
"281 361 LINE",
"278 445 LINE SMOOTH",
"273 575 OFFCURVE",
"248 653 OFFCURVE",
"139 653 CURVE SMOOTH",
"100 653 OFFCURVE",
"57 643 OFFCURVE",
"10 623 CURVE",
"10 550 LINE",
"52 567 OFFCURVE",
"88 575 OFFCURVE",
"118 575 CURVE SMOOTH",
"180 575 OFFCURVE",
"194 522 OFFCURVE",
"200 437 CURVE SMOOTH",
"226 74 LINE"
);
}
);
width = 492;
}
);
},
{
glyphname = u1823.finV1;
lastChange = "2019-09-24 14:05:55 +0000";
layers = (
{
layerId = UUID0;
paths = (
{
closed = 1;
nodes = (
"324 40 OFFCURVE",
"395 123 OFFCURVE",
"395 249 CURVE SMOOTH",
"395 314 OFFCURVE",
"378 388 OFFCURVE",
"348 444 CURVE",
"0 444 LINE",
"0 364 LINE",
"20 364 LINE",
"7 333 OFFCURVE",
"0 294 OFFCURVE",
"0 249 CURVE SMOOTH",
"0 116 OFFCURVE",
"69 40 OFFCURVE",
"197 40 CURVE SMOOTH"
);
},
{
closed = 1;
nodes = (
"118 123 OFFCURVE",
"79 166 OFFCURVE",
"79 251 CURVE SMOOTH",
"79 295 OFFCURVE",
"86 333 OFFCURVE",
"99 364 CURVE",
"294 364 LINE",
"309 330 OFFCURVE",
"316 292 OFFCURVE",
"316 251 CURVE SMOOTH",
"316 166 OFFCURVE",
"271 123 OFFCURVE",
"197 123 CURVE SMOOTH"
);
}
);
width = 440;
}
);
},
{
glyphname = u1822.med;
lastChange = "2019-09-24 14:05:55 +0000";
layers = (
{
layerId = UUID0;
paths = (
{
closed = 1;
nodes = (
"246 -31 LINE",
"173 100 OFFCURVE",
"117 231 OFFCURVE",
"79 364 CURVE",
"391 364 LINE",
"391 444 LINE",
"0 444 LINE",
"0 364 LINE",
"37 224 OFFCURVE",
"94 80 OFFCURVE",
"173 -67 CURVE"
);
}
);
width = 361;
}
);
},
{
glyphname = u1822.medV1;
lastChange = "2019-09-24 14:05:55 +0000";
layers = (
{
layerId = UUID0;
paths = (
{
closed = 1;
nodes = (
"464 -31 LINE",
"391 100 OFFCURVE",
"335 231 OFFCURVE",
"297 364 CURVE",
"609 364 LINE",
"609 444 LINE",
"0 444 LINE",
"0 364 LINE",
"19 96 LINE",
"85 96 LINE",
"104 364 LINE",
"218 364 LINE",
"256 220 OFFCURVE",
"313 77 OFFCURVE",
"391 -67 CURVE"
);
}
);
width = 579;
}
);
},
{
glyphname = u182E;
lastChange = "2019-09-24 14:05:55 +0000";
layers = (
{
layerId = UUID0;
paths = (
{
closed = 1;
nodes = (
"292 74 LINE",
"302 219 LINE SMOOTH",
"309 326 OFFCURVE",
"335 364 OFFCURVE",
"445 364 CURVE SMOOTH",
"522 364 LINE",
"522 444 LINE",
"444 444 LINE SMOOTH",
"360 444 OFFCURVE",
"307 416 OFFCURVE",
"285 361 CURVE",
"281 361 LINE",
"278 484 OFFCURVE",
"270 602 OFFCURVE",
"229 693 CURVE",
"265 693 LINE SMOOTH",
"320 693 OFFCURVE",
"359 696 OFFCURVE",
"383 701 CURVE SMOOTH",
"407 706 OFFCURVE",
"428 717 OFFCURVE",
"444 731 CURVE",
"444 808 LINE",
"427 796 OFFCURVE",
"405 788 OFFCURVE",
"380 782 CURVE SMOOTH",
"355 776 OFFCURVE",
"317 773 OFFCURVE",
"265 773 CURVE SMOOTH",
"144 773 LINE",
"144 716 LINE",
"163 698 OFFCURVE",
"178 674 OFFCURVE",
"189 646 CURVE",
"176 650 OFFCURVE",
"159 653 OFFCURVE",
"139 653 CURVE SMOOTH",
"100 653 OFFCURVE",
"57 643 OFFCURVE",
"10 623 CURVE",
"10 550 LINE",
"52 567 OFFCURVE",
"88 575 OFFCURVE",
"118 575 CURVE SMOOTH",
"180 575 OFFCURVE",
"194 522 OFFCURVE",
"200 437 CURVE SMOOTH",
"226 74 LINE"
);
}
);
width = 567;
}
);
unicode = 182E;
},
{
glyphname = u1829.med;
lastChange = "2019-09-24 14:05:55 +0000";
layers = (
{
layerId = UUID0;
paths = (
{
closed = 1;
nodes = (
"412 112 LINE",
"356 205 OFFCURVE",
"321 292 OFFCURVE",
"321 396 CURVE SMOOTH",
"321 500 OFFCURVE",
"364 563 OFFCURVE",
"444 563 CURVE SMOOTH",
"516 563 OFFCURVE",
"566 499 OFFCURVE",
"574 364 CURVE",
"648 364 LINE",
"641 521 OFFCURVE",
"581 646 OFFCURVE",
"444 646 CURVE SMOOTH",
"327 646 OFFCURVE",
"258 561 OFFCURVE",
"245 444 CURVE",
"0 444 LINE",
"0 364 LINE",
"19 96 LINE",
"85 96 LINE",
"104 364 LINE",
"243 364 LINE",
"249 271 OFFCURVE",
"280 173 OFFCURVE",
"338 70 CURVE"
);
}
);
width = 574;
}
);
},
{
glyphname = u182F.fin;
lastChange = "2019-09-24 14:05:55 +0000";
layers = (
{
layerId = UUID0;
paths = (
{
closed = 1;
nodes = (
"244 157 LINE SMOOTH",
"244 334 OFFCURVE",
"269 496 OFFCURVE",
"338 653 CURVE",
"338 714 LINE",
"162 714 LINE SMOOTH",
"116 714 OFFCURVE",
"80 716 OFFCURVE",
"55 721 CURVE SMOOTH",
"31 726 OFFCURVE",
"6 735 OFFCURVE",
"-18 750 CURVE",
"-18 672 LINE",
"0 657 OFFCURVE",
"21 647 OFFCURVE",
"46 642 CURVE SMOOTH",
"71 637 OFFCURVE",
"110 634 OFFCURVE",
"162 634 CURVE SMOOTH",
"240 634 LINE",
"190 503 OFFCURVE",
"165 345 OFFCURVE",
"165 159 CURVE",
"68 213 OFFCURVE",
"48 313 OFFCURVE",
"48 444 CURVE",
"-33 444 LINE",
"-33 364 LINE SMOOTH",
"-33 197 OFFCURVE",
"85 51 OFFCURVE",
"244 45 CURVE"
);
}
);
width = 383;
}
);
},
{
export = 0;
glyphname = MongolianDot;
lastChange = "2019-09-24 14:05:55 +0000";
layers = (
{
layerId = UUID0;
paths = (
{
closed = 1;
nodes = (
"102 -128 OFFCURVE",
"148 -90 OFFCURVE",
"208 -47 CURVE",
"147 22 LINE",
"108 -17 OFFCURVE",
"68 -65 OFFCURVE",
"26 -124 CURVE",
"69 -163 LINE"
);
}
);
width = 208;
}
);
},
{
glyphname = u1826.iniV1;
lastChange = "2019-09-24 14:05:55 +0000";
layers = (
{
layerId = UUID0;
paths = (
{
closed = 1;
nodes = (
"369 40 OFFCURVE",
"440 123 OFFCURVE",
"440 249 CURVE SMOOTH",
"440 294 OFFCURVE",
"433 333 OFFCURVE",
"420 364 CURVE",
"648 364 LINE",
"648 444 LINE",
"90 444 LINE",
"59 392 OFFCURVE",
"45 336 OFFCURVE",
"45 260 CURVE SMOOTH",
"45 123 OFFCURVE",
"111 40 OFFCURVE",
"242 40 CURVE SMOOTH"
);
},
{
closed = 1;
nodes = (
"164 123 OFFCURVE",
"124 169 OFFCURVE",
"124 262 CURVE SMOOTH",
"124 303 OFFCURVE",
"131 336 OFFCURVE",
"144 364 CURVE",
"341 364 LINE",
"354 333 OFFCURVE",
"361 295 OFFCURVE",
"361 251 CURVE SMOOTH",
"361 166 OFFCURVE",
"315 123 OFFCURVE",
"242 123 CURVE SMOOTH"
);
}
);
width = 618;
}
);
},
{
glyphname = u180A;
lastChange = "2019-09-24 14:05:55 +0000";
layers = (
{
layerId = UUID0;
paths = (
{
closed = 1;
nodes = (
"188 364 LINE",
"188 444 LINE",
"0 444 LINE",
"0 364 LINE"
);
}
);
width = 168;
}
);
unicode = 180A;
},
{
glyphname = u182A_1822.ini;
lastChange = "2019-09-24 14:05:55 +0000";
layers = (
{
layerId = UUID0;
paths = (
{
closed = 1;
nodes = (
"802 -31 LINE",
"722 113 OFFCURVE",
"668 238 OFFCURVE",
"642 364 CURVE",
"947 364 LINE",
"947 444 LINE",
"627 444 LINE",
"589 650 OFFCURVE",
"514 782 OFFCURVE",
"330 782 CURVE SMOOTH",
"242 782 OFFCURVE",
"172 749 OFFCURVE",
"121 683 CURVE SMOOTH",
"70 617 OFFCURVE",
"45 525 OFFCURVE",
"45 408 CURVE SMOOTH",
"45 161 OFFCURVE",
"118 40 OFFCURVE",
"272 40 CURVE SMOOTH",
"378 40 OFFCURVE",
"451 138 OFFCURVE",
"451 275 CURVE SMOOTH",
"451 312 OFFCURVE",
"440 410 OFFCURVE",
"428 444 CURVE",
"124 444 LINE",
"126 588 OFFCURVE",
"194 699 OFFCURVE",
"330 699 CURVE SMOOTH",
"469 699 OFFCURVE",
"523 589 OFFCURVE",
"552 418 CURVE SMOOTH",
"566 334 OFFCURVE",
"584 258 OFFCURVE",
"609 192 CURVE SMOOTH",
"634 125 OFFCURVE",
"674 39 OFFCURVE",
"729 -67 CURVE"
);
},
{
closed = 1;
nodes = (
"173 123 OFFCURVE",
"126 203 OFFCURVE",
"124 364 CURVE",
"362 364 LINE",
"369 345 OFFCURVE",
"372 311 OFFCURVE",
"372 271 CURVE SMOOTH",
"372 186 OFFCURVE",
"333 123 OFFCURVE",
"264 123 CURVE SMOOTH"
);
}
);
width = 917;
}
);
},
{
glyphname = u182C_1822.ini;
lastChange = "2019-09-24 14:05:55 +0000";
layers = (
{
layerId = UUID0;
paths = (
{
closed = 1;
nodes = (
"695 -31 LINE",
"611 101 OFFCURVE",
"558 232 OFFCURVE",
"533 364 CURVE",
"840 364 LINE",
"840 444 LINE",
"523 444 LINE",
"501 628 OFFCURVE",
"443 760 OFFCURVE",
"287 760 CURVE SMOOTH",
"126 760 OFFCURVE",
"45 606 OFFCURVE",
"45 417 CURVE SMOOTH",
"45 299 OFFCURVE",
"88 174 OFFCURVE",
"174 42 CURVE",
"245 85 LINE",
"169 197 OFFCURVE",
"124 291 OFFCURVE",
"124 417 CURVE SMOOTH",
"124 557 OFFCURVE",
"170 677 OFFCURVE",
"287 677 CURVE SMOOTH",
"354 677 OFFCURVE",
"390 645 OFFCURVE",
"416 572 CURVE SMOOTH",
"429 536 OFFCURVE",
"438 485 OFFCURVE",
"447 418 CURVE SMOOTH",
"457 340 OFFCURVE",
"476 259 OFFCURVE",
"505 176 CURVE SMOOTH",
"534 92 OFFCURVE",
"574 12 OFFCURVE",
"622 -67 CURVE"
);
}
);
width = 810;
}
);
},
{
glyphname = u1830.fin;
lastChange = "2019-09-24 14:05:55 +0000";
layers = (
{
layerId = UUID0;
paths = (
{
closed = 1;
nodes = (
"105 73 LINE",
"92 124 OFFCURVE",
"86 191 OFFCURVE",
"86 276 CURVE SMOOTH",
"86 395 OFFCURVE",
"111 495 OFFCURVE",
"166 613 CURVE",
"170 613 LINE",
"179 519 OFFCURVE",
"197 431 OFFCURVE",
"222 350 CURVE SMOOTH",
"247 268 OFFCURVE",
"283 187 OFFCURVE",
"328 106 CURVE",
"408 106 LINE",
"449 309 OFFCURVE",
"520 478 OFFCURVE",
"640 642 CURVE",
"543 642 LINE",
"457 520 OFFCURVE",
"392 375 OFFCURVE",
"358 223 CURVE",
"354 223 LINE",
"313 308 OFFCURVE",
"283 392 OFFCURVE",
"265 475 CURVE SMOOTH",
"247 558 OFFCURVE",
"238 644 OFFCURVE",
"238 734 CURVE",
"157 734 LINE",
"94 640 OFFCURVE",
"53 543 OFFCURVE",
"32 444 CURVE",
"0 444 LINE",
"0 364 LINE SMOOTH",
"0 276 OFFCURVE",
"11 168 OFFCURVE",
"27 73 CURVE"
);
}
);
width = 685;
}
);
},
{
glyphname = u1834.med;
lastChange = "2019-09-24 14:05:55 +0000";
layers = (
{
layerId = UUID0;
paths = (
{
closed = 1;
nodes = (
"68 57 OFFCURVE",
"138 63 OFFCURVE",
"235 63 CURVE SMOOTH",
"356 63 LINE",
"356 129 LINE",
"329 209 OFFCURVE",
"315 280 OFFCURVE",
"315 364 CURVE",
"560 364 LINE",
"560 444 LINE",
"0 444 LINE",
"0 364 LINE",
"241 364 LINE",
"241 279 OFFCURVE",
"251 206 OFFCURVE",
"271 143 CURVE",
"235 143 LINE SMOOTH",
"141 143 OFFCURVE",
"63 141 OFFCURVE",
"0 101 CURVE",
"0 16 LINE"
);
}
);
width = 530;
}
);
},
{
export = 0;
glyphname = tail;
lastChange = "2019-09-24 14:05:55 +0000";
layers = (
{
layerId = UUID0;
paths = (
{
closed = 1;
nodes = (
"180 162 LINE",
"197 199 OFFCURVE",
"205 238 OFFCURVE",
"205 279 CURVE SMOOTH",
"205 389 OFFCURVE",
"146 444 OFFCURVE",
"30 444 CURVE SMOOTH",
"0 444 LINE",
"0 364 LINE",
"30 364 LINE SMOOTH",
"101 364 OFFCURVE",
"128 333 OFFCURVE",
"128 279 CURVE SMOOTH",
"128 235 OFFCURVE",
"121 196 OFFCURVE",
"106 162 CURVE"
);
}
);
width = 250;
}
);
},
{
glyphname = u1837;
lastChange = "2019-09-24 14:05:55 +0000";
layers = (
{
layerId = UUID0;
paths = (
{
closed = 1;
nodes = (
"313 -96 LINE",
"271 -17 OFFCURVE",
"234 63 OFFCURVE",
"205 143 CURVE",
"289 143 LINE SMOOTH",
"379 143 OFFCURVE",
"416 97 OFFCURVE",
"416 13 CURVE SMOOTH",
"416 -19 OFFCURVE",
"411 -44 OFFCURVE",
"401 -65 CURVE",
"480 -65 LINE",
"491 -38 OFFCURVE",
"496 -9 OFFCURVE",
"496 24 CURVE SMOOTH",
"496 144 OFFCURVE",
"421 223 OFFCURVE",
"292 223 CURVE SMOOTH",
"176 223 LINE",
"161 268 OFFCURVE",
"148 314 OFFCURVE",
"137 364 CURVE",
"648 364 LINE",
"648 444 LINE",
"45 444 LINE",
"72 267 OFFCURVE",
"137 76 OFFCURVE",
"240 -131 CURVE"
);
}
);
width = 693;
}
);
unicode = 1837;
},
{
glyphname = u1837.med;
lastChange = "2019-09-24 14:05:55 +0000";
layers = (
{
layerId = UUID0;
paths = (
{
closed = 1;
nodes = (
"254 -96 LINE",
"209 -13 OFFCURVE",
"174 67 OFFCURVE",
"146 143 CURVE",
"230 143 LINE SMOOTH",
"320 143 OFFCURVE",
"357 97 OFFCURVE",
"357 13 CURVE SMOOTH",
"357 -19 OFFCURVE",
"352 -44 OFFCURVE",
"342 -65 CURVE",
"421 -65 LINE",
"432 -38 OFFCURVE",
"437 -9 OFFCURVE",
"437 24 CURVE SMOOTH",
"437 144 OFFCURVE",
"362 223 OFFCURVE",
"233 223 CURVE SMOOTH",
"117 223 LINE",
"103 265 OFFCURVE",
"90 312 OFFCURVE",
"78 364 CURVE",
"589 364 LINE",
"589 444 LINE",
"0 444 LINE",
"0 364 LINE",
"39 198 OFFCURVE",
"99 33 OFFCURVE",
"181 -131 CURVE"
);
}
);
width = 559;
}
);
},
{
glyphname = u1837.fin;
lastChange = "2019-09-24 14:05:55 +0000";
layers = (
{
layerId = UUID0;
paths = (
{
closed = 1;
nodes = (
"208 55 LINE",
"162 119 OFFCURVE",
"128 179 OFFCURVE",
"107 236 CURVE",
"193 236 LINE SMOOTH",
"275 236 OFFCURVE",
"309 192 OFFCURVE",
"309 115 CURVE SMOOTH",
"309 88 OFFCURVE",
"304 65 OFFCURVE",
"294 47 CURVE",
"374 47 LINE",
"385 68 OFFCURVE",
"390 95 OFFCURVE",
"390 126 CURVE SMOOTH",
"390 241 OFFCURVE",
"319 315 OFFCURVE",
"196 315 CURVE SMOOTH",
"85 315 LINE",
"80 339 OFFCURVE",
"77 370 OFFCURVE",
"77 407 CURVE SMOOTH",
"77 536 OFFCURVE",
"120 642 OFFCURVE",
"229 642 CURVE SMOOTH",
"317 642 OFFCURVE",
"369 558 OFFCURVE",
"379 409 CURVE",
"459 419 LINE",
"448 591 OFFCURVE",
"381 725 OFFCURVE",
"229 725 CURVE SMOOTH",
"74 725 OFFCURVE",
"-2 587 OFFCURVE",
"-2 407 CURVE SMOOTH",
"-2 284 OFFCURVE",
"44 152 OFFCURVE",
"137 12 CURVE"
);
}
);
width = 504;
}
);
},
{
glyphname = u1832.med;
lastChange = "2019-09-24 14:05:55 +0000";
layers = (
{
layerId = UUID0;
paths = (
{
closed = 1;
nodes = (
"419 -157 OFFCURVE",
"491 -83 OFFCURVE",
"491 27 CURVE SMOOTH",
"491 152 OFFCURVE",
"414 232 OFFCURVE",
"290 232 CURVE SMOOTH",
"228 232 OFFCURVE",
"174 201 OFFCURVE",
"142 154 CURVE",
"117 225 OFFCURVE",
"96 295 OFFCURVE",
"79 364 CURVE",
"643 364 LINE",
"643 444 LINE",
"0 444 LINE",
"0 364 LINE",
"23 266 OFFCURVE",
"50 174 OFFCURVE",
"84 88 CURVE SMOOTH",
"141 -55 OFFCURVE",
"201 -157 OFFCURVE",
"319 -157 CURVE SMOOTH"
);
},
{
closed = 1;
nodes = (
"263 -77 OFFCURVE",
"217 -33 OFFCURVE",
"172 76 CURVE",
"195 123 OFFCURVE",
"239 153 OFFCURVE",
"290 153 CURVE SMOOTH",
"373 153 OFFCURVE",
"413 103 OFFCURVE",
"413 27 CURVE SMOOTH",
"413 -38 OFFCURVE",
"375 -77 OFFCURVE",
"319 -77 CURVE SMOOTH"
);
}
);
width = 613;
}
);
},
{
glyphname = u1832;
lastChange = "2019-09-24 14:05:55 +0000";
layers = (
{
layerId = UUID0;
paths = (
{
closed = 1;
nodes = (
"471 96 LINE",
"490 364 LINE",
"700 364 LINE",
"700 444 LINE",
"460 444 LINE",
"448 680 OFFCURVE",
"388 777 OFFCURVE",
"243 777 CURVE SMOOTH",
"122 777 OFFCURVE",
"45 686 OFFCURVE",
"45 563 CURVE SMOOTH",
"45 497 OFFCURVE",
"61 421 OFFCURVE",
"91 364 CURVE",
"386 364 LINE",
"405 96 LINE"
);
},
{
closed = 1;
nodes = (
"132 473 OFFCURVE",
"124 512 OFFCURVE",
"124 563 CURVE SMOOTH",
"124 646 OFFCURVE",
"171 694 OFFCURVE",
"243 694 CURVE SMOOTH",
"333 694 OFFCURVE",
"374 616 OFFCURVE",
"380 444 CURVE",
"147 444 LINE"
);
}
);
width = 745;
}
);
unicode = 1832;
},
{
glyphname = u1833;
lastChange = "2019-09-24 14:05:55 +0000";
layers = (
{
layerId = UUID0;
paths = (
{
closed = 1;
nodes = (
"480 -157 OFFCURVE",
"551 -84 OFFCURVE",
"551 27 CURVE SMOOTH",
"551 153 OFFCURVE",
"474 232 OFFCURVE",
"350 232 CURVE SMOOTH",
"288 232 OFFCURVE",
"234 201 OFFCURVE",
"202 154 CURVE",
"177 225 OFFCURVE",
"156 295 OFFCURVE",
"139 364 CURVE",
"703 364 LINE",
"703 444 LINE",
"45 444 LINE",
"62 342 OFFCURVE",
"89 238 OFFCURVE",
"128 131 CURVE SMOOTH",
"187 -32 OFFCURVE",
"250 -157 OFFCURVE",
"379 -157 CURVE SMOOTH"
);
},
{
closed = 1;
nodes = (
"323 -77 OFFCURVE",
"277 -33 OFFCURVE",
"232 76 CURVE",
"255 123 OFFCURVE",
"299 153 OFFCURVE",
"350 153 CURVE SMOOTH",
"433 153 OFFCURVE",
"473 103 OFFCURVE",
"473 27 CURVE SMOOTH",
"473 -38 OFFCURVE",
"435 -77 OFFCURVE",
"379 -77 CURVE SMOOTH"
);
}
);
width = 748;
}
);
unicode = 1833;
},
{
glyphname = u1834;
lastChange = "2019-09-24 14:05:55 +0000";
layers = (
{
layerId = UUID0;
paths = (
{
closed = 1;
nodes = (
"230 57 OFFCURVE",
"300 63 OFFCURVE",
"397 63 CURVE SMOOTH",
"518 63 LINE",
"518 129 LINE",
"491 209 OFFCURVE",
"477 280 OFFCURVE",
"477 364 CURVE",
"722 364 LINE",
"722 444 LINE",
"63 444 LINE",
"45 364 LINE",
"403 364 LINE",
"403 280 OFFCURVE",
"413 207 OFFCURVE",
"433 143 CURVE",
"397 143 LINE SMOOTH",
"303 143 OFFCURVE",
"225 140 OFFCURVE",
"162 101 CURVE",
"162 16 LINE"
);
}
);
width = 767;
}
);
unicode = 1834;
},
{
glyphname = u1830.med;
lastChange = "2019-09-24 14:05:55 +0000";
layers = (
{
layerId = UUID0;
paths = (
{
closed = 1;
nodes = (
"105 73 LINE",
"97 106 OFFCURVE",
"93 148 OFFCURVE",
"93 199 CURVE SMOOTH",
"93 350 OFFCURVE",
"123 481 OFFCURVE",
"197 617 CURVE",
"201 617 LINE",
"217 419 OFFCURVE",
"256 247 OFFCURVE",
"334 73 CURVE",
"419 73 LINE",
"373 168 OFFCURVE",
"337 265 OFFCURVE",
"313 364 CURVE",
"611 364 LINE",
"611 444 LINE",
"296 444 LINE",
"279 539 OFFCURVE",
"271 636 OFFCURVE",
"271 734 CURVE",
"190 734 LINE",
"125 645 OFFCURVE",
"79 548 OFFCURVE",
"50 444 CURVE",
"0 444 LINE",
"0 364 LINE SMOOTH",
"0 276 OFFCURVE",
"11 159 OFFCURVE",
"28 73 CURVE"
);
}
);
width = 581;
}
);
},
{
glyphname = u182C.fin;
lastChange = "2019-09-24 14:05:55 +0000";
layers = (
{
layerId = UUID0;
paths = (
{
closed = 1;
nodes = (
"506 186 LINE SMOOTH",
"506 361 OFFCURVE",
"535 516 OFFCURVE",
"618 666 CURVE",
"525 666 LINE",
"459 536 OFFCURVE",
"427 376 OFFCURVE",
"427 188 CURVE",
"340 237 OFFCURVE",
"321 318 OFFCURVE",
"321 444 CURVE",
"0 444 LINE",
"0 364 LINE",
"19 96 LINE",
"85 96 LINE",
"104 364 LINE",
"251 364 LINE",
"251 214 OFFCURVE",
"359 74 OFFCURVE",
"506 74 CURVE"
);
}
);
width = 663;
}
);
},
{
glyphname = u182A_1823;
lastChange = "2019-09-24 14:05:55 +0000";
layers = (
{
layerId = UUID0;
paths = (
{
closed = 1;
nodes = (
"311 40 OFFCURVE",
"370 72 OFFCURVE",
"396 135 CURVE",
"424 71 OFFCURVE",
"474 40 OFFCURVE",
"538 40 CURVE SMOOTH",
"683 40 OFFCURVE",
"752 146 OFFCURVE",
"752 375 CURVE SMOOTH",
"752 607 OFFCURVE",
"632 782 OFFCURVE",
"405 782 CURVE SMOOTH",
"178 782 OFFCURVE",
"45 617 OFFCURVE",
"45 375 CURVE SMOOTH",
"45 155 OFFCURVE",
"107 40 OFFCURVE",
"249 40 CURVE SMOOTH"
);
},
{
closed = 1;
nodes = (
"145 123 OFFCURVE",
"124 222 OFFCURVE",
"124 364 CURVE",
"359 364 LINE",
"359 286 LINE SMOOTH",
"359 195 OFFCURVE",
"325 123 OFFCURVE",
"249 123 CURVE SMOOTH"
);
},
{
closed = 1;
nodes = (
"471 123 OFFCURVE",
"438 177 OFFCURVE",
"438 286 CURVE SMOOTH",
"438 364 LINE",
"673 364 LINE",
"668 188 OFFCURVE",
"638 123 OFFCURVE",
"538 123 CURVE SMOOTH"
);
},
{
closed = 1;
nodes = (
"145 605 OFFCURVE",
"236 699 OFFCURVE",
"405 699 CURVE SMOOTH",
"556 699 OFFCURVE",
"647 596 OFFCURVE",
"668 444 CURVE",
"127 444 LINE"
);
}
);
width = 797;
}
);
},
{
glyphname = u182A_1823.ini;
lastChange = "2019-09-24 14:05:55 +0000";
layers = (
{
layerId = UUID0;
paths = (
{
closed = 1;
nodes = (
"311 40 OFFCURVE",
"370 72 OFFCURVE",
"396 135 CURVE",
"424 71 OFFCURVE",
"474 40 OFFCURVE",
"538 40 CURVE SMOOTH",
"681 40 OFFCURVE",
"750 146 OFFCURVE",
"752 364 CURVE",
"963 364 LINE",
"963 444 LINE",
"748 444 LINE",
"726 652 OFFCURVE",
"597 782 OFFCURVE",
"405 782 CURVE SMOOTH",
"178 782 OFFCURVE",
"45 617 OFFCURVE",
"45 375 CURVE SMOOTH",
"45 155 OFFCURVE",
"107 40 OFFCURVE",
"249 40 CURVE SMOOTH"
);
},
{
closed = 1;
nodes = (
"145 123 OFFCURVE",
"124 222 OFFCURVE",
"124 364 CURVE",
"359 364 LINE",
"359 286 LINE SMOOTH",
"359 195 OFFCURVE",
"325 123 OFFCURVE",
"249 123 CURVE SMOOTH"
);
},
{
closed = 1;
nodes = (
"471 123 OFFCURVE",
"438 177 OFFCURVE",
"438 286 CURVE SMOOTH",
"438 364 LINE",
"673 364 LINE",
"668 188 OFFCURVE",
"638 123 OFFCURVE",
"538 123 CURVE SMOOTH"
);
},
{
closed = 1;
nodes = (
"145 605 OFFCURVE",
"236 699 OFFCURVE",
"405 699 CURVE SMOOTH",
"556 699 OFFCURVE",
"647 596 OFFCURVE",
"668 444 CURVE",
"127 444 LINE"
);
}
);
width = 933;
}
);
},
{
glyphname = u1829.fin;
lastChange = "2019-09-24 14:05:55 +0000";
layers = (
{
layerId = UUID0;
paths = (
{
closed = 1;
nodes = (
"618 -264 LINE",
"604 -240 OFFCURVE",
"597 -214 OFFCURVE",
"597 -187 CURVE SMOOTH",
"597 -130 OFFCURVE",
"617 -91 OFFCURVE",
"664 -31 CURVE SMOOTH",
"740 66 OFFCURVE",
"797 153 OFFCURVE",
"797 245 CURVE SMOOTH",
"797 373 OFFCURVE",
"720 444 OFFCURVE",
"566 444 CURVE SMOOTH",
"0 444 LINE",
"0 364 LINE",
"19 96 LINE",
"85 96 LINE",
"104 364 LINE",
"218 364 LINE",
"256 220 OFFCURVE",
"313 77 OFFCURVE",
"391 -67 CURVE",
"464 -31 LINE",
"391 100 OFFCURVE",
"335 231 OFFCURVE",
"297 364 CURVE",
"565 364 LINE SMOOTH",
"672 364 OFFCURVE",
"719 325 OFFCURVE",
"719 245 CURVE SMOOTH",
"719 172 OFFCURVE",
"674 110 OFFCURVE",
"612 28 CURVE SMOOTH",
"558 -44 OFFCURVE",
"517 -109 OFFCURVE",
"517 -187 CURVE SMOOTH",
"517 -217 OFFCURVE",
"523 -243 OFFCURVE",
"536 -264 CURVE"
);
}
);
width = 842;
}
);
},
{
glyphname = u1822.fin;
lastChange = "2019-09-24 14:05:55 +0000";
layers = (
{
layerId = UUID0;
paths = (
{
closed = 1;
nodes = (
"198 85 LINE",
"120 194 OFFCURVE",
"77 285 OFFCURVE",
"77 407 CURVE SMOOTH",
"77 567 OFFCURVE",
"134 644 OFFCURVE",
"226 644 CURVE SMOOTH",
"314 644 OFFCURVE",
"366 546 OFFCURVE",
"376 376 CURVE",
"456 386 LINE",
"446 568 OFFCURVE",
"381 727 OFFCURVE",
"226 727 CURVE SMOOTH",
"74 727 OFFCURVE",
"-2 586 OFFCURVE",
"-2 407 CURVE SMOOTH",
"-2 292 OFFCURVE",
"41 170 OFFCURVE",
"127 42 CURVE"
);
}
);
width = 501;
}
);
},
{
glyphname = u1822.ini;
lastChange = "2019-09-24 14:05:55 +0000";
layers = (
{
layerId = UUID0;
paths = (
{
closed = 1;
nodes = (
"699 -31 LINE",
"626 100 OFFCURVE",
"570 231 OFFCURVE",
"532 364 CURVE",
"844 364 LINE",
"844 444 LINE",
"444 444 LINE SMOOTH",
"360 444 OFFCURVE",
"307 416 OFFCURVE",
"285 361 CURVE",
"281 361 LINE",
"278 445 LINE SMOOTH",
"273 575 OFFCURVE",
"248 653 OFFCURVE",
"139 653 CURVE SMOOTH",
"100 653 OFFCURVE",
"57 643 OFFCURVE",
"10 623 CURVE",
"10 550 LINE",
"52 567 OFFCURVE",
"88 575 OFFCURVE",
"118 575 CURVE SMOOTH",
"179 575 OFFCURVE",
"194 520 OFFCURVE",
"200 437 CURVE SMOOTH",
"226 74 LINE",
"292 74 LINE",
"302 219 LINE SMOOTH",
"310 330 OFFCURVE",
"336 364 OFFCURVE",
"445 364 CURVE SMOOTH",
"453 364 LINE",
"491 221 OFFCURVE",
"548 78 OFFCURVE",
"626 -67 CURVE"
);
}
);
width = 814;
}
);
},
{
glyphname = u1820.medV1;
lastChange = "2019-09-24 14:05:55 +0000";
layers = (
{
layerId = UUID0;
paths = (
{
closed = 1;
nodes = (
"85 96 LINE",
"104 364 LINE",
"284 364 LINE",
"303 96 LINE",
"369 96 LINE",
"388 364 LINE",
"598 364 LINE",
"598 444 LINE",
"0 444 LINE",
"0 364 LINE",
"19 96 LINE"
);
}
);
width = 568;
}
);
},
{
glyphname = u182A_1825.ini;
lastChange = "2019-09-24 14:05:55 +0000";
layers = (
{
layerId = UUID0;
paths = (
{
closed = 1;
nodes = (
"1109 -31 LINE",
"1037 97 OFFCURVE",
"981 229 OFFCURVE",
"942 364 CURVE",
"1254 364 LINE",
"1254 444 LINE",
"748 444 LINE",
"726 652 OFFCURVE",
"599 782 OFFCURVE",
"405 782 CURVE SMOOTH",
"178 782 OFFCURVE",
"45 615 OFFCURVE",
"45 375 CURVE SMOOTH",
"45 155 OFFCURVE",
"107 40 OFFCURVE",
"249 40 CURVE SMOOTH",
"311 40 OFFCURVE",
"370 72 OFFCURVE",
"396 135 CURVE",
"424 71 OFFCURVE",
"474 40 OFFCURVE",
"538 40 CURVE SMOOTH",
"681 40 OFFCURVE",
"750 146 OFFCURVE",
"752 364 CURVE",
"863 364 LINE",
"901 220 OFFCURVE",
"958 77 OFFCURVE",
"1036 -67 CURVE"
);
},
{
closed = 1;
nodes = (
"142 123 OFFCURVE",
"124 227 OFFCURVE",
"124 364 CURVE",
"359 364 LINE",
"359 281 LINE SMOOTH",
"359 187 OFFCURVE",
"318 123 OFFCURVE",
"248 123 CURVE SMOOTH"
);
},
{
closed = 1;
nodes = (
"471 123 OFFCURVE",
"438 177 OFFCURVE",
"438 286 CURVE SMOOTH",
"438 364 LINE",
"673 364 LINE",
"668 188 OFFCURVE",
"638 123 OFFCURVE",
"538 123 CURVE SMOOTH"
);
},
{
closed = 1;
nodes = (
"148 605 OFFCURVE",
"233 699 OFFCURVE",
"405 699 CURVE SMOOTH",
"556 699 OFFCURVE",
"647 596 OFFCURVE",
"668 444 CURVE",
"127 444 LINE"
);
}
);
width = 1224;
}
);
},
{
glyphname = u182F.med;
lastChange = "2019-09-24 14:05:55 +0000";
layers = (
{
layerId = UUID0;
paths = (
{
closed = 1;
nodes = (
"85 96 LINE",
"104 364 LINE",
"314 364 LINE",
"314 444 LINE",
"86 444 LINE",
"88 518 OFFCURVE",
"109 581 OFFCURVE",
"148 653 CURVE",
"148 719 LINE",
"28 719 LINE SMOOTH",
"-43 719 OFFCURVE",
"-102 721 OFFCURVE",
"-152 755 CURVE",
"-152 677 LINE",
"-112 642 OFFCURVE",
"-54 639 OFFCURVE",
"28 639 CURVE SMOOTH",
"62 639 LINE",
"34 580 OFFCURVE",
"19 515 OFFCURVE",
"16 444 CURVE",
"0 444 LINE",
"0 364 LINE",
"19 96 LINE"
);
}
);
width = 284;
}
);
},
{
glyphname = u182F;
lastChange = "2019-09-24 14:05:55 +0000";
layers = (
{
layerId = UUID0;
paths = (
{
closed = 1;
nodes = (
"292 74 LINE",
"302 219 LINE SMOOTH",
"310 330 OFFCURVE",
"336 364 OFFCURVE",
"445 364 CURVE SMOOTH",
"522 364 LINE",
"522 444 LINE",
"444 444 LINE SMOOTH",
"360 444 OFFCURVE",
"307 416 OFFCURVE",
"285 361 CURVE",
"281 361 LINE",
"278 445 LINE SMOOTH",
"276 500 OFFCURVE",
"270 542 OFFCURVE",
"259 573 CURVE",
"266 640 OFFCURVE",
"292 698 OFFCURVE",
"339 766 CURVE",
"339 832 LINE",
"219 832 LINE SMOOTH",
"151 832 OFFCURVE",
"86 835 OFFCURVE",
"39 868 CURVE",
"39 790 LINE",
"80 754 OFFCURVE",
"142 752 OFFCURVE",
"219 752 CURVE SMOOTH",
"247 752 LINE",
"228 723 OFFCURVE",
"212 686 OFFCURVE",
"200 642 CURVE",
"182 649 OFFCURVE",
"162 653 OFFCURVE",
"139 653 CURVE SMOOTH",
"100 653 OFFCURVE",
"57 643 OFFCURVE",
"10 623 CURVE",
"10 550 LINE",
"52 567 OFFCURVE",
"88 575 OFFCURVE",
"118 575 CURVE SMOOTH",
"180 575 OFFCURVE",
"194 520 OFFCURVE",
"200 437 CURVE SMOOTH",
"226 74 LINE"
);
}
);
width = 567;
}
);
unicode = 182F;
},
{
glyphname = u1829_182F.med;
lastChange = "2019-09-24 14:05:55 +0000";
layers = (
{
layerId = UUID0;
paths = (
{
closed = 1;
nodes = (
"412 112 LINE",
"356 205 OFFCURVE",
"321 292 OFFCURVE",
"321 396 CURVE SMOOTH",
"321 500 OFFCURVE",
"364 563 OFFCURVE",
"444 563 CURVE SMOOTH",
"516 563 OFFCURVE",
"564 500 OFFCURVE",
"574 365 CURVE SMOOTH",
"593 96 LINE",
"659 96 LINE",
"678 364 LINE",
"888 364 LINE",
"888 444 LINE",
"639 444 LINE",
"633 473 OFFCURVE",
"626 500 OFFCURVE",
"616 523 CURVE",
"616 612 OFFCURVE",
"641 682 OFFCURVE",
"688 766 CURVE",
"688 832 LINE",
"568 832 LINE SMOOTH",
"500 832 OFFCURVE",
"435 835 OFFCURVE",
"388 868 CURVE",
"388 790 LINE",
"429 754 OFFCURVE",
"491 752 OFFCURVE",
"568 752 CURVE SMOOTH",
"596 752 LINE",
"576 711 OFFCURVE",
"562 664 OFFCURVE",
"553 609 CURVE",
"522 634 OFFCURVE",
"486 646 OFFCURVE",
"444 646 CURVE SMOOTH",
"327 646 OFFCURVE",
"258 561 OFFCURVE",
"245 444 CURVE",
"0 444 LINE",
"0 364 LINE",
"19 96 LINE",
"85 96 LINE",
"104 364 LINE",
"243 364 LINE",
"249 271 OFFCURVE",
"280 173 OFFCURVE",
"338 70 CURVE"
);
}
);
width = 858;
}
);
},
{
glyphname = u182E.fin;
lastChange = "2019-09-24 14:05:55 +0000";
layers = (
{
layerId = UUID0;
paths = (
{
closed = 1;
nodes = (
"270 186 LINE SMOOTH",
"270 395 OFFCURVE",
"322 544 OFFCURVE",
"445 718 CURVE",
"346 718 LINE",
"239 571 OFFCURVE",
"191 396 OFFCURVE",
"191 183 CURVE",
"99 234 OFFCURVE",
"73 300 OFFCURVE",
"70 449 CURVE SMOOTH",
"69 506 OFFCURVE",
"63 558 OFFCURVE",
"49 606 CURVE",
"118 606 OFFCURVE",
"174 610 OFFCURVE",
"213 644 CURVE",
"213 722 LINE",
"169 690 OFFCURVE",
"117 686 OFFCURVE",
"45 686 CURVE SMOOTH",
"-27 686 LINE",
"-27 620 LINE",
"-9 564 OFFCURVE",
"0 507 OFFCURVE",
"0 449 CURVE SMOOTH",
"0 364 LINE SMOOTH",
"0 212 OFFCURVE",
"112 77 OFFCURVE",
"270 74 CURVE"
);
}
);
width = 455;
}
);
},
{
glyphname = u182C.ini;
lastChange = "2019-09-24 14:05:55 +0000";
layers = (
{
layerId = UUID0;
paths = (
{
closed = 1;
nodes = (
"299 96 LINE",
"289 268 OFFCURVE",
"258 377 OFFCURVE",
"206 423 CURVE",
"214 574 OFFCURVE",
"272 644 OFFCURVE",
"362 644 CURVE SMOOTH",
"462 644 OFFCURVE",
"512 563 OFFCURVE",
"512 378 CURVE SMOOTH",
"512 279 OFFCURVE",
"506 185 OFFCURVE",
"495 96 CURVE",
"573 96 LINE",
"587 192 OFFCURVE",
"594 281 OFFCURVE",
"594 364 CURVE",
"818 364 LINE",
"818 444 LINE",
"591 444 LINE",
"573 633 OFFCURVE",
"497 727 OFFCURVE",
"362 727 CURVE SMOOTH",
"222 727 OFFCURVE",
"142 609 OFFCURVE",
"129 451 CURVE",
"96 450 OFFCURVE",
"68 444 OFFCURVE",
"45 433 CURVE",
"45 353 LINE",
"62 362 OFFCURVE",
"84 366 OFFCURVE",
"112 366 CURVE SMOOTH",
"192 366 OFFCURVE",
"210 233 OFFCURVE",
"221 96 CURVE"
);
}
);
width = 788;
}
);
},
{
glyphname = u1830;
lastChange = "2019-09-24 14:05:55 +0000";
layers = (
{
layerId = UUID0;
paths = (
{
closed = 1;
nodes = (
"519 73 LINE",
"497 178 OFFCURVE",
"477 273 OFFCURVE",
"454 364 CURVE",
"711 364 LINE",
"711 444 LINE",
"433 444 LINE",
"406 545 OFFCURVE",
"378 642 OFFCURVE",
"349 734 CURVE",
"255 734 LINE",
"234 608 OFFCURVE",
"215 525 OFFCURVE",
"199 486 CURVE SMOOTH",
"183 446 OFFCURVE",
"160 427 OFFCURVE",
"130 427 CURVE SMOOTH",
"104 427 OFFCURVE",
"76 433 OFFCURVE",
"45 446 CURVE",
"45 371 LINE",
"74 354 OFFCURVE",
"104 346 OFFCURVE",
"135 346 CURVE SMOOTH",
"216 346 OFFCURVE",
"249 394 OFFCURVE",
"273 480 CURVE SMOOTH",
"287 532 OFFCURVE",
"297 579 OFFCURVE",
"302 620 CURVE",
"306 620 LINE",
"327 562 OFFCURVE",
"350 484 OFFCURVE",
"374 387 CURVE SMOOTH",
"398 291 OFFCURVE",
"421 186 OFFCURVE",
"443 73 CURVE"
);
}
);
width = 756;
}
);
unicode = 1830;
},
{
glyphname = u1830.finV1;
lastChange = "2019-09-24 14:05:55 +0000";
layers = (
{
layerId = UUID0;
paths = (
{
closed = 1;
nodes = (
"151 106 LINE",
"194 312 OFFCURVE",
"264 478 OFFCURVE",
"383 642 CURVE",
"286 642 LINE",
"202 525 OFFCURVE",
"131 365 OFFCURVE",
"101 223 CURVE",
"97 223 LINE",
"46 284 OFFCURVE",
"37 351 OFFCURVE",
"37 444 CURVE",
"-33 444 LINE",
"-33 364 LINE SMOOTH",
"-33 278 OFFCURVE",
"17 178 OFFCURVE",
"80 106 CURVE"
);
}
);
width = 428;
}
);
},
{
glyphname = u183E.med;
lastChange = "2019-09-24 14:05:55 +0000";
layers = (
{
layerId = UUID0;
paths = (
{
closed = 1;
nodes = (
"409 -57 LINE",
"334 82 OFFCURVE",
"297 215 OFFCURVE",
"295 364 CURVE",
"551 364 LINE",
"551 444 LINE",
"219 444 LINE",
"219 366 LINE SMOOTH",
"219 220 OFFCURVE",
"247 93 OFFCURVE",
"303 -17 CURVE",
"179 -72 LINE",
"104 70 OFFCURVE",
"75 200 OFFCURVE",
"75 364 CURVE SMOOTH",
"75 444 LINE",
"0 444 LINE",
"0 364 LINE SMOOTH",
"0 166 OFFCURVE",
"45 -6 OFFCURVE",
"140 -182 CURVE"
);
}
);
width = 521;
}
);
},
{
glyphname = u1820;
lastChange = "2019-09-24 14:05:55 +0000";
layers = (
{
layerId = UUID0;
paths = (
{
closed = 1;
nodes = (
"730 156 LINE SMOOTH",
"730 398 OFFCURVE",
"781 666 OFFCURVE",
"919 836 CURVE",
"827 836 LINE",
"706 677 OFFCURVE",
"653 397 OFFCURVE",
"653 156 CURVE",
"560 210 OFFCURVE",
"543 312 OFFCURVE",
"543 444 CURVE",
"444 444 LINE SMOOTH",
"360 444 OFFCURVE",
"307 416 OFFCURVE",
"285 361 CURVE",
"281 361 LINE",
"278 445 LINE SMOOTH",
"273 575 OFFCURVE",
"248 653 OFFCURVE",
"139 653 CURVE SMOOTH",
"100 653 OFFCURVE",
"57 643 OFFCURVE",
"10 623 CURVE",
"10 550 LINE",
"52 567 OFFCURVE",
"88 575 OFFCURVE",
"118 575 CURVE SMOOTH",
"179 575 OFFCURVE",
"194 520 OFFCURVE",
"200 437 CURVE SMOOTH",
"226 74 LINE",
"292 74 LINE",
"302 219 LINE SMOOTH",
"310 330 OFFCURVE",
"336 364 OFFCURVE",
"445 364 CURVE SMOOTH",
"469 364 LINE",
"469 205 OFFCURVE",
"570 63 OFFCURVE",
"730 53 CURVE"
);
}
);
width = 929;
}
);
unicode = 1820;
},
{
glyphname = u1820.V1;
lastChange = "2019-09-24 14:05:55 +0000";
layers = (
{
layerId = UUID0;
paths = (
{
closed = 1;
nodes = (
"600 -264 LINE",
"586 -240 OFFCURVE",
"579 -214 OFFCURVE",
"579 -187 CURVE SMOOTH",
"579 -124 OFFCURVE",
"598 -93 OFFCURVE",
"646 -31 CURVE SMOOTH",
"722 67 OFFCURVE",
"779 153 OFFCURVE",
"779 245 CURVE SMOOTH",
"779 373 OFFCURVE",
"702 444 OFFCURVE",
"548 444 CURVE SMOOTH",
"444 444 LINE SMOOTH",
"360 444 OFFCURVE",
"307 416 OFFCURVE",
"285 361 CURVE",
"281 361 LINE",
"278 445 LINE SMOOTH",
"273 575 OFFCURVE",
"248 653 OFFCURVE",
"139 653 CURVE SMOOTH",
"100 653 OFFCURVE",
"57 643 OFFCURVE",
"10 623 CURVE",
"10 550 LINE",
"52 567 OFFCURVE",
"88 575 OFFCURVE",
"118 575 CURVE SMOOTH",
"179 575 OFFCURVE",
"194 520 OFFCURVE",
"200 437 CURVE SMOOTH",
"226 74 LINE",
"292 74 LINE",
"302 219 LINE SMOOTH",
"310 330 OFFCURVE",
"336 364 OFFCURVE",
"445 364 CURVE SMOOTH",
"547 364 LINE SMOOTH",
"654 364 OFFCURVE",
"701 325 OFFCURVE",
"701 245 CURVE SMOOTH",
"701 175 OFFCURVE",
"657 112 OFFCURVE",
"594 28 CURVE SMOOTH",
"538 -46 OFFCURVE",
"499 -112 OFFCURVE",
"499 -187 CURVE SMOOTH",
"499 -217 OFFCURVE",
"505 -243 OFFCURVE",
"518 -264 CURVE"
);
}
);
width = 824;
}
);
},
{
glyphname = u1820.ini;
lastChange = "2019-09-24 14:05:55 +0000";
layers = (
{
layerId = UUID0;
paths = (
{
closed = 1;
nodes = (
"292 74 LINE",
"302 219 LINE SMOOTH",
"309 326 OFFCURVE",
"335 364 OFFCURVE",
"445 364 CURVE SMOOTH",
"502 364 LINE",
"521 96 LINE",
"587 96 LINE",
"606 364 LINE",
"816 364 LINE",
"816 444 LINE",
"444 444 LINE SMOOTH",
"360 444 OFFCURVE",
"307 416 OFFCURVE",
"285 361 CURVE",
"281 361 LINE",
"278 445 LINE SMOOTH",
"273 575 OFFCURVE",
"248 653 OFFCURVE",
"139 653 CURVE SMOOTH",
"100 653 OFFCURVE",
"57 643 OFFCURVE",
"10 623 CURVE",
"10 550 LINE",
"52 567 OFFCURVE",
"88 575 OFFCURVE",
"118 575 CURVE SMOOTH",
"179 575 OFFCURVE",
"194 520 OFFCURVE",
"200 437 CURVE SMOOTH",
"226 74 LINE"
);
}
);
width = 786;
}
);
},
{
glyphname = u182A_1820.ini;
lastChange = "2019-09-24 14:05:55 +0000";
layers = (
{
layerId = UUID0;
paths = (
{
closed = 1;
nodes = (
"375 40 OFFCURVE",
"451 134 OFFCURVE",
"451 275 CURVE SMOOTH",
"451 312 OFFCURVE",
"440 410 OFFCURVE",
"428 444 CURVE",
"124 444 LINE",
"126 592 OFFCURVE",
"204 699 OFFCURVE",
"352 699 CURVE SMOOTH",
"493 699 OFFCURVE",
"563 586 OFFCURVE",
"579 364 CURVE SMOOTH",
"598 96 LINE",
"664 96 LINE",
"683 364 LINE",
"893 364 LINE",
"893 444 LINE",
"652 444 LINE",
"625 637 OFFCURVE",
"535 782 OFFCURVE",
"352 782 CURVE SMOOTH",
"150 782 OFFCURVE",
"45 630 OFFCURVE",
"45 408 CURVE SMOOTH",
"45 161 OFFCURVE",
"119 40 OFFCURVE",
"271 40 CURVE SMOOTH"
);
},
{
closed = 1;
nodes = (
"173 123 OFFCURVE",
"126 203 OFFCURVE",
"124 364 CURVE",
"362 364 LINE",
"369 345 OFFCURVE",
"372 315 OFFCURVE",
"372 275 CURVE SMOOTH",
"372 190 OFFCURVE",
"337 123 OFFCURVE",
"264 123 CURVE SMOOTH"
);
}
);
width = 863;
}
);
},
{
glyphname = u1827.med;
lastChange = "2019-09-24 14:05:55 +0000";
layers = (
{
layerId = UUID0;
paths = (
{
closed = 1;
nodes = (
"346 -119 OFFCURVE",
"377 -106 OFFCURVE",
"392 -85 CURVE",
"392 6 LINE",
"373 -22 OFFCURVE",
"345 -36 OFFCURVE",
"309 -36 CURVE SMOOTH",
"244 -36 OFFCURVE",
"202 49 OFFCURVE",
"156 152 CURVE SMOOTH",
"124 224 OFFCURVE",
"99 294 OFFCURVE",
"79 364 CURVE",
"488 364 LINE",
"488 444 LINE",
"0 444 LINE",
"0 364 LINE",
"20 292 OFFCURVE",
"42 223 OFFCURVE",
"68 157 CURVE SMOOTH",
"133 -6 OFFCURVE",
"187 -119 OFFCURVE",
"309 -119 CURVE SMOOTH"
);
}
);
width = 458;
}
);
},
{
glyphname = u182C_1825.V1;
lastChange = "2019-09-24 14:05:55 +0000";
layers = (
{
layerId = UUID0;
paths = (
{
closed = 1;
nodes = (
"623 40 OFFCURVE",
"704 145 OFFCURVE",
"704 302 CURVE SMOOTH",
"704 558 OFFCURVE",
"607 760 OFFCURVE",
"365 760 CURVE SMOOTH",
"170 760 OFFCURVE",
"45 616 OFFCURVE",
"45 408 CURVE SMOOTH",
"45 290 OFFCURVE",
"86 152 OFFCURVE",
"146 42 CURVE",
"219 73 LINE",
"152 198 OFFCURVE",
"124 313 OFFCURVE",
"124 405 CURVE SMOOTH",
"124 567 OFFCURVE",
"211 677 OFFCURVE",
"365 677 CURVE SMOOTH",
"503 677 OFFCURVE",
"586 599 OFFCURVE",
"614 444 CURVE",
"347 444 LINE",
"323 397 OFFCURVE",
"309 330 OFFCURVE",
"309 275 CURVE SMOOTH",
"309 132 OFFCURVE",
"376 40 OFFCURVE",
"509 40 CURVE SMOOTH"
);
},
{
closed = 1;
nodes = (
"426 123 OFFCURVE",
"388 174 OFFCURVE",
"388 275 CURVE SMOOTH",
"388 311 OFFCURVE",
"394 341 OFFCURVE",
"404 364 CURVE",
"623 364 LINE",
"625 344 OFFCURVE",
"625 322 OFFCURVE",
"625 301 CURVE SMOOTH",
"625 203 OFFCURVE",
"585 123 OFFCURVE",
"502 123 CURVE SMOOTH"
);
}
);
width = 749;
}
);
},
{
glyphname = u182C_1825.iniV1;
lastChange = "2019-09-24 14:05:55 +0000";
layers = (
{
layerId = UUID0;
paths = (
{
closed = 1;
nodes = (
"622 40 OFFCURVE",
"704 145 OFFCURVE",
"704 302 CURVE SMOOTH",
"704 323 OFFCURVE",
"704 344 OFFCURVE",
"702 364 CURVE",
"915 364 LINE",
"915 444 LINE",
"693 444 LINE",
"658 649 OFFCURVE",
"545 760 OFFCURVE",
"365 760 CURVE SMOOTH",
"170 760 OFFCURVE",
"45 616 OFFCURVE",
"45 408 CURVE SMOOTH",
"45 290 OFFCURVE",
"86 152 OFFCURVE",
"146 42 CURVE",
"219 73 LINE",
"152 198 OFFCURVE",
"124 313 OFFCURVE",
"124 405 CURVE SMOOTH",
"124 567 OFFCURVE",
"211 677 OFFCURVE",
"365 677 CURVE SMOOTH",
"503 677 OFFCURVE",
"586 599 OFFCURVE",
"614 444 CURVE",
"347 444 LINE",
"323 397 OFFCURVE",
"309 330 OFFCURVE",
"309 275 CURVE SMOOTH",
"309 132 OFFCURVE",
"376 40 OFFCURVE",
"509 40 CURVE SMOOTH"
);
},
{
closed = 1;
nodes = (
"426 123 OFFCURVE",
"388 174 OFFCURVE",
"388 275 CURVE SMOOTH",
"388 311 OFFCURVE",
"394 341 OFFCURVE",
"404 364 CURVE",
"623 364 LINE",
"625 344 OFFCURVE",
"625 324 OFFCURVE",
"625 303 CURVE SMOOTH",
"625 204 OFFCURVE",
"586 123 OFFCURVE",
"502 123 CURVE SMOOTH"
);
}
);
width = 885;
}
);
},
{
glyphname = u182C_1821.ini;
lastChange = "2019-09-24 14:05:55 +0000";
layers = (
{
layerId = UUID0;
paths = (
{
closed = 1;
nodes = (
"245 85 LINE",
"169 197 OFFCURVE",
"124 291 OFFCURVE",
"124 417 CURVE SMOOTH",
"124 571 OFFCURVE",
"183 644 OFFCURVE",
"275 644 CURVE SMOOTH",
"394 644 OFFCURVE",
"418 529 OFFCURVE",
"430 363 CURVE SMOOTH",
"449 96 LINE",
"515 96 LINE",
"534 364 LINE",
"744 364 LINE",
"744 444 LINE",
"503 444 LINE",
"482 614 OFFCURVE",
"424 727 OFFCURVE",
"274 727 CURVE SMOOTH",
"136 727 OFFCURVE",
"45 606 OFFCURVE",
"45 417 CURVE SMOOTH",
"45 299 OFFCURVE",
"88 174 OFFCURVE",
"174 42 CURVE"
);
}
);
width = 714;
}
);
},
{
glyphname = u182B_1820.ini;
lastChange = "2019-09-24 14:05:55 +0000";
layers = (
{
layerId = UUID0;
paths = (
{
closed = 1;
nodes = (
"109 68 OFFCURVE",
"162 73 OFFCURVE",
"231 73 CURVE SMOOTH",
"346 73 OFFCURVE",
"418 158 OFFCURVE",
"418 275 CURVE SMOOTH",
"418 332 OFFCURVE",
"411 388 OFFCURVE",
"397 444 CURVE",
"124 444 LINE",
"126 588 OFFCURVE",
"194 699 OFFCURVE",
"330 699 CURVE SMOOTH",
"461 699 OFFCURVE",
"530 586 OFFCURVE",
"546 364 CURVE SMOOTH",
"565 96 LINE",
"631 96 LINE",
"650 364 LINE",
"860 364 LINE",
"860 444 LINE",
"618 444 LINE",
"586 665 OFFCURVE",
"488 782 OFFCURVE",
"330 782 CURVE SMOOTH",
"138 782 OFFCURVE",
"45 624 OFFCURVE",
"45 408 CURVE SMOOTH",
"45 364 LINE",
"329 364 LINE",
"335 344 OFFCURVE",
"339 312 OFFCURVE",
"339 273 CURVE SMOOTH",
"339 201 OFFCURVE",
"298 153 OFFCURVE",
"231 153 CURVE SMOOTH",
"167 153 OFFCURVE",
"104 150 OFFCURVE",
"62 122 CURVE",
"62 42 LINE"
);
}
);
width = 830;
}
);
},
{
glyphname = u1839_1823;
lastChange = "2019-09-24 14:05:55 +0000";
layers = (
{
layerId = UUID0;
paths = (
{
closed = 1;
nodes = (
"288 -182 LINE",
"263 -148 OFFCURVE",
"250 -108 OFFCURVE",
"250 -63 CURVE SMOOTH",
"250 -23 OFFCURVE",
"257 11 OFFCURVE",
"271 41 CURVE",
"323 47 OFFCURVE",
"372 79 OFFCURVE",
"396 135 CURVE",
"424 71 OFFCURVE",
"474 40 OFFCURVE",
"538 40 CURVE SMOOTH",
"683 40 OFFCURVE",
"752 146 OFFCURVE",
"752 375 CURVE SMOOTH",
"752 607 OFFCURVE",
"632 782 OFFCURVE",
"405 782 CURVE SMOOTH",
"178 782 OFFCURVE",
"45 617 OFFCURVE",
"45 375 CURVE SMOOTH",
"45 173 OFFCURVE",
"97 70 OFFCURVE",
"198 45 CURVE",
"178 10 OFFCURVE",
"168 -26 OFFCURVE",
"168 -64 CURVE SMOOTH",
"168 -113 OFFCURVE",
"178 -152 OFFCURVE",
"198 -182 CURVE"
);
},
{
closed = 1;
nodes = (
"144 123 OFFCURVE",
"124 224 OFFCURVE",
"124 364 CURVE",
"359 364 LINE",
"359 281 LINE SMOOTH",
"359 189 OFFCURVE",
"320 123 OFFCURVE",
"248 123 CURVE SMOOTH"
);
},
{
closed = 1;
nodes = (
"471 123 OFFCURVE",
"438 177 OFFCURVE",
"438 286 CURVE SMOOTH",
"438 364 LINE",
"673 364 LINE",
"668 188 OFFCURVE",
"638 123 OFFCURVE",
"538 123 CURVE SMOOTH"
);
},
{
closed = 1;
nodes = (
"145 605 OFFCURVE",
"236 699 OFFCURVE",
"405 699 CURVE SMOOTH",
"556 699 OFFCURVE",
"647 596 OFFCURVE",
"668 444 CURVE",
"127 444 LINE"
);
}
);
width = 797;
}
);
},
{
glyphname = u183B_1820.ini;
lastChange = "2019-09-24 14:05:55 +0000";
layers = (
{
layerId = UUID0;
paths = (
{
closed = 1;
nodes = (
"245 85 LINE",
"183 174 OFFCURVE",
"136 262 OFFCURVE",
"126 364 CURVE",
"285 364 LINE",
"285 444 LINE",
"124 444 LINE",
"130 579 OFFCURVE",
"188 644 OFFCURVE",
"274 644 CURVE SMOOTH",
"394 644 OFFCURVE",
"418 530 OFFCURVE",
"430 360 CURVE SMOOTH",
"449 96 LINE",
"515 96 LINE",
"534 364 LINE",
"744 364 LINE",
"744 444 LINE",
"503 444 LINE",
"482 614 OFFCURVE",
"424 727 OFFCURVE",
"274 727 CURVE SMOOTH",
"137 727 OFFCURVE",
"45 608 OFFCURVE",
"45 417 CURVE SMOOTH",
"45 299 OFFCURVE",
"88 174 OFFCURVE",
"174 42 CURVE"
);
}
);
width = 714;
}
);
},
{
glyphname = u1835.med;
lastChange = "2019-09-24 14:05:55 +0000";
layers = (
{
layerId = UUID0;
paths = (
{
closed = 1;
nodes = (
"43 44 OFFCURVE",
"89 77 OFFCURVE",
"137 103 CURVE SMOOTH",
"245 161 LINE SMOOTH",
"318 200 OFFCURVE",
"351 262 OFFCURVE",
"351 364 CURVE",
"560 364 LINE",
"560 444 LINE",
"0 444 LINE",
"0 364 LINE",
"274 364 LINE",
"274 293 OFFCURVE",
"255 254 OFFCURVE",
"196 222 CURVE SMOOTH",
"114 178 LINE SMOOTH",
"59 149 OFFCURVE",
"22 122 OFFCURVE",
"0 100 CURVE",
"0 5 LINE"
);
}
);
width = 530;
}
);
},
{
glyphname = u182C_1825.ini;
lastChange = "2019-09-24 14:05:55 +0000";
layers = (
{
layerId = UUID0;
paths = (
{
closed = 1;
nodes = (
"1065 -31 LINE",
"992 100 OFFCURVE",
"936 231 OFFCURVE",
"898 364 CURVE",
"1210 364 LINE",
"1210 444 LINE",
"693 444 LINE",
"658 649 OFFCURVE",
"545 760 OFFCURVE",
"365 760 CURVE SMOOTH",
"170 760 OFFCURVE",
"45 616 OFFCURVE",
"45 408 CURVE SMOOTH",
"45 290 OFFCURVE",
"86 152 OFFCURVE",
"146 42 CURVE",
"219 73 LINE",
"152 198 OFFCURVE",
"124 313 OFFCURVE",
"124 405 CURVE SMOOTH",
"124 567 OFFCURVE",
"211 677 OFFCURVE",
"365 677 CURVE SMOOTH",
"503 677 OFFCURVE",
"586 599 OFFCURVE",
"614 444 CURVE",
"347 444 LINE",
"323 397 OFFCURVE",
"309 330 OFFCURVE",
"309 275 CURVE SMOOTH",
"309 132 OFFCURVE",
"376 40 OFFCURVE",
"509 40 CURVE SMOOTH",
"619 40 OFFCURVE",
"704 141 OFFCURVE",
"704 298 CURVE SMOOTH",
"704 319 OFFCURVE",
"704 344 OFFCURVE",
"702 364 CURVE",
"819 364 LINE",
"857 220 OFFCURVE",
"915 77 OFFCURVE",
"992 -67 CURVE"
);
},
{
closed = 1;
nodes = (
"426 123 OFFCURVE",
"388 174 OFFCURVE",
"388 275 CURVE SMOOTH",
"388 311 OFFCURVE",
"394 341 OFFCURVE",
"404 364 CURVE",
"623 364 LINE",
"625 344 OFFCURVE",
"625 324 OFFCURVE",
"625 303 CURVE SMOOTH",
"625 204 OFFCURVE",
"586 123 OFFCURVE",
"502 123 CURVE SMOOTH"
);
}
);
width = 1180;
}
);
},
{
export = 0;
glyphname = u182C.iniFem;
lastChange = "2019-09-24 14:05:55 +0000";
layers = (
{
layerId = UUID0;
paths = (
{
closed = 1;
nodes = (
"245 85 LINE",
"167 194 OFFCURVE",
"124 285 OFFCURVE",
"124 407 CURVE SMOOTH",
"124 567 OFFCURVE",
"181 644 OFFCURVE",
"273 644 CURVE SMOOTH",
"393 644 OFFCURVE",
"417 530 OFFCURVE",
"428 364 CURVE",
"502 364 LINE",
"492 610 OFFCURVE",
"421 727 OFFCURVE",
"273 727 CURVE SMOOTH",
"132 727 OFFCURVE",
"45 601 OFFCURVE",
"45 407 CURVE SMOOTH",
"45 292 OFFCURVE",
"88 170 OFFCURVE",
"174 42 CURVE"
);
}
);
width = 428;
}
);
},
{
glyphname = u182B_1823;
lastChange = "2019-09-24 14:05:55 +0000";
layers = (
{
layerId = UUID0;
paths = (
{
closed = 1;
nodes = (
"650 40 OFFCURVE",
"719 148 OFFCURVE",
"719 375 CURVE SMOOTH",
"719 618 OFFCURVE",
"588 782 OFFCURVE",
"372 782 CURVE SMOOTH",
"174 782 OFFCURVE",
"45 637 OFFCURVE",
"45 409 CURVE SMOOTH",
"45 364 LINE",
"326 364 LINE",
"326 275 LINE SMOOTH",
"326 195 OFFCURVE",
"284 153 OFFCURVE",
"225 153 CURVE SMOOTH",
"162 153 OFFCURVE",
"104 150 OFFCURVE",
"62 122 CURVE",
"62 42 LINE",
"109 68 OFFCURVE",
"159 73 OFFCURVE",
"225 73 CURVE SMOOTH",
"282 73 OFFCURVE",
"328 94 OFFCURVE",
"363 136 CURVE",
"388 72 OFFCURVE",
"436 40 OFFCURVE",
"505 40 CURVE SMOOTH"
);
},
{
closed = 1;
nodes = (
"438 123 OFFCURVE",
"405 177 OFFCURVE",
"405 286 CURVE SMOOTH",
"405 364 LINE",
"640 364 LINE",
"638 219 OFFCURVE",
"618 123 OFFCURVE",
"505 123 CURVE SMOOTH"
);
},
{
closed = 1;
nodes = (
"127 595 OFFCURVE",
"224 699 OFFCURVE",
"372 699 CURVE SMOOTH",
"522 699 OFFCURVE",
"614 596 OFFCURVE",
"635 444 CURVE",
"124 444 LINE"
);
}
);
width = 764;
}
);
},
{
glyphname = u182B_1823.ini;
lastChange = "2019-09-24 14:05:55 +0000";
layers = (
{
layerId = UUID0;
paths = (
{
closed = 1;
nodes = (
"647 40 OFFCURVE",
"716 144 OFFCURVE",
"719 364 CURVE",
"930 364 LINE",
"930 444 LINE",
"715 444 LINE",
"693 652 OFFCURVE",
"564 782 OFFCURVE",
"372 782 CURVE SMOOTH",
"178 782 OFFCURVE",
"45 637 OFFCURVE",
"45 409 CURVE SMOOTH",
"45 364 LINE",
"326 364 LINE",
"326 275 LINE SMOOTH",
"326 195 OFFCURVE",
"284 153 OFFCURVE",
"225 153 CURVE SMOOTH",
"162 153 OFFCURVE",
"104 150 OFFCURVE",
"62 122 CURVE",
"62 42 LINE",
"109 68 OFFCURVE",
"159 73 OFFCURVE",
"225 73 CURVE SMOOTH",
"282 73 OFFCURVE",
"328 94 OFFCURVE",
"363 136 CURVE",
"388 72 OFFCURVE",
"436 40 OFFCURVE",
"505 40 CURVE SMOOTH"
);
},
{
closed = 1;
nodes = (
"438 123 OFFCURVE",
"405 177 OFFCURVE",
"405 286 CURVE SMOOTH",
"405 364 LINE",
"640 364 LINE",
"636 220 OFFCURVE",
"619 123 OFFCURVE",
"505 123 CURVE SMOOTH"
);
},
{
closed = 1;
nodes = (
"127 595 OFFCURVE",
"224 699 OFFCURVE",
"372 699 CURVE SMOOTH",
"522 699 OFFCURVE",
"614 596 OFFCURVE",
"635 444 CURVE",
"124 444 LINE"
);
}
);
width = 900;
}
);
},
{
glyphname = u182B_1825.ini;
lastChange = "2019-09-24 14:05:55 +0000";
layers = (
{
layerId = UUID0;
paths = (
{
closed = 1;
nodes = (
"1076 -31 LINE",
"1003 100 OFFCURVE",
"947 231 OFFCURVE",
"909 364 CURVE",
"1221 364 LINE",
"1221 444 LINE",
"715 444 LINE",
"693 652 OFFCURVE",
"566 782 OFFCURVE",
"371 782 CURVE SMOOTH",
"175 782 OFFCURVE",
"45 638 OFFCURVE",
"45 410 CURVE SMOOTH",
"45 364 LINE",
"326 364 LINE",
"326 275 LINE SMOOTH",
"326 195 OFFCURVE",
"284 153 OFFCURVE",
"225 153 CURVE SMOOTH",
"162 153 OFFCURVE",
"104 150 OFFCURVE",
"62 122 CURVE",
"62 42 LINE",
"109 68 OFFCURVE",
"159 73 OFFCURVE",
"225 73 CURVE SMOOTH",
"282 73 OFFCURVE",
"328 94 OFFCURVE",
"363 136 CURVE",
"388 72 OFFCURVE",
"436 40 OFFCURVE",
"505 40 CURVE SMOOTH",
"647 40 OFFCURVE",
"716 144 OFFCURVE",
"719 364 CURVE",
"830 364 LINE",
"868 221 OFFCURVE",
"925 78 OFFCURVE",
"1003 -67 CURVE"
);
},
{
closed = 1;
nodes = (
"438 123 OFFCURVE",
"405 177 OFFCURVE",
"405 286 CURVE SMOOTH",
"405 364 LINE",
"640 364 LINE",
"638 219 OFFCURVE",
"618 123 OFFCURVE",
"505 123 CURVE SMOOTH"
);
},
{
closed = 1;
nodes = (
"127 595 OFFCURVE",
"223 699 OFFCURVE",
"372 699 CURVE SMOOTH",
"522 699 OFFCURVE",
"614 596 OFFCURVE",
"635 444 CURVE",
"124 444 LINE"
);
}
);
width = 1191;
}
);
},
{
glyphname = u182B_1822.ini;
lastChange = "2019-09-24 14:05:55 +0000";
layers = (
{
layerId = UUID0;
paths = (
{
closed = 1;
nodes = (
"780 -31 LINE",
"708 99 OFFCURVE",
"646 234 OFFCURVE",
"620 364 CURVE",
"925 364 LINE",
"925 444 LINE",
"605 444 LINE",
"571 646 OFFCURVE",
"496 782 OFFCURVE",
"319 782 CURVE SMOOTH",
"132 782 OFFCURVE",
"45 621 OFFCURVE",
"45 408 CURVE SMOOTH",
"45 364 LINE",
"329 364 LINE",
"335 344 OFFCURVE",
"339 314 OFFCURVE",
"339 275 CURVE SMOOTH",
"339 201 OFFCURVE",
"298 153 OFFCURVE",
"231 153 CURVE SMOOTH",
"166 153 OFFCURVE",
"104 150 OFFCURVE",
"62 122 CURVE",
"62 42 LINE",
"109 68 OFFCURVE",
"162 73 OFFCURVE",
"231 73 CURVE SMOOTH",
"346 73 OFFCURVE",
"418 158 OFFCURVE",
"418 275 CURVE SMOOTH",
"418 332 OFFCURVE",
"411 388 OFFCURVE",
"397 444 CURVE",
"124 444 LINE",
"126 585 OFFCURVE",
"189 699 OFFCURVE",
"319 699 CURVE SMOOTH",
"435 699 OFFCURVE",
"499 602 OFFCURVE",
"530 418 CURVE SMOOTH",
"561 231 OFFCURVE",
"609 122 OFFCURVE",
"707 -67 CURVE"
);
}
);
width = 895;
}
);
},
{
glyphname = u182C_1827.ini;
lastChange = "2019-09-24 14:05:55 +0000";
layers = (
{
layerId = UUID0;
paths = (
{
closed = 1;
nodes = (
"774 -119 OFFCURVE",
"805 -106 OFFCURVE",
"819 -85 CURVE",
"819 6 LINE",
"801 -22 OFFCURVE",
"773 -36 OFFCURVE",
"737 -36 CURVE SMOOTH",
"678 -36 OFFCURVE",
"637 33 OFFCURVE",
"599 117 CURVE SMOOTH",
"566 190 OFFCURVE",
"542 271 OFFCURVE",
"530 364 CURVE",
"915 364 LINE",
"915 444 LINE",
"521 444 LINE",
"499 627 OFFCURVE",
"443 760 OFFCURVE",
"287 760 CURVE SMOOTH",
"126 760 OFFCURVE",
"45 606 OFFCURVE",
"45 417 CURVE SMOOTH",
"45 299 OFFCURVE",
"88 174 OFFCURVE",
"174 42 CURVE",
"245 85 LINE",
"169 197 OFFCURVE",
"124 291 OFFCURVE",
"124 417 CURVE SMOOTH",
"124 557 OFFCURVE",
"170 677 OFFCURVE",
"287 677 CURVE SMOOTH",
"398 677 OFFCURVE",
"428 570 OFFCURVE",
"445 418 CURVE SMOOTH",
"460 280 OFFCURVE",
"493 154 OFFCURVE",
"547 41 CURVE SMOOTH",
"594 -58 OFFCURVE",
"644 -119 OFFCURVE",
"737 -119 CURVE SMOOTH"
);
}
);
width = 885;
}
);
},
{
glyphname = u182B_1827.ini;
lastChange = "2019-09-24 14:05:55 +0000";
layers = (
{
layerId = UUID0;
paths = (
{
closed = 1;
nodes = (
"873 -119 OFFCURVE",
"904 -106 OFFCURVE",
"918 -85 CURVE",
"918 6 LINE",
"899 -22 OFFCURVE",
"872 -36 OFFCURVE",
"836 -36 CURVE SMOOTH",
"787 -36 OFFCURVE",
"747 13 OFFCURVE",
"703 106 CURVE SMOOTH",
"659 199 OFFCURVE",
"633 287 OFFCURVE",
"619 364 CURVE",
"1014 364 LINE",
"1014 444 LINE",
"604 444 LINE",
"567 645 OFFCURVE",
"496 782 OFFCURVE",
"319 782 CURVE SMOOTH",
"132 782 OFFCURVE",
"45 621 OFFCURVE",
"45 408 CURVE SMOOTH",
"45 364 LINE",
"329 364 LINE",
"335 344 OFFCURVE",
"339 314 OFFCURVE",
"339 275 CURVE SMOOTH",
"339 201 OFFCURVE",
"298 153 OFFCURVE",
"231 153 CURVE SMOOTH",
"166 153 OFFCURVE",
"104 150 OFFCURVE",
"62 122 CURVE",
"62 42 LINE",
"109 68 OFFCURVE",
"162 73 OFFCURVE",
"231 73 CURVE SMOOTH",
"346 73 OFFCURVE",
"418 158 OFFCURVE",
"418 275 CURVE SMOOTH",
"418 332 OFFCURVE",
"411 388 OFFCURVE",
"397 444 CURVE",
"124 444 LINE",
"126 585 OFFCURVE",
"189 699 OFFCURVE",
"319 699 CURVE SMOOTH",
"453 699 OFFCURVE",
"502 585 OFFCURVE",
"530 418 CURVE SMOOTH",
"553 279 OFFCURVE",
"592 153 OFFCURVE",
"645 41 CURVE SMOOTH",
"691 -56 OFFCURVE",
"743 -119 OFFCURVE",
"836 -119 CURVE SMOOTH"
);
}
);
width = 984;
}
);
},
{
glyphname = u182A_1827.ini;
lastChange = "2019-09-24 14:05:55 +0000";
layers = (
{
layerId = UUID0;
paths = (
{
closed = 1;
nodes = (
"896 -119 OFFCURVE",
"926 -106 OFFCURVE",
"940 -85 CURVE",
"940 6 LINE",
"921 -22 OFFCURVE",
"891 -36 OFFCURVE",
"855 -36 CURVE SMOOTH",
"761 -36 OFFCURVE",
"668 218 OFFCURVE",
"641 364 CURVE",
"1036 364 LINE",
"1036 444 LINE",
"626 444 LINE",
"590 648 OFFCURVE",
"512 782 OFFCURVE",
"330 782 CURVE SMOOTH",
"138 782 OFFCURVE",
"45 624 OFFCURVE",
"45 408 CURVE SMOOTH",
"45 161 OFFCURVE",
"119 40 OFFCURVE",
"271 40 CURVE SMOOTH",
"378 40 OFFCURVE",
"451 138 OFFCURVE",
"451 275 CURVE SMOOTH",
"451 312 OFFCURVE",
"440 410 OFFCURVE",
"428 444 CURVE",
"124 444 LINE",
"126 588 OFFCURVE",
"194 699 OFFCURVE",
"330 699 CURVE SMOOTH",
"469 699 OFFCURVE",
"523 589 OFFCURVE",
"552 418 CURVE SMOOTH",
"576 279 OFFCURVE",
"614 153 OFFCURVE",
"667 41 CURVE SMOOTH",
"713 -56 OFFCURVE",
"765 -119 OFFCURVE",
"858 -119 CURVE SMOOTH"
);
},
{
closed = 1;
nodes = (
"173 123 OFFCURVE",
"126 203 OFFCURVE",
"124 364 CURVE",
"362 364 LINE",
"369 345 OFFCURVE",
"372 315 OFFCURVE",
"372 275 CURVE SMOOTH",
"372 190 OFFCURVE",
"337 123 OFFCURVE",
"264 123 CURVE SMOOTH"
);
}
);
width = 1006;
}
);
},
{
glyphname = u1802;
lastChange = "2019-09-24 14:05:55 +0000";
layers = (
{
layerId = UUID0;
paths = (
{
closed = 1;
nodes = (
"356 339 OFFCURVE",
"384 359 OFFCURVE",
"384 407 CURVE SMOOTH",
"384 456 OFFCURVE",
"356 474 OFFCURVE",
"321 474 CURVE SMOOTH",
"286 474 OFFCURVE",
"260 456 OFFCURVE",
"260 407 CURVE SMOOTH",
"260 359 OFFCURVE",
"286 339 OFFCURVE",
"321 339 CURVE SMOOTH"
);
}
);
width = 384;
}
);
unicode = 1802;
},
{
glyphname = u1839_1820.ini;
lastChange = "2019-09-24 14:05:55 +0000";
layers = (
{
layerId = UUID0;
paths = (
{
closed = 1;
nodes = (
"289 -182 LINE",
"264 -148 OFFCURVE",
"251 -108 OFFCURVE",
"251 -63 CURVE SMOOTH",
"251 -25 OFFCURVE",
"258 9 OFFCURVE",
"271 40 CURVE",
"280 40 LINE SMOOTH",
"363 40 OFFCURVE",
"451 125 OFFCURVE",
"451 272 CURVE SMOOTH",
"451 309 OFFCURVE",
"440 410 OFFCURVE",
"428 444 CURVE",
"124 444 LINE",
"126 592 OFFCURVE",
"204 699 OFFCURVE",
"352 699 CURVE SMOOTH",
"493 699 OFFCURVE",
"563 586 OFFCURVE",
"579 364 CURVE SMOOTH",
"598 96 LINE",
"664 96 LINE",
"683 364 LINE",
"893 364 LINE",
"893 444 LINE",
"652 444 LINE",
"625 637 OFFCURVE",
"535 782 OFFCURVE",
"352 782 CURVE SMOOTH",
"150 782 OFFCURVE",
"45 630 OFFCURVE",
"45 408 CURVE SMOOTH",
"45 202 OFFCURVE",
"96 83 OFFCURVE",
"201 50 CURVE",
"180 14 OFFCURVE",
"169 -24 OFFCURVE",
"169 -64 CURVE SMOOTH",
"169 -113 OFFCURVE",
"179 -152 OFFCURVE",
"199 -182 CURVE"
);
},
{
closed = 1;
nodes = (
"173 123 OFFCURVE",
"126 203 OFFCURVE",
"124 364 CURVE",
"362 364 LINE",
"369 345 OFFCURVE",
"372 314 OFFCURVE",
"372 274 CURVE SMOOTH",
"372 189 OFFCURVE",
"336 123 OFFCURVE",
"264 123 CURVE SMOOTH"
);
}
);
width = 863;
}
);
},
{
glyphname = u1839_1822.ini;
lastChange = "2019-09-24 14:05:55 +0000";
layers = (
{
layerId = UUID0;
paths = (
{
closed = 1;
nodes = (
"289 -182 LINE",
"264 -148 OFFCURVE",
"251 -108 OFFCURVE",
"251 -63 CURVE SMOOTH",
"251 -25 OFFCURVE",
"258 9 OFFCURVE",
"271 40 CURVE",
"276 40 LINE SMOOTH",
"375 40 OFFCURVE",
"451 137 OFFCURVE",
"451 274 CURVE SMOOTH",
"451 311 OFFCURVE",
"440 410 OFFCURVE",
"428 444 CURVE",
"124 444 LINE",
"126 588 OFFCURVE",
"194 699 OFFCURVE",
"330 699 CURVE SMOOTH",
"469 699 OFFCURVE",
"523 589 OFFCURVE",
"552 418 CURVE SMOOTH",
"584 231 OFFCURVE",
"631 122 OFFCURVE",
"729 -67 CURVE",
"802 -31 LINE",
"722 113 OFFCURVE",
"668 238 OFFCURVE",
"642 364 CURVE",
"947 364 LINE",
"947 444 LINE",
"627 444 LINE",
"589 650 OFFCURVE",
"514 782 OFFCURVE",
"330 782 CURVE SMOOTH",
"138 782 OFFCURVE",
"45 624 OFFCURVE",
"45 408 CURVE SMOOTH",
"45 202 OFFCURVE",
"96 83 OFFCURVE",
"201 50 CURVE",
"180 14 OFFCURVE",
"169 -24 OFFCURVE",
"169 -64 CURVE SMOOTH",
"169 -113 OFFCURVE",
"179 -152 OFFCURVE",
"199 -182 CURVE"
);
},
{
closed = 1;
nodes = (
"173 123 OFFCURVE",
"126 203 OFFCURVE",
"124 364 CURVE",
"362 364 LINE",
"369 345 OFFCURVE",
"372 315 OFFCURVE",
"372 275 CURVE SMOOTH",
"372 190 OFFCURVE",
"337 123 OFFCURVE",
"264 123 CURVE SMOOTH"
);
}
);
width = 917;
}
);
},
{
glyphname = u183A;
lastChange = "2019-09-24 14:05:55 +0000";
layers = (
{
layerId = UUID0;
paths = (
{
closed = 1;
nodes = (
"306 90 LINE",
"181 225 OFFCURVE",
"124 329 OFFCURVE",
"124 419 CURVE SMOOTH",
"124 546 OFFCURVE",
"166 644 OFFCURVE",
"274 644 CURVE SMOOTH",
"363 644 OFFCURVE",
"415 573 OFFCURVE",
"427 409 CURVE",
"506 419 LINE",
"494 590 OFFCURVE",
"426 727 OFFCURVE",
"274 727 CURVE SMOOTH",
"121 727 OFFCURVE",
"45 594 OFFCURVE",
"45 419 CURVE SMOOTH",
"45 96 LINE",
"111 96 LINE",
"119 215 LINE",
"146 157 OFFCURVE",
"188 97 OFFCURVE",
"244 35 CURVE"
);
}
);
width = 551;
}
);
unicode = 183A;
},
{
glyphname = u183A.ini;
lastChange = "2019-09-24 14:05:55 +0000";
layers = (
{
layerId = UUID0;
paths = (
{
closed = 1;
nodes = (
"306 90 LINE",
"181 225 OFFCURVE",
"124 329 OFFCURVE",
"124 419 CURVE SMOOTH",
"124 546 OFFCURVE",
"166 644 OFFCURVE",
"274 644 CURVE SMOOTH",
"394 644 OFFCURVE",
"418 530 OFFCURVE",
"429 364 CURVE",
"503 364 LINE",
"493 610 OFFCURVE",
"422 727 OFFCURVE",
"274 727 CURVE SMOOTH",
"121 727 OFFCURVE",
"45 594 OFFCURVE",
"45 419 CURVE SMOOTH",
"45 96 LINE",
"111 96 LINE",
"119 215 LINE",
"146 157 OFFCURVE",
"188 97 OFFCURVE",
"244 35 CURVE"
);
}
);
width = 429;
}
);
},
{
glyphname = u1836;
lastChange = "2019-09-24 14:05:55 +0000";
layers = (
{
layerId = UUID0;
paths = (
{
closed = 1;
nodes = (
"154 -95 OFFCURVE",
"258 -27 OFFCURVE",
"293 -7 CURVE",
"239 94 OFFCURVE",
"165 262 OFFCURVE",
"138 364 CURVE",
"451 364 LINE",
"451 444 LINE",
"45 444 LINE",
"67 310 OFFCURVE",
"123 152 OFFCURVE",
"186 25 CURVE",
"151 -4 OFFCURVE",
"119 -36 OFFCURVE",
"87 -70 CURVE",
"125 -119 LINE"
);
}
);
width = 496;
}
);
unicode = 1836;
},
{
glyphname = u1836.med;
lastChange = "2019-09-24 14:05:55 +0000";
layers = (
{
layerId = UUID0;
paths = (
{
closed = 1;
nodes = (
"94 -95 OFFCURVE",
"198 -27 OFFCURVE",
"233 -7 CURVE",
"179 94 OFFCURVE",
"105 262 OFFCURVE",
"78 364 CURVE",
"391 364 LINE",
"391 444 LINE",
"0 444 LINE",
"0 364 LINE",
"29 252 OFFCURVE",
"71 139 OFFCURVE",
"126 25 CURVE",
"91 -4 OFFCURVE",
"59 -36 OFFCURVE",
"27 -70 CURVE",
"65 -119 LINE"
);
}
);
width = 361;
}
);
},
{
glyphname = u1842;
lastChange = "2019-09-24 14:05:55 +0000";
layers = (
{
layerId = UUID0;
paths = (
{
closed = 1;
nodes = (
"369 40 OFFCURVE",
"440 123 OFFCURVE",
"440 249 CURVE SMOOTH",
"440 294 OFFCURVE",
"433 333 OFFCURVE",
"420 364 CURVE",
"549 364 LINE",
"536 331 OFFCURVE",
"529 293 OFFCURVE",
"529 249 CURVE SMOOTH",
"529 116 OFFCURVE",
"598 40 OFFCURVE",
"726 40 CURVE SMOOTH",
"852 40 OFFCURVE",
"924 122 OFFCURVE",
"924 249 CURVE SMOOTH",
"924 294 OFFCURVE",
"917 333 OFFCURVE",
"902 364 CURVE",
"1132 364 LINE",
"1132 444 LINE",
"90 444 LINE",
"59 392 OFFCURVE",
"45 336 OFFCURVE",
"45 260 CURVE SMOOTH",
"45 123 OFFCURVE",
"111 40 OFFCURVE",
"242 40 CURVE SMOOTH"
);
},
{
closed = 1;
nodes = (
"164 123 OFFCURVE",
"124 169 OFFCURVE",
"124 262 CURVE SMOOTH",
"124 303 OFFCURVE",
"131 336 OFFCURVE",
"144 364 CURVE",
"341 364 LINE",
"354 333 OFFCURVE",
"361 295 OFFCURVE",
"361 251 CURVE SMOOTH",
"361 166 OFFCURVE",
"315 123 OFFCURVE",
"242 123 CURVE SMOOTH"
);
},
{
closed = 1;
nodes = (
"647 123 OFFCURVE",
"608 166 OFFCURVE",
"608 251 CURVE SMOOTH",
"608 294 OFFCURVE",
"615 332 OFFCURVE",
"628 364 CURVE",
"825 364 LINE",
"838 332 OFFCURVE",
"845 294 OFFCURVE",
"845 251 CURVE SMOOTH",
"845 166 OFFCURVE",
"799 123 OFFCURVE",
"726 123 CURVE SMOOTH"
);
}
);
width = 1177;
}
);
unicode = 1842;
},
{
glyphname = u1842.fin;
lastChange = "2019-09-24 14:05:55 +0000";
layers = (
{
layerId = UUID0;
paths = (
{
closed = 1;
nodes = (
"324 40 OFFCURVE",
"395 123 OFFCURVE",
"395 249 CURVE SMOOTH",
"395 293 OFFCURVE",
"388 331 OFFCURVE",
"373 364 CURVE",
"504 364 LINE",
"491 331 OFFCURVE",
"484 293 OFFCURVE",
"484 249 CURVE SMOOTH",
"484 116 OFFCURVE",
"553 40 OFFCURVE",
"681 40 CURVE SMOOTH",
"807 40 OFFCURVE",
"879 122 OFFCURVE",
"879 249 CURVE SMOOTH",
"879 294 OFFCURVE",
"872 333 OFFCURVE",
"857 364 CURVE",
"987 364 LINE",
"987 444 LINE",
"0 444 LINE",
"0 364 LINE",
"20 364 LINE",
"7 333 OFFCURVE",
"0 294 OFFCURVE",
"0 249 CURVE SMOOTH",
"0 116 OFFCURVE",
"69 40 OFFCURVE",
"197 40 CURVE SMOOTH"
);
},
{
closed = 1;
nodes = (
"118 123 OFFCURVE",
"79 166 OFFCURVE",
"79 251 CURVE SMOOTH",
"79 295 OFFCURVE",
"86 333 OFFCURVE",
"99 364 CURVE",
"296 364 LINE",
"309 333 OFFCURVE",
"316 295 OFFCURVE",
"316 251 CURVE SMOOTH",
"316 166 OFFCURVE",
"271 123 OFFCURVE",
"197 123 CURVE SMOOTH"
);
},
{
closed = 1;
nodes = (
"603 123 OFFCURVE",
"563 166 OFFCURVE",
"563 251 CURVE SMOOTH",
"563 295 OFFCURVE",
"570 333 OFFCURVE",
"583 364 CURVE",
"780 364 LINE",
"793 333 OFFCURVE",
"800 295 OFFCURVE",
"800 251 CURVE SMOOTH",
"800 166 OFFCURVE",
"754 123 OFFCURVE",
"681 123 CURVE SMOOTH"
);
}
);
width = 1032;
}
);
},
{
glyphname = u1842.med;
lastChange = "2019-09-24 14:05:55 +0000";
layers = (
{
layerId = UUID0;
paths = (
{
closed = 1;
nodes = (
"324 40 OFFCURVE",
"395 123 OFFCURVE",
"395 249 CURVE SMOOTH",
"395 293 OFFCURVE",
"388 331 OFFCURVE",
"373 364 CURVE",
"504 364 LINE",
"491 331 OFFCURVE",
"484 293 OFFCURVE",
"484 249 CURVE SMOOTH",
"484 116 OFFCURVE",
"553 40 OFFCURVE",
"681 40 CURVE SMOOTH",
"807 40 OFFCURVE",
"879 122 OFFCURVE",
"879 249 CURVE SMOOTH",
"879 294 OFFCURVE",
"872 333 OFFCURVE",
"857 364 CURVE",
"1087 364 LINE",
"1087 444 LINE",
"0 444 LINE",
"0 364 LINE",
"20 364 LINE",
"7 333 OFFCURVE",
"0 294 OFFCURVE",
"0 249 CURVE SMOOTH",
"0 116 OFFCURVE",
"69 40 OFFCURVE",
"197 40 CURVE SMOOTH"
);
},
{
closed = 1;
nodes = (
"118 123 OFFCURVE",
"79 166 OFFCURVE",
"79 251 CURVE SMOOTH",
"79 295 OFFCURVE",
"86 333 OFFCURVE",
"99 364 CURVE",
"296 364 LINE",
"309 333 OFFCURVE",
"316 295 OFFCURVE",
"316 251 CURVE SMOOTH",
"316 166 OFFCURVE",
"271 123 OFFCURVE",
"197 123 CURVE SMOOTH"
);
},
{
closed = 1;
nodes = (
"603 123 OFFCURVE",
"563 166 OFFCURVE",
"563 251 CURVE SMOOTH",
"563 295 OFFCURVE",
"570 333 OFFCURVE",
"583 364 CURVE",
"780 364 LINE",
"793 333 OFFCURVE",
"800 295 OFFCURVE",
"800 251 CURVE SMOOTH",
"800 166 OFFCURVE",
"754 123 OFFCURVE",
"681 123 CURVE SMOOTH"
);
}
);
width = 1057;
}
);
},
{
glyphname = u1841.fin;
lastChange = "2019-09-24 14:05:55 +0000";
layers = (
{
layerId = UUID0;
paths = (
{
closed = 1;
nodes = (
"409 -57 LINE",
"334 82 OFFCURVE",
"297 215 OFFCURVE",
"295 364 CURVE",
"451 364 LINE",
"451 444 LINE",
"219 444 LINE",
"219 366 LINE SMOOTH",
"219 220 OFFCURVE",
"247 93 OFFCURVE",
"303 -17 CURVE",
"179 -72 LINE",
"104 70 OFFCURVE",
"75 200 OFFCURVE",
"75 364 CURVE SMOOTH",
"75 444 LINE",
"0 444 LINE",
"0 364 LINE SMOOTH",
"0 166 OFFCURVE",
"45 -6 OFFCURVE",
"140 -182 CURVE"
);
}
);
width = 496;
}
);
},
{
glyphname = u182A.fin;
lastChange = "2019-09-24 14:05:55 +0000";
layers = (
{
layerId = UUID0;
paths = (
{
closed = 1;
nodes = (
"479 -264 LINE",
"465 -238 OFFCURVE",
"458 -213 OFFCURVE",
"458 -187 CURVE SMOOTH",
"458 -119 OFFCURVE",
"482 -79 OFFCURVE",
"536 -7 CURVE SMOOTH",
"638 130 OFFCURVE",
"702 243 OFFCURVE",
"702 388 CURVE SMOOTH",
"702 632 OFFCURVE",
"569 782 OFFCURVE",
"344 782 CURVE SMOOTH",
"123 782 OFFCURVE",
"-1 640 OFFCURVE",
"-1 408 CURVE SMOOTH",
"-1 164 OFFCURVE",
"71 40 OFFCURVE",
"225 40 CURVE SMOOTH",
"328 40 OFFCURVE",
"405 136 OFFCURVE",
"405 275 CURVE SMOOTH",
"405 316 OFFCURVE",
"395 403 OFFCURVE",
"382 444 CURVE",
"78 444 LINE",
"82 606 OFFCURVE",
"182 699 OFFCURVE",
"344 699 CURVE SMOOTH",
"523 699 OFFCURVE",
"623 583 OFFCURVE",
"623 388 CURVE SMOOTH",
"623 260 OFFCURVE",
"577 173 OFFCURVE",
"484 50 CURVE SMOOTH",
"419 -35 OFFCURVE",
"378 -102 OFFCURVE",
"378 -187 CURVE SMOOTH",
"378 -214 OFFCURVE",
"384 -239 OFFCURVE",
"397 -264 CURVE"
);
},
{
closed = 1;
nodes = (
"127 123 OFFCURVE",
"81 203 OFFCURVE",
"78 364 CURVE",
"316 364 LINE",
"323 343 OFFCURVE",
"326 313 OFFCURVE",
"326 275 CURVE SMOOTH",
"326 190 OFFCURVE",
"291 123 OFFCURVE",
"218 123 CURVE SMOOTH"
);
}
);
width = 747;
}
);
},
{
glyphname = u182B.fin;
lastChange = "2019-09-24 14:05:55 +0000";
layers = (
{
layerId = UUID0;
paths = (
{
closed = 1;
nodes = (
"447 -264 LINE",
"433 -238 OFFCURVE",
"426 -213 OFFCURVE",
"426 -187 CURVE SMOOTH",
"426 -120 OFFCURVE",
"450 -79 OFFCURVE",
"504 -7 CURVE SMOOTH",
"605 128 OFFCURVE",
"670 244 OFFCURVE",
"670 388 CURVE SMOOTH",
"670 631 OFFCURVE",
"544 782 OFFCURVE",
"321 782 CURVE SMOOTH",
"122 782 OFFCURVE",
"0 638 OFFCURVE",
"0 408 CURVE SMOOTH",
"0 364 LINE",
"284 364 LINE",
"291 344 OFFCURVE",
"294 314 OFFCURVE",
"294 275 CURVE SMOOTH",
"294 201 OFFCURVE",
"253 153 OFFCURVE",
"186 153 CURVE SMOOTH",
"121 153 OFFCURVE",
"60 150 OFFCURVE",
"16 122 CURVE",
"16 42 LINE",
"63 67 OFFCURVE",
"116 73 OFFCURVE",
"186 73 CURVE SMOOTH",
"301 73 OFFCURVE",
"373 158 OFFCURVE",
"373 275 CURVE SMOOTH",
"373 332 OFFCURVE",
"366 388 OFFCURVE",
"352 444 CURVE",
"79 444 LINE",
"83 595 OFFCURVE",
"167 699 OFFCURVE",
"322 699 CURVE SMOOTH",
"503 699 OFFCURVE",
"591 576 OFFCURVE",
"591 388 CURVE SMOOTH",
"591 258 OFFCURVE",
"546 176 OFFCURVE",
"452 50 CURVE SMOOTH",
"386 -38 OFFCURVE",
"346 -100 OFFCURVE",
"346 -187 CURVE SMOOTH",
"346 -217 OFFCURVE",
"353 -243 OFFCURVE",
"365 -264 CURVE"
);
}
);
width = 715;
}
);
},
{
glyphname = u183A.fin;
lastChange = "2019-09-24 14:05:55 +0000";
layers = (
{
layerId = UUID0;
paths = (
{
closed = 1;
nodes = (
"341 -264 LINE",
"327 -238 OFFCURVE",
"320 -213 OFFCURVE",
"320 -187 CURVE SMOOTH",
"320 -121 OFFCURVE",
"348 -76 OFFCURVE",
"403 -7 CURVE SMOOTH",
"512 130 OFFCURVE",
"575 239 OFFCURVE",
"575 388 CURVE SMOOTH",
"575 588 OFFCURVE",
"475 727 OFFCURVE",
"284 727 CURVE SMOOTH",
"112 727 OFFCURVE",
"0 609 OFFCURVE",
"0 419 CURVE SMOOTH",
"0 96 LINE",
"66 96 LINE",
"74 215 LINE",
"94 171 OFFCURVE",
"125 124 OFFCURVE",
"166 73 CURVE",
"228 128 LINE",
"150 219 OFFCURVE",
"79 319 OFFCURVE",
"79 419 CURVE SMOOTH",
"79 560 OFFCURVE",
"150 644 OFFCURVE",
"284 644 CURVE SMOOTH",
"422 644 OFFCURVE",
"497 542 OFFCURVE",
"497 388 CURVE SMOOTH",
"497 260 OFFCURVE",
"449 172 OFFCURVE",
"350 50 CURVE SMOOTH",
"281 -35 OFFCURVE",
"240 -98 OFFCURVE",
"240 -187 CURVE SMOOTH",
"240 -214 OFFCURVE",
"247 -240 OFFCURVE",
"259 -264 CURVE"
);
}
);
width = 620;
}
);
},
{
glyphname = u1843.med;
lastChange = "2019-09-24 14:05:55 +0000";
layers = (
{
layerId = UUID0;
paths = (
{
closed = 1;
nodes = (
"161 364 LINE",
"161 444 LINE",
"65 444 LINE",
"88 632 LINE",
"0 632 LINE",
"22 444 LINE",
"0 444 LINE",
"0 364 LINE"
);
}
);
width = 120;
}
);
},
{
glyphname = u1843.fin;
lastChange = "2019-09-24 14:05:55 +0000";
layers = (
{
layerId = UUID0;
paths = (
{
closed = 1;
nodes = (
"170 -264 LINE",
"156 -238 OFFCURVE",
"149 -213 OFFCURVE",
"149 -187 CURVE SMOOTH",
"149 -125 OFFCURVE",
"169 -92 OFFCURVE",
"216 -31 CURVE SMOOTH",
"290 64 OFFCURVE",
"349 155 OFFCURVE",
"349 245 CURVE SMOOTH",
"349 373 OFFCURVE",
"271 444 OFFCURVE",
"118 444 CURVE SMOOTH",
"65 444 LINE",
"88 632 LINE",
"0 632 LINE",
"22 444 LINE",
"0 444 LINE",
"0 364 LINE",
"117 364 LINE SMOOTH",
"223 364 OFFCURVE",
"271 325 OFFCURVE",
"271 245 CURVE SMOOTH",
"271 177 OFFCURVE",
"229 113 OFFCURVE",
"164 28 CURVE SMOOTH",
"109 -44 OFFCURVE",
"69 -108 OFFCURVE",
"69 -187 CURVE SMOOTH",
"69 -216 OFFCURVE",
"75 -242 OFFCURVE",
"88 -264 CURVE"
);
}
);
width = 399;
}
);
},
{
glyphname = u1845.med;
lastChange = "2019-09-24 14:05:55 +0000";
layers = (
{
layerId = UUID0;
paths = (
{
closed = 1;
nodes = (
"422 92 LINE",
"404 108 OFFCURVE",
"366 119 OFFCURVE",
"317 119 CURVE SMOOTH",
"288 119 LINE",
"288 364 LINE",
"574 364 LINE",
"574 444 LINE",
"209 444 LINE",
"209 119 LINE",
"176 119 LINE SMOOTH",
"111 119 OFFCURVE",
"79 154 OFFCURVE",
"79 223 CURVE SMOOTH",
"79 444 LINE",
"0 444 LINE",
"0 223 LINE SMOOTH",
"0 99 OFFCURVE",
"59 36 OFFCURVE",
"176 36 CURVE SMOOTH",
"317 36 LINE SMOOTH",
"367 36 OFFCURVE",
"402 27 OFFCURVE",
"422 9 CURVE"
);
}
);
width = 544;
}
);
},
{
glyphname = u1866_1823;
lastChange = "2019-09-24 14:05:55 +0000";
layers = (
{
layerId = UUID0;
paths = (
{
closed = 1;
nodes = (
"311 40 OFFCURVE",
"370 72 OFFCURVE",
"396 135 CURVE",
"424 71 OFFCURVE",
"474 40 OFFCURVE",
"538 40 CURVE SMOOTH",
"683 40 OFFCURVE",
"752 146 OFFCURVE",
"752 375 CURVE SMOOTH",
"752 569 OFFCURVE",
"693 733 OFFCURVE",
"516 733 CURVE SMOOTH",
"467 733 OFFCURVE",
"432 715 OFFCURVE",
"396 670 CURVE",
"363 712 OFFCURVE",
"322 733 OFFCURVE",
"271 733 CURVE SMOOTH",
"123 733 OFFCURVE",
"45 606 OFFCURVE",
"45 375 CURVE SMOOTH",
"45 155 OFFCURVE",
"107 40 OFFCURVE",
"249 40 CURVE SMOOTH"
);
},
{
closed = 1;
nodes = (
"144 123 OFFCURVE",
"124 224 OFFCURVE",
"124 364 CURVE",
"359 364 LINE",
"359 286 LINE SMOOTH",
"359 195 OFFCURVE",
"325 123 OFFCURVE",
"249 123 CURVE SMOOTH"
);
},
{
closed = 1;
nodes = (
"471 123 OFFCURVE",
"438 177 OFFCURVE",
"438 286 CURVE SMOOTH",
"438 364 LINE",
"673 364 LINE",
"668 188 OFFCURVE",
"638 123 OFFCURVE",
"538 123 CURVE SMOOTH"
);
},
{
closed = 1;
nodes = (
"136 585 OFFCURVE",
"183 650 OFFCURVE",
"271 650 CURVE SMOOTH",
"326 650 OFFCURVE",
"363 627 OFFCURVE",
"396 571 CURVE",
"427 623 OFFCURVE",
"461 650 OFFCURVE",
"516 650 CURVE SMOOTH",
"610 650 OFFCURVE",
"658 584 OFFCURVE",
"670 444 CURVE",
"126 444 LINE"
);
}
);
width = 797;
}
);
},
{
glyphname = u1850;
lastChange = "2019-09-24 14:05:55 +0000";
layers = (
{
layerId = UUID0;
paths = (
{
closed = 1;
nodes = (
"370 96 LINE",
"415 173 OFFCURVE",
"438 263 OFFCURVE",
"443 364 CURVE",
"678 364 LINE",
"678 444 LINE",
"443 444 LINE",
"439 625 OFFCURVE",
"378 711 OFFCURVE",
"253 711 CURVE SMOOTH",
"131 711 OFFCURVE",
"45 604 OFFCURVE",
"45 420 CURVE SMOOTH",
"45 401 OFFCURVE",
"46 383 OFFCURVE",
"50 364 CURVE",
"145 300 OFFCURVE",
"222 210 OFFCURVE",
"281 96 CURVE"
);
},
{
closed = 1;
nodes = (
"279 262 OFFCURVE",
"202 353 OFFCURVE",
"126 405 CURVE",
"124 415 OFFCURVE",
"124 417 OFFCURVE",
"124 420 CURVE SMOOTH",
"124 553 OFFCURVE",
"178 633 OFFCURVE",
"253 633 CURVE SMOOTH",
"347 633 OFFCURVE",
"364 538 OFFCURVE",
"364 409 CURVE SMOOTH",
"364 318 OFFCURVE",
"355 248 OFFCURVE",
"324 176 CURVE"
);
}
);
width = 723;
}
);
unicode = 1850;
},
{
glyphname = u1850.fin;
lastChange = "2019-09-24 14:05:55 +0000";
layers = (
{
layerId = UUID0;
paths = (
{
closed = 1;
nodes = (
"320 96 LINE",
"364 173 OFFCURVE",
"389 262 OFFCURVE",
"393 364 CURVE",
"604 364 LINE SMOOTH",
"675 364 OFFCURVE",
"702 333 OFFCURVE",
"702 279 CURVE SMOOTH",
"702 236 OFFCURVE",
"695 197 OFFCURVE",
"680 162 CURVE",
"754 162 LINE",
"771 197 OFFCURVE",
"779 236 OFFCURVE",
"779 279 CURVE SMOOTH",
"779 389 OFFCURVE",
"721 444 OFFCURVE",
"604 444 CURVE SMOOTH",
"393 444 LINE",
"389 625 OFFCURVE",
"328 711 OFFCURVE",
"203 711 CURVE SMOOTH",
"83 711 OFFCURVE",
"-5 606 OFFCURVE",
"-5 422 CURVE SMOOTH",
"-5 403 OFFCURVE",
"-3 383 OFFCURVE",
"0 364 CURVE",
"95 299 OFFCURVE",
"172 209 OFFCURVE",
"231 96 CURVE"
);
},
{
closed = 1;
nodes = (
"229 261 OFFCURVE",
"152 354 OFFCURVE",
"76 405 CURVE",
"74 415 OFFCURVE",
"74 418 OFFCURVE",
"74 420 CURVE SMOOTH",
"74 528 OFFCURVE",
"113 633 OFFCURVE",
"203 633 CURVE SMOOTH",
"296 633 OFFCURVE",
"314 539 OFFCURVE",
"314 409 CURVE SMOOTH",
"314 318 OFFCURVE",
"305 248 OFFCURVE",
"274 176 CURVE"
);
}
);
width = 824;
}
);
},
{
glyphname = u184F;
lastChange = "2019-09-24 14:05:55 +0000";
layers = (
{
layerId = UUID0;
paths = (
{
closed = 1;
nodes = (
"341 186 LINE SMOOTH",
"341 395 OFFCURVE",
"393 545 OFFCURVE",
"516 718 CURVE",
"417 718 LINE",
"394 685 OFFCURVE",
"372 650 OFFCURVE",
"353 614 CURVE",
"326 648 OFFCURVE",
"291 665 OFFCURVE",
"246 665 CURVE SMOOTH",
"134 665 OFFCURVE",
"45 564 OFFCURVE",
"45 409 CURVE SMOOTH",
"45 223 OFFCURVE",
"160 80 OFFCURVE",
"341 74 CURVE"
);
},
{
closed = 1;
nodes = (
"167 217 OFFCURVE",
"119 304 OFFCURVE",
"119 410 CURVE SMOOTH",
"119 510 OFFCURVE",
"161 593 OFFCURVE",
"246 593 CURVE SMOOTH",
"279 593 OFFCURVE",
"305 578 OFFCURVE",
"324 548 CURVE",
"283 444 OFFCURVE",
"262 322 OFFCURVE",
"262 183 CURVE"
);
}
);
width = 526;
}
);
unicode = 184F;
},
{
glyphname = u1853.med;
lastChange = "2019-09-24 14:05:55 +0000";
layers = (
{
layerId = UUID0;
paths = (
{
closed = 1;
nodes = (
"356 -89 LINE",
"310 -54 OFFCURVE",
"251 -50 OFFCURVE",
"176 -50 CURVE SMOOTH",
"155 -50 LINE SMOOTH",
"99 -50 OFFCURVE",
"71 -25 OFFCURVE",
"71 12 CURVE SMOOTH",
"71 69 OFFCURVE",
"117 81 OFFCURVE",
"180 81 CURVE SMOOTH",
"356 81 LINE",
"356 142 LINE",
"329 217 OFFCURVE",
"315 291 OFFCURVE",
"315 364 CURVE",
"560 364 LINE",
"560 444 LINE",
"0 444 LINE",
"0 364 LINE",
"241 364 LINE",
"241 289 OFFCURVE",
"250 221 OFFCURVE",
"269 161 CURVE",
"180 161 LINE SMOOTH",
"60 161 OFFCURVE",
"0 108 OFFCURVE",
"0 12 CURVE SMOOTH",
"0 -80 OFFCURVE",
"51 -130 OFFCURVE",
"155 -130 CURVE SMOOTH",
"176 -130 LINE SMOOTH",
"250 -130 OFFCURVE",
"301 -134 OFFCURVE",
"356 -176 CURVE"
);
}
);
width = 530;
}
);
},
{
glyphname = u1853;
lastChange = "2019-09-24 14:05:55 +0000";
layers = (
{
layerId = UUID0;
paths = (
{
closed = 1;
nodes = (
"518 -89 LINE",
"475 -55 OFFCURVE",
"412 -50 OFFCURVE",
"338 -50 CURVE SMOOTH",
"317 -50 LINE SMOOTH",
"261 -50 OFFCURVE",
"233 -25 OFFCURVE",
"233 12 CURVE SMOOTH",
"233 69 OFFCURVE",
"279 81 OFFCURVE",
"342 81 CURVE SMOOTH",
"518 81 LINE",
"518 142 LINE",
"491 217 OFFCURVE",
"477 291 OFFCURVE",
"477 364 CURVE",
"722 364 LINE",
"722 444 LINE",
"63 444 LINE",
"45 364 LINE",
"403 364 LINE",
"403 289 OFFCURVE",
"412 222 OFFCURVE",
"431 161 CURVE",
"342 161 LINE SMOOTH",
"222 161 OFFCURVE",
"162 108 OFFCURVE",
"162 12 CURVE SMOOTH",
"162 -83 OFFCURVE",
"214 -130 OFFCURVE",
"317 -130 CURVE SMOOTH",
"338 -130 LINE SMOOTH",
"412 -130 OFFCURVE",
"463 -134 OFFCURVE",
"518 -176 CURVE"
);
}
);
width = 767;
}
);
unicode = 1853;
},
{
glyphname = u1846.fin;
lastChange = "2019-09-24 14:05:55 +0000";
layers = (
{
layerId = UUID0;
paths = (
{
closed = 1;
nodes = (
"378 444 LINE",
"0 444 LINE",
"0 267 LINE SMOOTH",
"0 154 OFFCURVE",
"57 73 OFFCURVE",
"176 47 CURVE SMOOTH",
"378 3 LINE"
);
},
{
closed = 1;
nodes = (
"198 127 LINE SMOOTH",
"118 145 OFFCURVE",
"79 196 OFFCURVE",
"79 267 CURVE SMOOTH",
"79 364 LINE",
"300 364 LINE",
"300 104 LINE"
);
}
);
width = 423;
}
);
},
{
glyphname = u1846.med;
lastChange = "2019-09-24 14:05:55 +0000";
layers = (
{
layerId = UUID0;
paths = (
{
closed = 1;
nodes = (
"378 364 LINE",
"590 364 LINE",
"590 444 LINE",
"0 444 LINE",
"0 267 LINE SMOOTH",
"0 154 OFFCURVE",
"57 73 OFFCURVE",
"176 47 CURVE SMOOTH",
"378 3 LINE"
);
},
{
closed = 1;
nodes = (
"198 127 LINE SMOOTH",
"118 145 OFFCURVE",
"79 196 OFFCURVE",
"79 267 CURVE SMOOTH",
"79 364 LINE",
"300 364 LINE",
"300 104 LINE"
);
}
);
width = 560;
}
);
},
{
glyphname = u184C.ini;
lastChange = "2019-09-24 14:05:55 +0000";
layers = (
{
layerId = UUID0;
paths = (
{
closed = 1;
nodes = (
"405 63 LINE",
"328 198 OFFCURVE",
"289 320 OFFCURVE",
"289 430 CURVE SMOOTH",
"289 575 OFFCURVE",
"347 644 OFFCURVE",
"439 644 CURVE SMOOTH",
"559 644 OFFCURVE",
"583 529 OFFCURVE",
"594 364 CURVE",
"668 364 LINE",
"658 610 OFFCURVE",
"587 727 OFFCURVE",
"439 727 CURVE SMOOTH",
"306 727 OFFCURVE",
"210 616 OFFCURVE",
"210 444 CURVE",
"116 444 LINE",
"116 711 LINE",
"45 711 LINE",
"45 63 LINE"
);
},
{
closed = 1;
nodes = (
"116 364 LINE",
"213 364 LINE",
"221 293 OFFCURVE",
"242 220 OFFCURVE",
"276 146 CURVE",
"116 146 LINE"
);
}
);
width = 594;
}
);
},
{
glyphname = u1822;
lastChange = "2019-09-24 14:05:55 +0000";
layers = (
{
layerId = UUID0;
paths = (
{
closed = 1;
nodes = (
"691 85 LINE",
"617 188 OFFCURVE",
"569 287 OFFCURVE",
"569 407 CURVE SMOOTH",
"569 544 OFFCURVE",
"626 609 OFFCURVE",
"718 609 CURVE SMOOTH",
"806 609 OFFCURVE",
"857 525 OFFCURVE",
"868 376 CURVE",
"948 386 LINE",
"938 552 OFFCURVE",
"871 692 OFFCURVE",
"718 692 CURVE SMOOTH",
"582 692 OFFCURVE",
"502 595 OFFCURVE",
"491 444 CURVE",
"444 444 LINE SMOOTH",
"360 444 OFFCURVE",
"307 416 OFFCURVE",
"285 361 CURVE",
"281 361 LINE",
"278 445 LINE SMOOTH",
"273 575 OFFCURVE",
"248 653 OFFCURVE",
"139 653 CURVE SMOOTH",
"100 653 OFFCURVE",
"57 643 OFFCURVE",
"10 623 CURVE",
"10 550 LINE",
"52 567 OFFCURVE",
"88 575 OFFCURVE",
"118 575 CURVE SMOOTH",
"179 575 OFFCURVE",
"194 520 OFFCURVE",
"200 437 CURVE SMOOTH",
"226 74 LINE",
"292 74 LINE",
"302 219 LINE SMOOTH",
"309 326 OFFCURVE",
"335 364 OFFCURVE",
"445 364 CURVE SMOOTH",
"492 364 LINE",
"501 260 OFFCURVE",
"544 152 OFFCURVE",
"619 42 CURVE"
);
}
);
width = 993;
}
);
unicode = 1822;
},
{
glyphname = u1826.isoV1;
lastChange = "2019-09-24 14:05:55 +0000";
layers = (
{
layerId = UUID0;
paths = (
{
closed = 1;
nodes = (
"824 40 OFFCURVE",
"897 138 OFFCURVE",
"897 275 CURVE SMOOTH",
"897 321 OFFCURVE",
"887 404 OFFCURVE",
"874 444 CURVE",
"570 444 LINE",
"572 589 OFFCURVE",
"643 699 OFFCURVE",
"781 699 CURVE SMOOTH",
"920 699 OFFCURVE",
"991 566 OFFCURVE",
"1001 409 CURVE",
"1081 419 LINE",
"1070 607 OFFCURVE",
"965 782 OFFCURVE",
"781 782 CURVE SMOOTH",
"601 782 OFFCURVE",
"503 645 OFFCURVE",
"492 444 CURVE",
"444 444 LINE SMOOTH",
"360 444 OFFCURVE",
"307 416 OFFCURVE",
"285 361 CURVE",
"281 361 LINE",
"278 445 LINE SMOOTH",
"273 575 OFFCURVE",
"248 653 OFFCURVE",
"139 653 CURVE SMOOTH",
"100 653 OFFCURVE",
"57 643 OFFCURVE",
"10 623 CURVE",
"10 550 LINE",
"52 567 OFFCURVE",
"88 575 OFFCURVE",
"118 575 CURVE SMOOTH",
"179 575 OFFCURVE",
"194 520 OFFCURVE",
"200 437 CURVE SMOOTH",
"226 74 LINE",
"292 74 LINE",
"302 219 LINE SMOOTH",
"310 329 OFFCURVE",
"337 364 OFFCURVE",
"445 364 CURVE SMOOTH",
"491 364 LINE",
"501 141 OFFCURVE",
"577 40 OFFCURVE",
"717 40 CURVE SMOOTH"
);
},
{
closed = 1;
nodes = (
"620 123 OFFCURVE",
"573 203 OFFCURVE",
"570 364 CURVE",
"808 364 LINE",
"814 344 OFFCURVE",
"818 314 OFFCURVE",
"818 275 CURVE SMOOTH",
"818 190 OFFCURVE",
"783 123 OFFCURVE",
"710 123 CURVE SMOOTH"
);
}
);
width = 1126;
}
);
},
{
glyphname = u186E;
lastChange = "2019-09-24 14:05:55 +0000";
layers = (
{
layerId = UUID0;
paths = (
{
closed = 1;
nodes = (
"519 73 LINE",
"507 127 OFFCURVE",
"484 225 OFFCURVE",
"450 364 CURVE",
"711 364 LINE",
"711 444 LINE",
"428 444 LINE",
"405 527 OFFCURVE",
"380 610 OFFCURVE",
"352 694 CURVE",
"499 694 LINE",
"499 756 LINE",
"334 756 LINE",
"334 888 LINE",
"271 888 LINE",
"271 756 LINE",
"114 756 LINE",
"114 694 LINE",
"258 694 LINE",
"254 672 OFFCURVE",
"246 632 OFFCURVE",
"227 559 CURVE SMOOTH",
"208 487 OFFCURVE",
"185 427 OFFCURVE",
"131 427 CURVE SMOOTH",
"105 427 OFFCURVE",
"76 433 OFFCURVE",
"45 446 CURVE",
"45 371 LINE",
"74 354 OFFCURVE",
"104 346 OFFCURVE",
"135 346 CURVE SMOOTH",
"208 346 OFFCURVE",
"243 379 OFFCURVE",
"270 459 CURVE SMOOTH",
"284 501 OFFCURVE",
"295 544 OFFCURVE",
"304 590 CURVE",
"308 590 LINE",
"356 458 OFFCURVE",
"413 231 OFFCURVE",
"443 73 CURVE"
);
}
);
width = 756;
}
);
unicode = 186E;
},
{
glyphname = u1823;
lastChange = "2019-09-24 14:05:55 +0000";
layers = (
{
layerId = UUID0;
paths = (
{
closed = 1;
nodes = (
"816 40 OFFCURVE",
"887 123 OFFCURVE",
"887 249 CURVE SMOOTH",
"887 311 OFFCURVE",
"869 392 OFFCURVE",
"840 444 CURVE",
"444 444 LINE SMOOTH",
"360 444 OFFCURVE",
"307 416 OFFCURVE",
"285 361 CURVE",
"281 361 LINE",
"278 445 LINE SMOOTH",
"273 575 OFFCURVE",
"248 653 OFFCURVE",
"139 653 CURVE SMOOTH",
"100 653 OFFCURVE",
"57 643 OFFCURVE",
"10 623 CURVE",
"10 550 LINE",
"52 567 OFFCURVE",
"88 575 OFFCURVE",
"118 575 CURVE SMOOTH",
"179 575 OFFCURVE",
"194 520 OFFCURVE",
"200 437 CURVE SMOOTH",
"226 74 LINE",
"292 74 LINE",
"302 219 LINE SMOOTH",
"309 326 OFFCURVE",
"335 364 OFFCURVE",
"445 364 CURVE SMOOTH",
"512 364 LINE",
"499 333 OFFCURVE",
"492 294 OFFCURVE",
"492 249 CURVE SMOOTH",
"492 116 OFFCURVE",
"562 40 OFFCURVE",
"689 40 CURVE SMOOTH"
);
},
{
closed = 1;
nodes = (
"610 123 OFFCURVE",
"571 166 OFFCURVE",
"571 251 CURVE SMOOTH",
"571 294 OFFCURVE",
"578 332 OFFCURVE",
"591 364 CURVE",
"786 364 LINE",
"801 329 OFFCURVE",
"808 291 OFFCURVE",
"808 251 CURVE SMOOTH",
"808 166 OFFCURVE",
"763 123 OFFCURVE",
"689 123 CURVE SMOOTH"
);
}
);
width = 932;
}
);
unicode = 1823;
},
{
glyphname = u1825.ini;
lastChange = "2019-09-24 14:05:55 +0000";
layers = (
{
layerId = UUID0;
paths = (
{
closed = 1;
nodes = (
"1245 -31 LINE",
"1172 100 OFFCURVE",
"1116 231 OFFCURVE",
"1078 364 CURVE",
"1390 364 LINE",
"1390 444 LINE",
"444 444 LINE SMOOTH",
"360 444 OFFCURVE",
"307 416 OFFCURVE",
"285 361 CURVE",
"281 361 LINE",
"278 445 LINE SMOOTH",
"273 575 OFFCURVE",
"248 653 OFFCURVE",
"139 653 CURVE SMOOTH",
"100 653 OFFCURVE",
"57 643 OFFCURVE",
"10 623 CURVE",
"10 550 LINE",
"52 567 OFFCURVE",
"88 575 OFFCURVE",
"118 575 CURVE SMOOTH",
"179 575 OFFCURVE",
"194 520 OFFCURVE",
"200 437 CURVE SMOOTH",
"226 74 LINE",
"292 74 LINE",
"302 219 LINE SMOOTH",
"309 326 OFFCURVE",
"335 364 OFFCURVE",
"445 364 CURVE SMOOTH",
"512 364 LINE",
"499 333 OFFCURVE",
"492 294 OFFCURVE",
"492 249 CURVE SMOOTH",
"492 116 OFFCURVE",
"562 40 OFFCURVE",
"689 40 CURVE SMOOTH",
"816 40 OFFCURVE",
"887 123 OFFCURVE",
"887 249 CURVE SMOOTH",
"887 293 OFFCURVE",
"880 331 OFFCURVE",
"865 364 CURVE",
"999 364 LINE",
"1036 224 OFFCURVE",
"1093 80 OFFCURVE",
"1172 -67 CURVE"
);
},
{
closed = 1;
nodes = (
"610 123 OFFCURVE",
"571 166 OFFCURVE",
"571 251 CURVE SMOOTH",
"571 294 OFFCURVE",
"578 332 OFFCURVE",
"591 364 CURVE",
"788 364 LINE",
"801 332 OFFCURVE",
"808 294 OFFCURVE",
"808 251 CURVE SMOOTH",
"808 166 OFFCURVE",
"763 123 OFFCURVE",
"689 123 CURVE SMOOTH"
);
}
);
width = 1360;
}
);
},
{
glyphname = u1825.medV2;
lastChange = "2019-09-24 14:05:55 +0000";
layers = (
{
layerId = UUID0;
paths = (
{
closed = 1;
nodes = (
"1037 -31 LINE",
"964 100 OFFCURVE",
"908 231 OFFCURVE",
"870 364 CURVE",
"1182 364 LINE",
"1182 444 LINE",
"0 444 LINE",
"0 364 LINE",
"19 96 LINE",
"85 96 LINE",
"104 364 LINE",
"304 364 LINE",
"291 333 OFFCURVE",
"284 294 OFFCURVE",
"284 249 CURVE SMOOTH",
"284 116 OFFCURVE",
"354 40 OFFCURVE",
"481 40 CURVE SMOOTH",
"608 40 OFFCURVE",
"679 123 OFFCURVE",
"679 249 CURVE SMOOTH",
"679 293 OFFCURVE",
"672 331 OFFCURVE",
"657 364 CURVE",
"791 364 LINE",
"828 224 OFFCURVE",
"885 80 OFFCURVE",
"964 -67 CURVE"
);
},
{
closed = 1;
nodes = (
"402 123 OFFCURVE",
"363 166 OFFCURVE",
"363 251 CURVE SMOOTH",
"363 294 OFFCURVE",
"370 332 OFFCURVE",
"383 364 CURVE",
"580 364 LINE",
"593 332 OFFCURVE",
"600 294 OFFCURVE",
"600 251 CURVE SMOOTH",
"600 166 OFFCURVE",
"555 123 OFFCURVE",
"481 123 CURVE SMOOTH"
);
}
);
width = 1152;
}
);
},
{
glyphname = u183E.fin;
lastChange = "2019-09-24 14:05:55 +0000";
layers = (
{
layerId = UUID0;
paths = (
{
closed = 1;
nodes = (
"409 -57 LINE",
"334 82 OFFCURVE",
"297 215 OFFCURVE",
"295 364 CURVE",
"551 364 LINE SMOOTH",
"622 364 OFFCURVE",
"649 333 OFFCURVE",
"649 279 CURVE SMOOTH",
"649 235 OFFCURVE",
"642 196 OFFCURVE",
"627 162 CURVE",
"701 162 LINE",
"718 199 OFFCURVE",
"726 238 OFFCURVE",
"726 279 CURVE SMOOTH",
"726 389 OFFCURVE",
"667 444 OFFCURVE",
"551 444 CURVE SMOOTH",
"219 444 LINE",
"219 366 LINE SMOOTH",
"219 220 OFFCURVE",
"247 93 OFFCURVE",
"303 -17 CURVE",
"179 -72 LINE",
"104 70 OFFCURVE",
"75 200 OFFCURVE",
"75 364 CURVE SMOOTH",
"75 444 LINE",
"0 444 LINE",
"0 364 LINE SMOOTH",
"0 166 OFFCURVE",
"45 -6 OFFCURVE",
"140 -182 CURVE"
);
}
);
width = 771;
}
);
},
{
glyphname = u1834.fin;
lastChange = "2019-09-24 14:05:55 +0000";
layers = (
{
layerId = UUID0;
paths = (
{
closed = 1;
nodes = (
"68 57 OFFCURVE",
"138 63 OFFCURVE",
"235 63 CURVE SMOOTH",
"356 63 LINE",
"356 129 LINE",
"329 209 OFFCURVE",
"315 280 OFFCURVE",
"315 364 CURVE",
"560 364 LINE SMOOTH",
"630 364 OFFCURVE",
"658 333 OFFCURVE",
"658 279 CURVE SMOOTH",
"658 236 OFFCURVE",
"651 197 OFFCURVE",
"636 162 CURVE",
"710 162 LINE",
"727 197 OFFCURVE",
"735 236 OFFCURVE",
"735 279 CURVE SMOOTH",
"735 389 OFFCURVE",
"677 444 OFFCURVE",
"560 444 CURVE SMOOTH",
"0 444 LINE",
"0 364 LINE",
"241 364 LINE",
"241 279 OFFCURVE",
"251 206 OFFCURVE",
"271 143 CURVE",
"235 143 LINE SMOOTH",
"141 143 OFFCURVE",
"63 141 OFFCURVE",
"0 101 CURVE",
"0 16 LINE"
);
}
);
width = 780;
}
);
},
{
glyphname = u1823.ini;
lastChange = "2019-09-24 14:05:55 +0000";
layers = (
{
layerId = UUID0;
paths = (
{
closed = 1;
nodes = (
"816 40 OFFCURVE",
"887 123 OFFCURVE",
"887 249 CURVE SMOOTH",
"887 293 OFFCURVE",
"880 331 OFFCURVE",
"865 364 CURVE",
"1095 364 LINE",
"1095 444 LINE",
"444 444 LINE SMOOTH",
"360 444 OFFCURVE",
"307 416 OFFCURVE",
"285 361 CURVE",
"281 361 LINE",
"278 445 LINE SMOOTH",
"273 575 OFFCURVE",
"248 653 OFFCURVE",
"139 653 CURVE SMOOTH",
"100 653 OFFCURVE",
"57 643 OFFCURVE",
"10 623 CURVE",
"10 550 LINE",
"52 567 OFFCURVE",
"88 575 OFFCURVE",
"118 575 CURVE SMOOTH",
"179 575 OFFCURVE",
"194 520 OFFCURVE",
"200 437 CURVE SMOOTH",
"226 74 LINE",
"292 74 LINE",
"302 219 LINE SMOOTH",
"309 326 OFFCURVE",
"335 364 OFFCURVE",
"445 364 CURVE SMOOTH",
"512 364 LINE",
"499 333 OFFCURVE",
"492 294 OFFCURVE",
"492 249 CURVE SMOOTH",
"492 116 OFFCURVE",
"562 40 OFFCURVE",
"689 40 CURVE SMOOTH"
);
},
{
closed = 1;
nodes = (
"610 123 OFFCURVE",
"571 166 OFFCURVE",
"571 251 CURVE SMOOTH",
"571 294 OFFCURVE",
"578 332 OFFCURVE",
"591 364 CURVE",
"788 364 LINE",
"801 332 OFFCURVE",
"808 294 OFFCURVE",
"808 251 CURVE SMOOTH",
"808 166 OFFCURVE",
"763 123 OFFCURVE",
"689 123 CURVE SMOOTH"
);
}
);
width = 1065;
}
);
},
{
glyphname = u1823.medV1;
lastChange = "2019-09-24 14:05:55 +0000";
layers = (
{
layerId = UUID0;
paths = (
{
closed = 1;
nodes = (
"608 40 OFFCURVE",
"679 123 OFFCURVE",
"679 249 CURVE SMOOTH",
"679 293 OFFCURVE",
"672 331 OFFCURVE",
"657 364 CURVE",
"887 364 LINE",
"887 444 LINE",
"0 444 LINE",
"0 364 LINE",
"19 96 LINE",
"85 96 LINE",
"104 364 LINE",
"304 364 LINE",
"291 333 OFFCURVE",
"284 294 OFFCURVE",
"284 249 CURVE SMOOTH",
"284 116 OFFCURVE",
"354 40 OFFCURVE",
"481 40 CURVE SMOOTH"
);
},
{
closed = 1;
nodes = (
"402 123 OFFCURVE",
"363 166 OFFCURVE",
"363 251 CURVE SMOOTH",
"363 294 OFFCURVE",
"370 332 OFFCURVE",
"383 364 CURVE",
"580 364 LINE",
"593 332 OFFCURVE",
"600 294 OFFCURVE",
"600 251 CURVE SMOOTH",
"600 166 OFFCURVE",
"555 123 OFFCURVE",
"481 123 CURVE SMOOTH"
);
}
);
width = 857;
}
);
},
{
glyphname = u1825;
lastChange = "2019-09-24 14:05:55 +0000";
layers = (
{
layerId = UUID0;
paths = (
{
closed = 1;
nodes = (
"816 40 OFFCURVE",
"887 123 OFFCURVE",
"887 249 CURVE SMOOTH",
"887 293 OFFCURVE",
"880 331 OFFCURVE",
"865 364 CURVE",
"1015 364 LINE SMOOTH",
"1085 364 OFFCURVE",
"1113 333 OFFCURVE",
"1113 279 CURVE SMOOTH",
"1113 235 OFFCURVE",
"1105 196 OFFCURVE",
"1091 162 CURVE",
"1165 162 LINE",
"1182 199 OFFCURVE",
"1190 238 OFFCURVE",
"1190 279 CURVE SMOOTH",
"1190 389 OFFCURVE",
"1132 444 OFFCURVE",
"1015 444 CURVE SMOOTH",
"444 444 LINE SMOOTH",
"360 444 OFFCURVE",
"307 416 OFFCURVE",
"285 361 CURVE",
"281 361 LINE",
"278 445 LINE SMOOTH",
"273 575 OFFCURVE",
"248 653 OFFCURVE",
"139 653 CURVE SMOOTH",
"100 653 OFFCURVE",
"57 643 OFFCURVE",
"10 623 CURVE",
"10 550 LINE",
"52 567 OFFCURVE",
"88 575 OFFCURVE",
"118 575 CURVE SMOOTH",
"179 575 OFFCURVE",
"194 520 OFFCURVE",
"200 437 CURVE SMOOTH",
"226 74 LINE",
"292 74 LINE",
"302 219 LINE SMOOTH",
"310 330 OFFCURVE",
"336 364 OFFCURVE",
"445 364 CURVE SMOOTH",
"512 364 LINE",
"499 333 OFFCURVE",
"492 294 OFFCURVE",
"492 249 CURVE SMOOTH",
"492 116 OFFCURVE",
"562 40 OFFCURVE",
"689 40 CURVE SMOOTH"
);
},
{
closed = 1;
nodes = (
"610 123 OFFCURVE",
"571 166 OFFCURVE",
"571 251 CURVE SMOOTH",
"571 294 OFFCURVE",
"578 332 OFFCURVE",
"591 364 CURVE",
"788 364 LINE",
"801 332 OFFCURVE",
"808 294 OFFCURVE",
"808 251 CURVE SMOOTH",
"808 166 OFFCURVE",
"763 123 OFFCURVE",
"689 123 CURVE SMOOTH"
);
}
);
width = 1235;
}
);
unicode = 1825;
},
{
glyphname = u1825.finV1;
lastChange = "2019-09-24 14:05:55 +0000";
layers = (
{
layerId = UUID0;
paths = (
{
closed = 1;
nodes = (
"324 40 OFFCURVE",
"395 123 OFFCURVE",
"395 249 CURVE SMOOTH",
"395 293 OFFCURVE",
"388 331 OFFCURVE",
"373 364 CURVE",
"523 364 LINE SMOOTH",
"594 364 OFFCURVE",
"621 333 OFFCURVE",
"621 279 CURVE SMOOTH",
"621 236 OFFCURVE",
"614 197 OFFCURVE",
"599 162 CURVE",
"673 162 LINE",
"690 198 OFFCURVE",
"698 237 OFFCURVE",
"698 279 CURVE SMOOTH",
"698 389 OFFCURVE",
"640 444 OFFCURVE",
"523 444 CURVE SMOOTH",
"0 444 LINE",
"0 364 LINE",
"20 364 LINE",
"7 333 OFFCURVE",
"0 294 OFFCURVE",
"0 249 CURVE SMOOTH",
"0 116 OFFCURVE",
"69 40 OFFCURVE",
"197 40 CURVE SMOOTH"
);
},
{
closed = 1;
nodes = (
"118 123 OFFCURVE",
"79 166 OFFCURVE",
"79 251 CURVE SMOOTH",
"79 295 OFFCURVE",
"86 333 OFFCURVE",
"99 364 CURVE",
"296 364 LINE",
"309 333 OFFCURVE",
"316 295 OFFCURVE",
"316 251 CURVE SMOOTH",
"316 166 OFFCURVE",
"271 123 OFFCURVE",
"197 123 CURVE SMOOTH"
);
}
);
width = 743;
}
);
},
{
glyphname = u1833.fin;
lastChange = "2019-09-24 14:05:55 +0000";
layers = (
{
layerId = UUID0;
paths = (
{
closed = 1;
nodes = (
"324 40 OFFCURVE",
"395 123 OFFCURVE",
"395 249 CURVE SMOOTH",
"395 293 OFFCURVE",
"388 331 OFFCURVE",
"373 364 CURVE",
"540 364 LINE",
"540 207 OFFCURVE",
"640 63 OFFCURVE",
"801 53 CURVE",
"801 156 LINE SMOOTH",
"801 398 OFFCURVE",
"853 665 OFFCURVE",
"990 836 CURVE",
"898 836 LINE",
"776 677 OFFCURVE",
"724 399 OFFCURVE",
"724 156 CURVE",
"631 211 OFFCURVE",
"614 307 OFFCURVE",
"614 444 CURVE",
"0 444 LINE",
"0 364 LINE",
"20 364 LINE",
"7 333 OFFCURVE",
"0 294 OFFCURVE",
"0 249 CURVE SMOOTH",
"0 116 OFFCURVE",
"69 40 OFFCURVE",
"197 40 CURVE SMOOTH"
);
},
{
closed = 1;
nodes = (
"118 123 OFFCURVE",
"79 166 OFFCURVE",
"79 251 CURVE SMOOTH",
"79 295 OFFCURVE",
"86 333 OFFCURVE",
"99 364 CURVE",
"296 364 LINE",
"309 333 OFFCURVE",
"316 295 OFFCURVE",
"316 251 CURVE SMOOTH",
"316 166 OFFCURVE",
"271 123 OFFCURVE",
"197 123 CURVE SMOOTH"
);
}
);
width = 1000;
}
);
},
{
glyphname = u182A_1825.V1;
lastChange = "2019-09-24 14:05:55 +0000";
layers = (
{
layerId = UUID0;
paths = (
{
closed = 1;
nodes = (
"311 40 OFFCURVE",
"370 72 OFFCURVE",
"396 135 CURVE",
"424 71 OFFCURVE",
"474 40 OFFCURVE",
"538 40 CURVE SMOOTH",
"681 40 OFFCURVE",
"750 146 OFFCURVE",
"752 364 CURVE",
"963 364 LINE SMOOTH",
"1034 364 OFFCURVE",
"1061 333 OFFCURVE",
"1061 279 CURVE SMOOTH",
"1061 236 OFFCURVE",
"1054 197 OFFCURVE",
"1039 162 CURVE",
"1113 162 LINE",
"1130 198 OFFCURVE",
"1138 237 OFFCURVE",
"1138 279 CURVE SMOOTH",
"1138 389 OFFCURVE",
"1080 444 OFFCURVE",
"963 444 CURVE SMOOTH",
"748 444 LINE",
"726 652 OFFCURVE",
"598 782 OFFCURVE",
"405 782 CURVE SMOOTH",
"178 782 OFFCURVE",
"45 617 OFFCURVE",
"45 375 CURVE SMOOTH",
"45 155 OFFCURVE",
"107 40 OFFCURVE",
"249 40 CURVE SMOOTH"
);
},
{
closed = 1;
nodes = (
"144 123 OFFCURVE",
"124 222 OFFCURVE",
"124 364 CURVE",
"359 364 LINE",
"359 282 LINE SMOOTH",
"359 191 OFFCURVE",
"322 123 OFFCURVE",
"248 123 CURVE SMOOTH"
);
},
{
closed = 1;
nodes = (
"471 123 OFFCURVE",
"438 177 OFFCURVE",
"438 286 CURVE SMOOTH",
"438 364 LINE",
"673 364 LINE",
"668 188 OFFCURVE",
"638 123 OFFCURVE",
"538 123 CURVE SMOOTH"
);
},
{
closed = 1;
nodes = (
"145 605 OFFCURVE",
"236 699 OFFCURVE",
"405 699 CURVE SMOOTH",
"556 699 OFFCURVE",
"647 596 OFFCURVE",
"668 444 CURVE",
"127 444 LINE"
);
}
);
width = 1183;
}
);
},
{
glyphname = u182C_1825;
lastChange = "2019-09-24 14:05:55 +0000";
layers = (
{
layerId = UUID0;
paths = (
{
closed = 1;
nodes = (
"621 40 OFFCURVE",
"704 144 OFFCURVE",
"704 303 CURVE SMOOTH",
"704 324 OFFCURVE",
"704 344 OFFCURVE",
"702 364 CURVE",
"915 364 LINE SMOOTH",
"985 364 OFFCURVE",
"1013 333 OFFCURVE",
"1013 279 CURVE SMOOTH",
"1013 236 OFFCURVE",
"1006 197 OFFCURVE",
"991 162 CURVE",
"1065 162 LINE",
"1082 197 OFFCURVE",
"1090 236 OFFCURVE",
"1090 279 CURVE SMOOTH",
"1090 389 OFFCURVE",
"1032 444 OFFCURVE",
"915 444 CURVE SMOOTH",
"693 444 LINE",
"658 649 OFFCURVE",
"545 760 OFFCURVE",
"365 760 CURVE SMOOTH",
"170 760 OFFCURVE",
"45 616 OFFCURVE",
"45 408 CURVE SMOOTH",
"45 290 OFFCURVE",
"86 152 OFFCURVE",
"146 42 CURVE",
"219 73 LINE",
"152 198 OFFCURVE",
"124 313 OFFCURVE",
"124 405 CURVE SMOOTH",
"124 567 OFFCURVE",
"211 677 OFFCURVE",
"365 677 CURVE SMOOTH",
"503 677 OFFCURVE",
"586 599 OFFCURVE",
"614 444 CURVE",
"347 444 LINE",
"323 397 OFFCURVE",
"309 330 OFFCURVE",
"309 275 CURVE SMOOTH",
"309 131 OFFCURVE",
"377 40 OFFCURVE",
"510 40 CURVE SMOOTH"
);
},
{
closed = 1;
nodes = (
"426 123 OFFCURVE",
"388 174 OFFCURVE",
"388 275 CURVE SMOOTH",
"388 311 OFFCURVE",
"394 341 OFFCURVE",
"404 364 CURVE",
"623 364 LINE",
"625 344 OFFCURVE",
"625 324 OFFCURVE",
"625 303 CURVE SMOOTH",
"625 204 OFFCURVE",
"586 123 OFFCURVE",
"502 123 CURVE SMOOTH"
);
}
);
width = 1135;
}
);
},
{
glyphname = u1853.fin;
lastChange = "2019-09-24 14:05:55 +0000";
layers = (
{
layerId = UUID0;
paths = (
{
closed = 1;
nodes = (
"356 -89 LINE",
"310 -54 OFFCURVE",
"251 -50 OFFCURVE",
"176 -50 CURVE SMOOTH",
"155 -50 LINE SMOOTH",
"99 -50 OFFCURVE",
"71 -25 OFFCURVE",
"71 12 CURVE SMOOTH",
"71 68 OFFCURVE",
"117 81 OFFCURVE",
"180 81 CURVE SMOOTH",
"356 81 LINE",
"356 142 LINE",
"329 217 OFFCURVE",
"315 291 OFFCURVE",
"315 364 CURVE",
"560 364 LINE SMOOTH",
"630 364 OFFCURVE",
"658 333 OFFCURVE",
"658 279 CURVE SMOOTH",
"658 236 OFFCURVE",
"651 197 OFFCURVE",
"636 162 CURVE",
"710 162 LINE",
"727 197 OFFCURVE",
"735 236 OFFCURVE",
"735 279 CURVE SMOOTH",
"735 389 OFFCURVE",
"677 444 OFFCURVE",
"560 444 CURVE SMOOTH",
"0 444 LINE",
"0 364 LINE",
"241 364 LINE",
"241 289 OFFCURVE",
"250 221 OFFCURVE",
"269 161 CURVE",
"180 161 LINE SMOOTH",
"60 161 OFFCURVE",
"0 108 OFFCURVE",
"0 12 CURVE SMOOTH",
"0 -80 OFFCURVE",
"51 -130 OFFCURVE",
"155 -130 CURVE SMOOTH",
"176 -130 LINE SMOOTH",
"250 -130 OFFCURVE",
"301 -134 OFFCURVE",
"356 -176 CURVE"
);
}
);
width = 780;
}
);
},
{
glyphname = u182A_182F.ini;
lastChange = "2019-09-24 14:05:55 +0000";
layers = (
{
layerId = UUID0;
paths = (
{
closed = 1;
nodes = (
"377 40 OFFCURVE",
"451 138 OFFCURVE",
"451 275 CURVE SMOOTH",
"451 312 OFFCURVE",
"440 410 OFFCURVE",
"428 444 CURVE",
"124 444 LINE",
"126 578 OFFCURVE",
"213 659 OFFCURVE",
"348 659 CURVE SMOOTH",
"487 659 OFFCURVE",
"565 559 OFFCURVE",
"579 364 CURVE SMOOTH",
"598 96 LINE",
"664 96 LINE",
"683 364 LINE",
"893 364 LINE",
"893 444 LINE",
"652 444 LINE",
"640 510 OFFCURVE",
"621 565 OFFCURVE",
"593 611 CURVE",
"596 695 OFFCURVE",
"624 767 OFFCURVE",
"675 848 CURVE",
"675 914 LINE",
"555 914 LINE SMOOTH",
"475 914 OFFCURVE",
"423 917 OFFCURVE",
"375 950 CURVE",
"375 872 LINE",
"415 837 OFFCURVE",
"478 834 OFFCURVE",
"555 834 CURVE SMOOTH",
"583 834 LINE",
"557 787 OFFCURVE",
"539 736 OFFCURVE",
"530 683 CURVE",
"482 723 OFFCURVE",
"422 742 OFFCURVE",
"348 742 CURVE SMOOTH",
"155 742 OFFCURVE",
"45 615 OFFCURVE",
"45 408 CURVE SMOOTH",
"45 161 OFFCURVE",
"120 40 OFFCURVE",
"271 40 CURVE SMOOTH"
);
},
{
closed = 1;
nodes = (
"173 123 OFFCURVE",
"126 203 OFFCURVE",
"124 364 CURVE",
"362 364 LINE",
"369 345 OFFCURVE",
"372 315 OFFCURVE",
"372 275 CURVE SMOOTH",
"372 190 OFFCURVE",
"337 123 OFFCURVE",
"264 123 CURVE SMOOTH"
);
}
);
width = 863;
}
);
},
{
glyphname = u182E.med;
lastChange = "2019-09-24 14:05:55 +0000";
layers = (
{
layerId = UUID0;
paths = (
{
closed = 1;
nodes = (
"85 96 LINE",
"104 364 LINE",
"314 364 LINE",
"314 444 LINE",
"84 444 LINE",
"81 519 OFFCURVE",
"71 583 OFFCURVE",
"54 639 CURVE",
"90 639 LINE SMOOTH",
"170 639 OFFCURVE",
"226 641 OFFCURVE",
"269 677 CURVE",
"269 754 LINE",
"217 723 OFFCURVE",
"165 719 OFFCURVE",
"90 719 CURVE SMOOTH",
"-31 719 LINE",
"-31 653 LINE",
"0 581 OFFCURVE",
"12 518 OFFCURVE",
"14 444 CURVE",
"0 444 LINE",
"0 364 LINE",
"19 96 LINE"
);
}
);
width = 284;
}
);
},
{
glyphname = u182E_182E.med;
lastChange = "2019-09-24 14:05:55 +0000";
layers = (
{
layerId = UUID0;
paths = (
{
closed = 1;
nodes = (
"85 96 LINE",
"104 364 LINE",
"284 364 LINE",
"303 96 LINE",
"369 96 LINE",
"388 364 LINE",
"598 364 LINE",
"598 444 LINE",
"368 444 LINE",
"367 500 OFFCURVE",
"363 548 OFFCURVE",
"359 589 CURVE",
"374 589 LINE SMOOTH",
"456 589 OFFCURVE",
"508 590 OFFCURVE",
"553 627 CURVE",
"553 705 LINE",
"502 671 OFFCURVE",
"452 669 OFFCURVE",
"374 669 CURVE SMOOTH",
"279 669 LINE",
"279 603 LINE",
"290 557 OFFCURVE",
"296 504 OFFCURVE",
"298 444 CURVE",
"84 444 LINE",
"83 527 OFFCURVE",
"73 606 OFFCURVE",
"54 679 CURVE",
"100 679 LINE SMOOTH",
"140 679 OFFCURVE",
"179 681 OFFCURVE",
"209 700 CURVE",
"209 778 LINE",
"189 765 OFFCURVE",
"152 759 OFFCURVE",
"100 759 CURVE SMOOTH",
"-31 759 LINE",
"-31 693 LINE",
"-3 618 OFFCURVE",
"12 535 OFFCURVE",
"14 444 CURVE",
"0 444 LINE",
"0 364 LINE",
"19 96 LINE"
);
}
);
width = 568;
}
);
},
{
glyphname = u182E_182F.med;
lastChange = "2019-09-24 14:05:55 +0000";
layers = (
{
layerId = UUID0;
paths = (
{
closed = 1;
nodes = (
"85 96 LINE",
"104 364 LINE",
"284 364 LINE",
"303 96 LINE",
"369 96 LINE",
"388 364 LINE",
"598 364 LINE",
"598 444 LINE",
"376 444 LINE",
"378 532 OFFCURVE",
"403 609 OFFCURVE",
"452 693 CURVE",
"452 759 LINE",
"342 759 LINE SMOOTH",
"296 759 OFFCURVE",
"254 760 OFFCURVE",
"222 781 CURVE",
"222 703 LINE",
"249 681 OFFCURVE",
"292 679 OFFCURVE",
"342 679 CURVE SMOOTH",
"366 679 LINE",
"329 610 OFFCURVE",
"309 532 OFFCURVE",
"306 444 CURVE",
"84 444 LINE",
"81 503 OFFCURVE",
"67 555 OFFCURVE",
"41 599 CURVE",
"63 599 LINE SMOOTH",
"118 599 OFFCURVE",
"143 603 OFFCURVE",
"162 615 CURVE",
"162 693 LINE",
"136 680 OFFCURVE",
"104 679 OFFCURVE",
"63 679 CURVE SMOOTH",
"-51 679 LINE",
"-51 613 LINE",
"-8 553 OFFCURVE",
"11 502 OFFCURVE",
"13 444 CURVE",
"0 444 LINE",
"0 364 LINE",
"19 96 LINE"
);
}
);
width = 568;
}
);
},
{
glyphname = u1830.finV2;
lastChange = "2019-09-24 14:05:55 +0000";
layers = (
{
layerId = UUID0;
paths = (
{
closed = 1;
nodes = (
"105 73 LINE",
"97 106 OFFCURVE",
"93 148 OFFCURVE",
"93 199 CURVE SMOOTH",
"93 350 OFFCURVE",
"123 481 OFFCURVE",
"197 617 CURVE",
"201 617 LINE",
"217 419 OFFCURVE",
"256 247 OFFCURVE",
"334 73 CURVE",
"419 73 LINE",
"373 168 OFFCURVE",
"337 265 OFFCURVE",
"313 364 CURVE",
"611 364 LINE SMOOTH",
"682 364 OFFCURVE",
"709 333 OFFCURVE",
"709 279 CURVE SMOOTH",
"709 235 OFFCURVE",
"702 196 OFFCURVE",
"687 162 CURVE",
"761 162 LINE",
"778 199 OFFCURVE",
"786 238 OFFCURVE",
"786 279 CURVE SMOOTH",
"786 389 OFFCURVE",
"728 444 OFFCURVE",
"611 444 CURVE SMOOTH",
"296 444 LINE",
"279 539 OFFCURVE",
"271 636 OFFCURVE",
"271 734 CURVE",
"190 734 LINE",
"125 645 OFFCURVE",
"79 548 OFFCURVE",
"50 444 CURVE",
"0 444 LINE",
"0 364 LINE SMOOTH",
"0 276 OFFCURVE",
"11 159 OFFCURVE",
"28 73 CURVE"
);
}
);
width = 831;
}
);
},
{
glyphname = u182F_182F.med;
lastChange = "2019-09-24 14:05:55 +0000";
layers = (
{
layerId = UUID0;
paths = (
{
closed = 1;
nodes = (
"85 96 LINE",
"104 364 LINE",
"304 364 LINE",
"323 96 LINE",
"389 96 LINE",
"408 364 LINE",
"618 364 LINE",
"618 444 LINE",
"390 444 LINE",
"392 527 OFFCURVE",
"408 610 OFFCURVE",
"441 693 CURVE",
"441 759 LINE",
"338 759 LINE SMOOTH",
"281 759 OFFCURVE",
"241 760 OFFCURVE",
"209 785 CURVE",
"209 707 LINE",
"240 683 OFFCURVE",
"286 679 OFFCURVE",
"338 679 CURVE SMOOTH",
"356 679 LINE",
"333 607 OFFCURVE",
"321 529 OFFCURVE",
"320 444 CURVE",
"86 444 LINE",
"87 492 OFFCURVE",
"97 545 OFFCURVE",
"117 603 CURVE",
"117 669 LINE",
"26 669 LINE SMOOTH",
"-50 669 OFFCURVE",
"-108 672 OFFCURVE",
"-153 705 CURVE",
"-153 627 LINE",
"-113 592 OFFCURVE",
"-51 589 OFFCURVE",
"26 589 CURVE SMOOTH",
"32 589 LINE",
"23 546 OFFCURVE",
"18 498 OFFCURVE",
"16 444 CURVE",
"0 444 LINE",
"0 364 LINE",
"19 96 LINE"
);
}
);
width = 588;
}
);
},
{
glyphname = u1833.finV1;
lastChange = "2019-09-24 14:05:55 +0000";
layers = (
{
layerId = UUID0;
paths = (
{
closed = 1;
nodes = (
"419 -157 OFFCURVE",
"491 -83 OFFCURVE",
"491 27 CURVE SMOOTH",
"491 152 OFFCURVE",
"414 232 OFFCURVE",
"290 232 CURVE SMOOTH",
"228 232 OFFCURVE",
"174 201 OFFCURVE",
"142 154 CURVE",
"117 225 OFFCURVE",
"96 295 OFFCURVE",
"79 364 CURVE",
"643 364 LINE SMOOTH",
"713 364 OFFCURVE",
"741 333 OFFCURVE",
"741 279 CURVE SMOOTH",
"741 236 OFFCURVE",
"734 197 OFFCURVE",
"719 162 CURVE",
"793 162 LINE",
"810 197 OFFCURVE",
"818 236 OFFCURVE",
"818 279 CURVE SMOOTH",
"818 389 OFFCURVE",
"760 444 OFFCURVE",
"643 444 CURVE SMOOTH",
"0 444 LINE",
"0 364 LINE",
"23 266 OFFCURVE",
"50 174 OFFCURVE",
"84 88 CURVE SMOOTH",
"141 -55 OFFCURVE",
"201 -157 OFFCURVE",
"319 -157 CURVE SMOOTH"
);
},
{
closed = 1;
nodes = (
"263 -77 OFFCURVE",
"217 -33 OFFCURVE",
"172 76 CURVE",
"195 123 OFFCURVE",
"239 153 OFFCURVE",
"290 153 CURVE SMOOTH",
"373 153 OFFCURVE",
"413 103 OFFCURVE",
"413 27 CURVE SMOOTH",
"413 -38 OFFCURVE",
"375 -77 OFFCURVE",
"319 -77 CURVE SMOOTH"
);
}
);
width = 863;
}
);
},
{
glyphname = u182D_182F.med;
lastChange = "2019-09-24 14:05:55 +0000";
layers = (
{
layerId = UUID0;
paths = (
{
closed = 1;
nodes = (
"197 85 LINE",
"118 199 OFFCURVE",
"76 295 OFFCURVE",
"76 417 CURVE SMOOTH",
"76 571 OFFCURVE",
"134 644 OFFCURVE",
"226 644 CURVE SMOOTH",
"344 644 OFFCURVE",
"370 534 OFFCURVE",
"382 364 CURVE SMOOTH",
"401 96 LINE",
"467 96 LINE",
"486 364 LINE",
"696 364 LINE",
"696 444 LINE",
"455 444 LINE",
"447 507 OFFCURVE",
"433 561 OFFCURVE",
"414 605 CURVE",
"414 691 OFFCURVE",
"441 766 OFFCURVE",
"496 848 CURVE",
"496 914 LINE",
"376 914 LINE SMOOTH",
"300 914 OFFCURVE",
"244 917 OFFCURVE",
"196 950 CURVE",
"196 872 LINE",
"237 836 OFFCURVE",
"299 834 OFFCURVE",
"376 834 CURVE SMOOTH",
"404 834 LINE",
"378 791 OFFCURVE",
"361 742 OFFCURVE",
"351 688 CURVE",
"317 714 OFFCURVE",
"276 727 OFFCURVE",
"226 727 CURVE SMOOTH",
"88 727 OFFCURVE",
"-3 608 OFFCURVE",
"-3 417 CURVE SMOOTH",
"-3 299 OFFCURVE",
"40 174 OFFCURVE",
"126 42 CURVE"
);
}
);
width = 666;
}
);
},
{
glyphname = u182A_1822;
lastChange = "2019-09-24 14:05:55 +0000";
layers = (
{
layerId = UUID0;
paths = (
{
closed = 1;
nodes = (
"802 -31 LINE",
"722 113 OFFCURVE",
"668 238 OFFCURVE",
"642 364 CURVE",
"947 364 LINE SMOOTH",
"1018 364 OFFCURVE",
"1045 333 OFFCURVE",
"1045 279 CURVE SMOOTH",
"1045 235 OFFCURVE",
"1038 196 OFFCURVE",
"1023 162 CURVE",
"1097 162 LINE",
"1114 199 OFFCURVE",
"1122 238 OFFCURVE",
"1122 279 CURVE SMOOTH",
"1122 389 OFFCURVE",
"1063 444 OFFCURVE",
"947 444 CURVE SMOOTH",
"627 444 LINE",
"589 650 OFFCURVE",
"514 782 OFFCURVE",
"330 782 CURVE SMOOTH",
"138 782 OFFCURVE",
"45 624 OFFCURVE",
"45 408 CURVE SMOOTH",
"45 161 OFFCURVE",
"119 40 OFFCURVE",
"270 40 CURVE SMOOTH",
"375 40 OFFCURVE",
"451 137 OFFCURVE",
"451 275 CURVE SMOOTH",
"451 312 OFFCURVE",
"440 410 OFFCURVE",
"428 444 CURVE",
"124 444 LINE",
"126 588 OFFCURVE",
"194 699 OFFCURVE",
"330 699 CURVE SMOOTH",
"469 699 OFFCURVE",
"523 589 OFFCURVE",
"552 418 CURVE SMOOTH",
"566 334 OFFCURVE",
"585 259 OFFCURVE",
"609 192 CURVE SMOOTH",
"633 125 OFFCURVE",
"674 39 OFFCURVE",
"729 -67 CURVE"
);
},
{
closed = 1;
nodes = (
"173 123 OFFCURVE",
"126 203 OFFCURVE",
"124 364 CURVE",
"362 364 LINE",
"369 345 OFFCURVE",
"372 315 OFFCURVE",
"372 275 CURVE SMOOTH",
"372 190 OFFCURVE",
"337 123 OFFCURVE",
"264 123 CURVE SMOOTH"
);
}
);
width = 1167;
}
);
},
{
glyphname = u1838.fin;
lastChange = "2019-09-24 14:05:55 +0000";
layers = (
{
layerId = UUID0;
paths = (
{
closed = 1;
nodes = (
"346 -119 OFFCURVE",
"377 -106 OFFCURVE",
"392 -85 CURVE",
"392 6 LINE",
"373 -22 OFFCURVE",
"345 -36 OFFCURVE",
"309 -36 CURVE SMOOTH",
"244 -36 OFFCURVE",
"202 49 OFFCURVE",
"156 152 CURVE SMOOTH",
"124 224 OFFCURVE",
"99 294 OFFCURVE",
"79 364 CURVE",
"488 364 LINE SMOOTH",
"559 364 OFFCURVE",
"586 333 OFFCURVE",
"586 279 CURVE SMOOTH",
"586 235 OFFCURVE",
"579 196 OFFCURVE",
"564 162 CURVE",
"638 162 LINE",
"655 199 OFFCURVE",
"663 238 OFFCURVE",
"663 279 CURVE SMOOTH",
"663 389 OFFCURVE",
"604 444 OFFCURVE",
"488 444 CURVE SMOOTH",
"0 444 LINE",
"0 364 LINE",
"20 292 OFFCURVE",
"42 223 OFFCURVE",
"68 157 CURVE SMOOTH",
"132 -6 OFFCURVE",
"187 -119 OFFCURVE",
"309 -119 CURVE SMOOTH"
);
}
);
width = 708;
}
);
},
{
export = 0;
glyphname = MongolianRing;
lastChange = "2019-09-24 14:05:55 +0000";
layers = (
{
layerId = UUID0;
paths = (
{
closed = 1;
nodes = (
"225 -211 OFFCURVE",
"277 -157 OFFCURVE",
"277 -92 CURVE SMOOTH",
"277 -25 OFFCURVE",
"223 27 OFFCURVE",
"158 27 CURVE SMOOTH",
"91 27 OFFCURVE",
"39 -27 OFFCURVE",
"39 -92 CURVE SMOOTH",
"39 -159 OFFCURVE",
"93 -211 OFFCURVE",
"158 -211 CURVE SMOOTH"
);
},
{
closed = 1;
nodes = (
"122 -161 OFFCURVE",
"90 -135 OFFCURVE",
"90 -92 CURVE SMOOTH",
"90 -52 OFFCURVE",
"119 -24 OFFCURVE",
"158 -24 CURVE SMOOTH",
"198 -24 OFFCURVE",
"227 -54 OFFCURVE",
"227 -92 CURVE SMOOTH",
"227 -131 OFFCURVE",
"197 -161 OFFCURVE",
"158 -161 CURVE SMOOTH"
);
}
);
width = 317;
}
);
},
{
glyphname = u182A.ini;
lastChange = "2019-09-24 14:05:55 +0000";
layers = (
{
layerId = UUID0;
paths = (
{
closed = 1;
nodes = (
"376 40 OFFCURVE",
"451 138 OFFCURVE",
"451 275 CURVE SMOOTH",
"451 312 OFFCURVE",
"440 410 OFFCURVE",
"428 444 CURVE",
"124 444 LINE",
"126 590 OFFCURVE",
"198 699 OFFCURVE",
"335 699 CURVE SMOOTH",
"467 699 OFFCURVE",
"552 576 OFFCURVE",
"557 364 CURVE",
"631 364 LINE",
"631 586 OFFCURVE",
"531 782 OFFCURVE",
"335 782 CURVE SMOOTH",
"141 782 OFFCURVE",
"45 624 OFFCURVE",
"45 408 CURVE SMOOTH",
"45 162 OFFCURVE",
"118 40 OFFCURVE",
"273 40 CURVE SMOOTH"
);
},
{
closed = 1;
nodes = (
"173 123 OFFCURVE",
"126 203 OFFCURVE",
"124 364 CURVE",
"362 364 LINE",
"369 345 OFFCURVE",
"372 315 OFFCURVE",
"372 275 CURVE SMOOTH",
"372 190 OFFCURVE",
"337 123 OFFCURVE",
"264 123 CURVE SMOOTH"
);
}
);
width = 557;
}
);
},
{
glyphname = u1844.med;
lastChange = "2019-09-24 14:05:55 +0000";
layers = (
{
layerId = UUID0;
paths = (
{
closed = 1;
nodes = (
"362 92 LINE",
"344 108 OFFCURVE",
"306 119 OFFCURVE",
"257 119 CURVE SMOOTH",
"216 119 LINE SMOOTH",
"125 119 OFFCURVE",
"79 167 OFFCURVE",
"79 263 CURVE SMOOTH",
"79 364 LINE",
"514 364 LINE",
"514 444 LINE",
"0 444 LINE",
"0 263 LINE SMOOTH",
"0 109 OFFCURVE",
"77 36 OFFCURVE",
"216 36 CURVE SMOOTH",
"257 36 LINE SMOOTH",
"307 36 OFFCURVE",
"342 27 OFFCURVE",
"362 9 CURVE"
);
}
);
width = 484;
}
);
},
{
glyphname = u1845.medV1;
lastChange = "2019-09-24 14:05:55 +0000";
layers = (
{
layerId = UUID0;
paths = (
{
closed = 1;
nodes = (
"706 92 LINE",
"685 110 OFFCURVE",
"650 119 OFFCURVE",
"601 119 CURVE SMOOTH",
"572 119 LINE",
"572 364 LINE",
"858 364 LINE",
"858 444 LINE",
"493 444 LINE",
"493 119 LINE",
"460 119 LINE SMOOTH",
"395 119 OFFCURVE",
"363 154 OFFCURVE",
"363 223 CURVE SMOOTH",
"363 444 LINE",
"0 444 LINE",
"0 364 LINE",
"19 96 LINE",
"85 96 LINE",
"104 364 LINE",
"284 364 LINE",
"284 223 LINE SMOOTH",
"284 99 OFFCURVE",
"343 36 OFFCURVE",
"460 36 CURVE SMOOTH",
"601 36 LINE SMOOTH",
"651 36 OFFCURVE",
"686 27 OFFCURVE",
"706 9 CURVE"
);
}
);
width = 828;
}
);
},
{
glyphname = u1845.fin;
lastChange = "2019-09-24 14:05:55 +0000";
layers = (
{
layerId = UUID0;
paths = (
{
closed = 1;
nodes = (
"341 168 OFFCURVE",
"369 257 OFFCURVE",
"369 373 CURVE SMOOTH",
"369 586 OFFCURVE",
"224 714 OFFCURVE",
"0 714 CURVE",
"0 96 LINE",
"79 96 LINE",
"79 629 LINE",
"216 605 OFFCURVE",
"290 516 OFFCURVE",
"290 373 CURVE SMOOTH",
"290 275 OFFCURVE",
"265 203 OFFCURVE",
"209 133 CURVE",
"278 87 LINE"
);
}
);
width = 414;
}
);
},
{
glyphname = u1845;
lastChange = "2019-09-24 14:05:55 +0000";
layers = (
{
layerId = UUID0;
paths = (
{
closed = 1;
nodes = (
"292 74 LINE",
"302 219 LINE SMOOTH",
"310 330 OFFCURVE",
"336 364 OFFCURVE",
"445 364 CURVE SMOOTH",
"492 364 LINE",
"492 96 LINE",
"571 96 LINE",
"571 629 LINE",
"710 604 OFFCURVE",
"782 514 OFFCURVE",
"782 373 CURVE SMOOTH",
"782 275 OFFCURVE",
"757 203 OFFCURVE",
"701 133 CURVE",
"770 87 LINE",
"833 168 OFFCURVE",
"861 257 OFFCURVE",
"861 373 CURVE SMOOTH",
"861 586 OFFCURVE",
"716 714 OFFCURVE",
"492 714 CURVE",
"492 444 LINE",
"444 444 LINE SMOOTH",
"360 444 OFFCURVE",
"307 416 OFFCURVE",
"285 361 CURVE",
"281 361 LINE",
"278 445 LINE SMOOTH",
"273 575 OFFCURVE",
"248 653 OFFCURVE",
"139 653 CURVE SMOOTH",
"100 653 OFFCURVE",
"57 643 OFFCURVE",
"10 623 CURVE",
"10 550 LINE",
"52 567 OFFCURVE",
"88 575 OFFCURVE",
"118 575 CURVE SMOOTH",
"179 575 OFFCURVE",
"194 520 OFFCURVE",
"200 437 CURVE SMOOTH",
"226 74 LINE"
);
}
);
width = 906;
}
);
unicode = 1845;
},
{
glyphname = u1844.fin;
lastChange = "2019-09-24 14:05:55 +0000";
layers = (
{
layerId = UUID0;
paths = (
{
closed = 1;
nodes = (
"362 92 LINE",
"344 108 OFFCURVE",
"306 119 OFFCURVE",
"257 119 CURVE SMOOTH",
"216 119 LINE SMOOTH",
"125 119 OFFCURVE",
"79 167 OFFCURVE",
"79 263 CURVE SMOOTH",
"79 364 LINE",
"362 364 LINE",
"362 444 LINE",
"0 444 LINE",
"0 263 LINE SMOOTH",
"0 109 OFFCURVE",
"77 36 OFFCURVE",
"216 36 CURVE SMOOTH",
"257 36 LINE SMOOTH",
"307 36 OFFCURVE",
"342 27 OFFCURVE",
"362 9 CURVE"
);
}
);
width = 407;
}
);
},
{
glyphname = u1844.medV1;
lastChange = "2019-09-24 14:05:55 +0000";
layers = (
{
layerId = UUID0;
paths = (
{
closed = 1;
nodes = (
"646 92 LINE",
"625 110 OFFCURVE",
"590 119 OFFCURVE",
"541 119 CURVE SMOOTH",
"500 119 LINE SMOOTH",
"409 119 OFFCURVE",
"363 167 OFFCURVE",
"363 263 CURVE SMOOTH",
"363 364 LINE",
"798 364 LINE",
"798 444 LINE",
"0 444 LINE",
"0 364 LINE",
"19 96 LINE",
"85 96 LINE",
"104 364 LINE",
"284 364 LINE",
"284 263 LINE SMOOTH",
"284 109 OFFCURVE",
"361 36 OFFCURVE",
"500 36 CURVE SMOOTH",
"541 36 LINE SMOOTH",
"591 36 OFFCURVE",
"626 27 OFFCURVE",
"646 9 CURVE"
);
}
);
width = 768;
}
);
},
{
glyphname = u1845.ini;
lastChange = "2019-09-24 14:05:55 +0000";
layers = (
{
layerId = UUID0;
paths = (
{
closed = 1;
nodes = (
"914 92 LINE",
"893 110 OFFCURVE",
"858 119 OFFCURVE",
"809 119 CURVE SMOOTH",
"780 119 LINE",
"780 364 LINE",
"1066 364 LINE",
"1066 444 LINE",
"701 444 LINE",
"701 119 LINE",
"668 119 LINE SMOOTH",
"603 119 OFFCURVE",
"571 154 OFFCURVE",
"571 223 CURVE SMOOTH",
"571 444 LINE",
"444 444 LINE SMOOTH",
"360 444 OFFCURVE",
"307 416 OFFCURVE",
"285 361 CURVE",
"281 361 LINE",
"278 445 LINE SMOOTH",
"273 575 OFFCURVE",
"248 653 OFFCURVE",
"139 653 CURVE SMOOTH",
"100 653 OFFCURVE",
"57 643 OFFCURVE",
"10 623 CURVE",
"10 550 LINE",
"52 567 OFFCURVE",
"88 575 OFFCURVE",
"118 575 CURVE SMOOTH",
"180 575 OFFCURVE",
"194 520 OFFCURVE",
"200 437 CURVE SMOOTH",
"226 74 LINE",
"292 74 LINE",
"302 219 LINE SMOOTH",
"309 326 OFFCURVE",
"335 364 OFFCURVE",
"445 364 CURVE SMOOTH",
"492 364 LINE",
"492 223 LINE SMOOTH",
"492 99 OFFCURVE",
"551 36 OFFCURVE",
"668 36 CURVE SMOOTH",
"809 36 LINE SMOOTH",
"859 36 OFFCURVE",
"894 27 OFFCURVE",
"914 9 CURVE"
);
}
);
width = 1036;
}
);
},
{
glyphname = u1844.ini;
lastChange = "2019-09-24 14:05:55 +0000";
layers = (
{
layerId = UUID0;
paths = (
{
closed = 1;
nodes = (
"854 92 LINE",
"833 110 OFFCURVE",
"798 119 OFFCURVE",
"749 119 CURVE SMOOTH",
"708 119 LINE SMOOTH",
"617 119 OFFCURVE",
"571 167 OFFCURVE",
"571 263 CURVE SMOOTH",
"571 364 LINE",
"1006 364 LINE",
"1006 444 LINE",
"444 444 LINE SMOOTH",
"360 444 OFFCURVE",
"307 416 OFFCURVE",
"285 361 CURVE",
"281 361 LINE",
"278 445 LINE SMOOTH",
"273 575 OFFCURVE",
"248 653 OFFCURVE",
"139 653 CURVE SMOOTH",
"100 653 OFFCURVE",
"57 643 OFFCURVE",
"10 623 CURVE",
"10 550 LINE",
"52 567 OFFCURVE",
"88 575 OFFCURVE",
"118 575 CURVE SMOOTH",
"179 575 OFFCURVE",
"194 520 OFFCURVE",
"200 437 CURVE SMOOTH",
"226 74 LINE",
"292 74 LINE",
"302 219 LINE SMOOTH",
"309 326 OFFCURVE",
"335 364 OFFCURVE",
"445 364 CURVE SMOOTH",
"492 364 LINE",
"492 263 LINE SMOOTH",
"492 109 OFFCURVE",
"569 36 OFFCURVE",
"708 36 CURVE SMOOTH",
"749 36 LINE SMOOTH",
"799 36 OFFCURVE",
"834 27 OFFCURVE",
"854 9 CURVE"
);
}
);
width = 976;
}
);
},
{
glyphname = u1844;
lastChange = "2019-09-24 14:05:55 +0000";
layers = (
{
layerId = UUID0;
paths = (
{
closed = 1;
nodes = (
"854 92 LINE",
"833 110 OFFCURVE",
"798 119 OFFCURVE",
"749 119 CURVE SMOOTH",
"708 119 LINE SMOOTH",
"617 119 OFFCURVE",
"571 167 OFFCURVE",
"571 263 CURVE SMOOTH",
"571 364 LINE",
"854 364 LINE",
"854 444 LINE",
"444 444 LINE SMOOTH",
"360 444 OFFCURVE",
"307 416 OFFCURVE",
"285 361 CURVE",
"281 361 LINE",
"278 445 LINE SMOOTH",
"273 575 OFFCURVE",
"248 653 OFFCURVE",
"139 653 CURVE SMOOTH",
"100 653 OFFCURVE",
"57 643 OFFCURVE",
"10 623 CURVE",
"10 550 LINE",
"52 567 OFFCURVE",
"88 575 OFFCURVE",
"118 575 CURVE SMOOTH",
"179 575 OFFCURVE",
"194 520 OFFCURVE",
"200 437 CURVE SMOOTH",
"226 74 LINE",
"292 74 LINE",
"302 219 LINE SMOOTH",
"309 326 OFFCURVE",
"335 364 OFFCURVE",
"445 364 CURVE SMOOTH",
"492 364 LINE",
"492 263 LINE SMOOTH",
"492 109 OFFCURVE",
"569 36 OFFCURVE",
"708 36 CURVE SMOOTH",
"749 36 LINE SMOOTH",
"799 36 OFFCURVE",
"834 27 OFFCURVE",
"854 9 CURVE"
);
}
);
width = 899;
}
);
unicode = 1844;
},
{
glyphname = u1846.ini;
lastChange = "2019-09-24 14:05:55 +0000";
layers = (
{
layerId = UUID0;
paths = (
{
closed = 1;
nodes = (
"870 364 LINE",
"1082 364 LINE",
"1082 444 LINE",
"444 444 LINE SMOOTH",
"360 444 OFFCURVE",
"307 416 OFFCURVE",
"285 361 CURVE",
"281 361 LINE",
"278 445 LINE SMOOTH",
"273 575 OFFCURVE",
"248 653 OFFCURVE",
"139 653 CURVE SMOOTH",
"100 653 OFFCURVE",
"57 643 OFFCURVE",
"10 623 CURVE",
"10 550 LINE",
"52 567 OFFCURVE",
"88 575 OFFCURVE",
"118 575 CURVE SMOOTH",
"179 575 OFFCURVE",
"194 520 OFFCURVE",
"200 437 CURVE SMOOTH",
"226 74 LINE",
"292 74 LINE",
"302 219 LINE SMOOTH",
"309 326 OFFCURVE",
"335 364 OFFCURVE",
"445 364 CURVE SMOOTH",
"492 364 LINE",
"492 267 LINE SMOOTH",
"492 154 OFFCURVE",
"549 73 OFFCURVE",
"668 47 CURVE SMOOTH",
"870 3 LINE"
);
},
{
closed = 1;
nodes = (
"690 127 LINE SMOOTH",
"610 145 OFFCURVE",
"571 196 OFFCURVE",
"571 267 CURVE SMOOTH",
"571 364 LINE",
"792 364 LINE",
"792 104 LINE"
);
}
);
width = 1052;
}
);
},
{
glyphname = u1846;
lastChange = "2019-09-24 14:05:55 +0000";
layers = (
{
layerId = UUID0;
paths = (
{
closed = 1;
nodes = (
"870 444 LINE",
"444 444 LINE SMOOTH",
"360 444 OFFCURVE",
"307 416 OFFCURVE",
"285 361 CURVE",
"281 361 LINE",
"278 445 LINE SMOOTH",
"273 575 OFFCURVE",
"248 653 OFFCURVE",
"139 653 CURVE SMOOTH",
"100 653 OFFCURVE",
"57 643 OFFCURVE",
"10 623 CURVE",
"10 550 LINE",
"52 567 OFFCURVE",
"88 575 OFFCURVE",
"118 575 CURVE SMOOTH",
"179 575 OFFCURVE",
"194 520 OFFCURVE",
"200 437 CURVE SMOOTH",
"226 74 LINE",
"292 74 LINE",
"302 219 LINE SMOOTH",
"310 330 OFFCURVE",
"336 364 OFFCURVE",
"445 364 CURVE SMOOTH",
"492 364 LINE",
"492 267 LINE SMOOTH",
"492 154 OFFCURVE",
"549 73 OFFCURVE",
"668 47 CURVE SMOOTH",
"870 3 LINE"
);
},
{
closed = 1;
nodes = (
"690 127 LINE SMOOTH",
"610 145 OFFCURVE",
"571 196 OFFCURVE",
"571 267 CURVE SMOOTH",
"571 364 LINE",
"792 364 LINE",
"792 104 LINE"
);
}
);
width = 915;
}
);
unicode = 1846;
},
{
glyphname = u1847;
lastChange = "2019-09-24 14:05:55 +0000";
layers = (
{
layerId = UUID0;
paths = (
{
closed = 1;
nodes = (
"863 -81 LINE",
"839 -39 OFFCURVE",
"815 7 OFFCURVE",
"792 58 CURVE",
"854 91 OFFCURVE",
"897 167 OFFCURVE",
"897 275 CURVE SMOOTH",
"897 321 OFFCURVE",
"887 404 OFFCURVE",
"874 444 CURVE",
"570 444 LINE",
"572 589 OFFCURVE",
"643 699 OFFCURVE",
"781 699 CURVE SMOOTH",
"920 699 OFFCURVE",
"991 566 OFFCURVE",
"1001 409 CURVE",
"1081 419 LINE",
"1070 610 OFFCURVE",
"963 782 OFFCURVE",
"781 782 CURVE SMOOTH",
"601 782 OFFCURVE",
"503 645 OFFCURVE",
"492 444 CURVE",
"444 444 LINE SMOOTH",
"360 444 OFFCURVE",
"307 416 OFFCURVE",
"285 361 CURVE",
"281 361 LINE",
"278 445 LINE SMOOTH",
"273 575 OFFCURVE",
"248 653 OFFCURVE",
"139 653 CURVE SMOOTH",
"100 653 OFFCURVE",
"57 643 OFFCURVE",
"10 623 CURVE",
"10 550 LINE",
"52 567 OFFCURVE",
"88 575 OFFCURVE",
"118 575 CURVE SMOOTH",
"179 575 OFFCURVE",
"194 520 OFFCURVE",
"200 437 CURVE SMOOTH",
"226 74 LINE",
"292 74 LINE",
"302 219 LINE SMOOTH",
"309 326 OFFCURVE",
"335 364 OFFCURVE",
"445 364 CURVE SMOOTH",
"491 364 LINE",
"501 144 OFFCURVE",
"573 43 OFFCURVE",
"712 40 CURVE",
"734 -10 OFFCURVE",
"761 -64 OFFCURVE",
"792 -121 CURVE"
);
},
{
closed = 1;
nodes = (
"620 123 OFFCURVE",
"573 203 OFFCURVE",
"570 364 CURVE",
"808 364 LINE",
"814 344 OFFCURVE",
"818 314 OFFCURVE",
"818 275 CURVE SMOOTH",
"818 190 OFFCURVE",
"783 123 OFFCURVE",
"710 123 CURVE SMOOTH"
);
}
);
width = 1126;
}
);
unicode = 1847;
},
{
glyphname = u1847.V1;
lastChange = "2019-09-24 14:05:55 +0000";
layers = (
{
layerId = UUID0;
paths = (
{
closed = 1;
nodes = (
"839 -81 LINE",
"813 -37 OFFCURVE",
"791 9 OFFCURVE",
"770 54 CURVE",
"842 81 OFFCURVE",
"887 145 OFFCURVE",
"887 249 CURVE SMOOTH",
"887 311 OFFCURVE",
"869 392 OFFCURVE",
"840 444 CURVE",
"444 444 LINE SMOOTH",
"360 444 OFFCURVE",
"307 416 OFFCURVE",
"285 361 CURVE",
"281 361 LINE",
"278 445 LINE SMOOTH",
"273 575 OFFCURVE",
"248 653 OFFCURVE",
"139 653 CURVE SMOOTH",
"100 653 OFFCURVE",
"57 643 OFFCURVE",
"10 623 CURVE",
"10 550 LINE",
"52 567 OFFCURVE",
"88 575 OFFCURVE",
"118 575 CURVE SMOOTH",
"179 575 OFFCURVE",
"194 520 OFFCURVE",
"200 437 CURVE SMOOTH",
"226 74 LINE",
"292 74 LINE",
"302 219 LINE SMOOTH",
"310 330 OFFCURVE",
"336 364 OFFCURVE",
"445 364 CURVE SMOOTH",
"512 364 LINE",
"499 333 OFFCURVE",
"492 294 OFFCURVE",
"492 249 CURVE SMOOTH",
"492 115 OFFCURVE",
"563 40 OFFCURVE",
"688 40 CURVE",
"710 -10 OFFCURVE",
"737 -64 OFFCURVE",
"768 -121 CURVE"
);
},
{
closed = 1;
nodes = (
"610 123 OFFCURVE",
"571 166 OFFCURVE",
"571 251 CURVE SMOOTH",
"571 294 OFFCURVE",
"578 332 OFFCURVE",
"591 364 CURVE",
"786 364 LINE",
"801 329 OFFCURVE",
"808 291 OFFCURVE",
"808 251 CURVE SMOOTH",
"808 166 OFFCURVE",
"763 123 OFFCURVE",
"689 123 CURVE SMOOTH"
);
}
);
width = 932;
}
);
},
{
glyphname = u1847.ini;
lastChange = "2019-09-24 14:05:55 +0000";
layers = (
{
layerId = UUID0;
paths = (
{
closed = 1;
nodes = (
"839 -81 LINE",
"813 -37 OFFCURVE",
"791 9 OFFCURVE",
"770 54 CURVE",
"842 81 OFFCURVE",
"887 145 OFFCURVE",
"887 249 CURVE SMOOTH",
"887 293 OFFCURVE",
"880 331 OFFCURVE",
"865 364 CURVE",
"1095 364 LINE",
"1095 444 LINE",
"444 444 LINE SMOOTH",
"360 444 OFFCURVE",
"307 416 OFFCURVE",
"285 361 CURVE",
"281 361 LINE",
"278 445 LINE SMOOTH",
"273 575 OFFCURVE",
"248 653 OFFCURVE",
"139 653 CURVE SMOOTH",
"100 653 OFFCURVE",
"57 643 OFFCURVE",
"10 623 CURVE",
"10 550 LINE",
"52 567 OFFCURVE",
"88 575 OFFCURVE",
"118 575 CURVE SMOOTH",
"179 575 OFFCURVE",
"194 520 OFFCURVE",
"200 437 CURVE SMOOTH",
"226 74 LINE",
"292 74 LINE",
"302 219 LINE SMOOTH",
"309 326 OFFCURVE",
"335 364 OFFCURVE",
"445 364 CURVE SMOOTH",
"512 364 LINE",
"499 333 OFFCURVE",
"492 294 OFFCURVE",
"492 249 CURVE SMOOTH",
"492 116 OFFCURVE",
"562 40 OFFCURVE",
"688 40 CURVE",
"710 -10 OFFCURVE",
"737 -64 OFFCURVE",
"768 -121 CURVE"
);
},
{
closed = 1;
nodes = (
"610 123 OFFCURVE",
"571 166 OFFCURVE",
"571 251 CURVE SMOOTH",
"571 294 OFFCURVE",
"578 332 OFFCURVE",
"591 364 CURVE",
"788 364 LINE",
"801 332 OFFCURVE",
"808 294 OFFCURVE",
"808 251 CURVE SMOOTH",
"808 166 OFFCURVE",
"763 123 OFFCURVE",
"689 123 CURVE SMOOTH"
);
}
);
width = 1065;
}
);
},
{
glyphname = u1847.med;
lastChange = "2019-09-24 14:05:55 +0000";
layers = (
{
layerId = UUID0;
paths = (
{
closed = 1;
nodes = (
"347 -81 LINE",
"319 -31 OFFCURVE",
"296 14 OFFCURVE",
"278 53 CURVE",
"351 80 OFFCURVE",
"395 151 OFFCURVE",
"395 249 CURVE SMOOTH",
"395 293 OFFCURVE",
"388 331 OFFCURVE",
"373 364 CURVE",
"603 364 LINE",
"603 444 LINE",
"0 444 LINE",
"0 364 LINE",
"20 364 LINE",
"7 333 OFFCURVE",
"0 294 OFFCURVE",
"0 249 CURVE SMOOTH",
"0 117 OFFCURVE",
"69 40 OFFCURVE",
"196 40 CURVE",
"220 -13 OFFCURVE",
"246 -66 OFFCURVE",
"276 -121 CURVE"
);
},
{
closed = 1;
nodes = (
"118 123 OFFCURVE",
"79 166 OFFCURVE",
"79 251 CURVE SMOOTH",
"79 295 OFFCURVE",
"86 333 OFFCURVE",
"99 364 CURVE",
"296 364 LINE",
"309 333 OFFCURVE",
"316 295 OFFCURVE",
"316 251 CURVE SMOOTH",
"316 166 OFFCURVE",
"271 123 OFFCURVE",
"197 123 CURVE SMOOTH"
);
}
);
width = 573;
}
);
},
{
glyphname = u1847.medV1;
lastChange = "2019-09-24 14:05:55 +0000";
layers = (
{
layerId = UUID0;
paths = (
{
closed = 1;
nodes = (
"631 -81 LINE",
"605 -37 OFFCURVE",
"583 9 OFFCURVE",
"562 54 CURVE",
"634 81 OFFCURVE",
"679 145 OFFCURVE",
"679 249 CURVE SMOOTH",
"679 293 OFFCURVE",
"672 331 OFFCURVE",
"657 364 CURVE",
"887 364 LINE",
"887 444 LINE",
"0 444 LINE",
"0 364 LINE",
"19 96 LINE",
"85 96 LINE",
"104 364 LINE",
"304 364 LINE",
"291 333 OFFCURVE",
"284 294 OFFCURVE",
"284 249 CURVE SMOOTH",
"284 116 OFFCURVE",
"354 40 OFFCURVE",
"480 40 CURVE",
"502 -10 OFFCURVE",
"529 -64 OFFCURVE",
"560 -121 CURVE"
);
},
{
closed = 1;
nodes = (
"402 123 OFFCURVE",
"363 166 OFFCURVE",
"363 251 CURVE SMOOTH",
"363 294 OFFCURVE",
"370 332 OFFCURVE",
"383 364 CURVE",
"580 364 LINE",
"593 332 OFFCURVE",
"600 294 OFFCURVE",
"600 251 CURVE SMOOTH",
"600 166 OFFCURVE",
"555 123 OFFCURVE",
"481 123 CURVE SMOOTH"
);
}
);
width = 857;
}
);
},
{
glyphname = u1847.fin;
lastChange = "2019-09-24 14:05:55 +0000";
layers = (
{
layerId = UUID0;
paths = (
{
closed = 1;
nodes = (
"371 -81 LINE",
"345 -36 OFFCURVE",
"322 10 OFFCURVE",
"300 58 CURVE",
"363 91 OFFCURVE",
"405 167 OFFCURVE",
"405 275 CURVE SMOOTH",
"405 316 OFFCURVE",
"395 403 OFFCURVE",
"382 444 CURVE",
"78 444 LINE",
"82 591 OFFCURVE",
"151 699 OFFCURVE",
"289 699 CURVE SMOOTH",
"427 699 OFFCURVE",
"496 572 OFFCURVE",
"509 409 CURVE",
"589 419 LINE",
"575 614 OFFCURVE",
"470 782 OFFCURVE",
"289 782 CURVE SMOOTH",
"95 782 OFFCURVE",
"-1 624 OFFCURVE",
"-1 408 CURVE SMOOTH",
"-1 168 OFFCURVE",
"68 43 OFFCURVE",
"220 40 CURVE",
"241 -8 OFFCURVE",
"267 -62 OFFCURVE",
"300 -121 CURVE"
);
},
{
closed = 1;
nodes = (
"127 123 OFFCURVE",
"81 203 OFFCURVE",
"78 364 CURVE",
"316 364 LINE",
"323 343 OFFCURVE",
"326 313 OFFCURVE",
"326 275 CURVE SMOOTH",
"326 190 OFFCURVE",
"291 123 OFFCURVE",
"218 123 CURVE SMOOTH"
);
}
);
width = 634;
}
);
},
{
glyphname = u1848;
lastChange = "2019-09-24 14:05:55 +0000";
layers = (
{
layerId = UUID0;
paths = (
{
closed = 1;
nodes = (
"870 444 LINE",
"631 444 LINE",
"601 518 OFFCURVE",
"567 590 OFFCURVE",
"528 661 CURVE",
"457 621 LINE",
"490 559 OFFCURVE",
"519 500 OFFCURVE",
"545 444 CURVE",
"444 444 LINE SMOOTH",
"360 444 OFFCURVE",
"307 416 OFFCURVE",
"285 361 CURVE",
"281 361 LINE",
"278 445 LINE SMOOTH",
"273 575 OFFCURVE",
"248 653 OFFCURVE",
"139 653 CURVE SMOOTH",
"100 653 OFFCURVE",
"57 643 OFFCURVE",
"10 623 CURVE",
"10 550 LINE",
"52 567 OFFCURVE",
"88 575 OFFCURVE",
"118 575 CURVE SMOOTH",
"180 575 OFFCURVE",
"194 522 OFFCURVE",
"200 437 CURVE SMOOTH",
"226 74 LINE",
"292 74 LINE",
"302 219 LINE SMOOTH",
"309 326 OFFCURVE",
"335 364 OFFCURVE",
"445 364 CURVE SMOOTH",
"492 364 LINE",
"492 267 LINE SMOOTH",
"492 154 OFFCURVE",
"549 73 OFFCURVE",
"668 47 CURVE SMOOTH",
"870 3 LINE"
);
},
{
closed = 1;
nodes = (
"690 127 LINE SMOOTH",
"610 145 OFFCURVE",
"571 196 OFFCURVE",
"571 267 CURVE SMOOTH",
"571 364 LINE",
"792 364 LINE",
"792 104 LINE"
);
}
);
width = 915;
}
);
unicode = 1848;
},
{
glyphname = u1848.ini;
lastChange = "2019-09-24 14:05:55 +0000";
layers = (
{
layerId = UUID0;
paths = (
{
closed = 1;
nodes = (
"870 364 LINE",
"1082 364 LINE",
"1082 444 LINE",
"631 444 LINE",
"601 518 OFFCURVE",
"567 590 OFFCURVE",
"528 661 CURVE",
"457 621 LINE",
"490 559 OFFCURVE",
"519 500 OFFCURVE",
"545 444 CURVE",
"444 444 LINE SMOOTH",
"360 444 OFFCURVE",
"307 416 OFFCURVE",
"285 361 CURVE",
"281 361 LINE",
"278 445 LINE SMOOTH",
"273 575 OFFCURVE",
"248 653 OFFCURVE",
"139 653 CURVE SMOOTH",
"100 653 OFFCURVE",
"57 643 OFFCURVE",
"10 623 CURVE",
"10 550 LINE",
"52 567 OFFCURVE",
"88 575 OFFCURVE",
"118 575 CURVE SMOOTH",
"179 575 OFFCURVE",
"194 520 OFFCURVE",
"200 437 CURVE SMOOTH",
"226 74 LINE",
"292 74 LINE",
"302 219 LINE SMOOTH",
"309 326 OFFCURVE",
"335 364 OFFCURVE",
"445 364 CURVE SMOOTH",
"492 364 LINE",
"492 267 LINE SMOOTH",
"492 154 OFFCURVE",
"549 73 OFFCURVE",
"668 47 CURVE SMOOTH",
"870 3 LINE"
);
},
{
closed = 1;
nodes = (
"690 127 LINE SMOOTH",
"610 145 OFFCURVE",
"571 196 OFFCURVE",
"571 267 CURVE SMOOTH",
"571 364 LINE",
"792 364 LINE",
"792 104 LINE"
);
}
);
width = 1052;
}
);
},
{
glyphname = u1848.med;
lastChange = "2019-09-24 14:05:55 +0000";
layers = (
{
layerId = UUID0;
paths = (
{
closed = 1;
nodes = (
"378 364 LINE",
"590 364 LINE",
"590 444 LINE",
"236 444 LINE",
"208 513 OFFCURVE",
"174 585 OFFCURVE",
"133 661 CURVE",
"62 621 LINE",
"88 575 OFFCURVE",
"118 516 OFFCURVE",
"150 444 CURVE",
"0 444 LINE",
"0 267 LINE SMOOTH",
"0 154 OFFCURVE",
"57 73 OFFCURVE",
"176 47 CURVE SMOOTH",
"378 3 LINE"
);
},
{
closed = 1;
nodes = (
"198 127 LINE SMOOTH",
"118 145 OFFCURVE",
"79 196 OFFCURVE",
"79 267 CURVE SMOOTH",
"79 364 LINE",
"300 364 LINE",
"300 104 LINE"
);
}
);
width = 560;
}
);
},
{
glyphname = u1848.medV1;
lastChange = "2019-09-24 14:05:55 +0000";
layers = (
{
layerId = UUID0;
paths = (
{
closed = 1;
nodes = (
"662 364 LINE",
"874 364 LINE",
"874 444 LINE",
"423 444 LINE",
"393 518 OFFCURVE",
"359 590 OFFCURVE",
"320 661 CURVE",
"249 621 LINE",
"276 573 OFFCURVE",
"305 514 OFFCURVE",
"337 444 CURVE",
"0 444 LINE",
"0 364 LINE",
"19 96 LINE",
"85 96 LINE",
"104 364 LINE",
"284 364 LINE",
"284 267 LINE SMOOTH",
"284 154 OFFCURVE",
"341 73 OFFCURVE",
"460 47 CURVE SMOOTH",
"662 3 LINE"
);
},
{
closed = 1;
nodes = (
"482 127 LINE SMOOTH",
"402 145 OFFCURVE",
"363 196 OFFCURVE",
"363 267 CURVE SMOOTH",
"363 364 LINE",
"584 364 LINE",
"584 104 LINE"
);
}
);
width = 844;
}
);
},
{
glyphname = u1848.fin;
lastChange = "2019-09-24 14:05:55 +0000";
layers = (
{
layerId = UUID0;
paths = (
{
closed = 1;
nodes = (
"378 444 LINE",
"236 444 LINE",
"208 513 OFFCURVE",
"174 585 OFFCURVE",
"133 661 CURVE",
"62 621 LINE",
"93 566 OFFCURVE",
"122 507 OFFCURVE",
"150 444 CURVE",
"0 444 LINE",
"0 267 LINE SMOOTH",
"0 154 OFFCURVE",
"57 73 OFFCURVE",
"176 47 CURVE SMOOTH",
"378 3 LINE"
);
},
{
closed = 1;
nodes = (
"198 127 LINE SMOOTH",
"118 145 OFFCURVE",
"79 196 OFFCURVE",
"79 267 CURVE SMOOTH",
"79 364 LINE",
"300 364 LINE",
"300 104 LINE"
);
}
);
width = 423;
}
);
},
{
glyphname = u184A;
lastChange = "2019-09-24 14:05:55 +0000";
layers = (
{
layerId = UUID0;
paths = (
{
closed = 1;
nodes = (
"845 -264 LINE",
"831 -240 OFFCURVE",
"824 -214 OFFCURVE",
"824 -187 CURVE SMOOTH",
"824 -125 OFFCURVE",
"846 -91 OFFCURVE",
"891 -31 CURVE SMOOTH",
"965 67 OFFCURVE",
"1024 152 OFFCURVE",
"1024 245 CURVE SMOOTH",
"1024 373 OFFCURVE",
"947 444 OFFCURVE",
"793 444 CURVE SMOOTH",
"45 444 LINE",
"45 364 LINE",
"64 96 LINE",
"130 96 LINE",
"149 364 LINE",
"329 364 LINE",
"329 263 LINE SMOOTH",
"329 109 OFFCURVE",
"406 36 OFFCURVE",
"545 36 CURVE SMOOTH",
"586 36 LINE SMOOTH",
"636 36 OFFCURVE",
"671 27 OFFCURVE",
"691 9 CURVE",
"691 92 LINE",
"670 110 OFFCURVE",
"635 119 OFFCURVE",
"586 119 CURVE SMOOTH",
"545 119 LINE SMOOTH",
"454 119 OFFCURVE",
"408 167 OFFCURVE",
"408 263 CURVE SMOOTH",
"408 364 LINE",
"792 364 LINE SMOOTH",
"899 364 OFFCURVE",
"946 325 OFFCURVE",
"946 245 CURVE SMOOTH",
"946 177 OFFCURVE",
"907 116 OFFCURVE",
"839 28 CURVE SMOOTH",
"783 -44 OFFCURVE",
"744 -109 OFFCURVE",
"744 -187 CURVE SMOOTH",
"744 -217 OFFCURVE",
"750 -243 OFFCURVE",
"763 -264 CURVE"
);
}
);
width = 1069;
}
);
unicode = 184A;
},
{
glyphname = u184B;
lastChange = "2019-09-24 14:05:55 +0000";
layers = (
{
layerId = UUID0;
paths = (
{
closed = 1;
nodes = (
"701 -264 LINE",
"687 -240 OFFCURVE",
"680 -214 OFFCURVE",
"680 -187 CURVE SMOOTH",
"680 -125 OFFCURVE",
"702 -91 OFFCURVE",
"747 -31 CURVE SMOOTH",
"822 68 OFFCURVE",
"880 153 OFFCURVE",
"880 245 CURVE SMOOTH",
"880 373 OFFCURVE",
"803 444 OFFCURVE",
"649 444 CURVE SMOOTH",
"90 444 LINE",
"59 392 OFFCURVE",
"45 336 OFFCURVE",
"45 260 CURVE SMOOTH",
"45 123 OFFCURVE",
"111 40 OFFCURVE",
"242 40 CURVE SMOOTH",
"369 40 OFFCURVE",
"440 123 OFFCURVE",
"440 249 CURVE SMOOTH",
"440 294 OFFCURVE",
"433 333 OFFCURVE",
"420 364 CURVE",
"648 364 LINE SMOOTH",
"755 364 OFFCURVE",
"802 325 OFFCURVE",
"802 245 CURVE SMOOTH",
"802 174 OFFCURVE",
"759 112 OFFCURVE",
"695 28 CURVE SMOOTH",
"640 -45 OFFCURVE",
"600 -109 OFFCURVE",
"600 -187 CURVE SMOOTH",
"600 -217 OFFCURVE",
"606 -243 OFFCURVE",
"619 -264 CURVE"
);
},
{
closed = 1;
nodes = (
"164 123 OFFCURVE",
"124 169 OFFCURVE",
"124 262 CURVE SMOOTH",
"124 303 OFFCURVE",
"131 336 OFFCURVE",
"144 364 CURVE",
"341 364 LINE",
"354 333 OFFCURVE",
"361 295 OFFCURVE",
"361 251 CURVE SMOOTH",
"361 166 OFFCURVE",
"315 123 OFFCURVE",
"242 123 CURVE SMOOTH"
);
}
);
width = 925;
}
);
unicode = 184B;
},
{
glyphname = u184B.fin;
lastChange = "2019-09-24 14:05:55 +0000";
layers = (
{
layerId = UUID0;
paths = (
{
closed = 1;
nodes = (
"656 -264 LINE",
"642 -238 OFFCURVE",
"635 -213 OFFCURVE",
"635 -187 CURVE SMOOTH",
"635 -124 OFFCURVE",
"653 -95 OFFCURVE",
"702 -31 CURVE SMOOTH",
"776 66 OFFCURVE",
"835 155 OFFCURVE",
"835 245 CURVE SMOOTH",
"835 373 OFFCURVE",
"758 444 OFFCURVE",
"604 444 CURVE SMOOTH",
"0 444 LINE",
"0 364 LINE",
"20 364 LINE",
"7 333 OFFCURVE",
"0 294 OFFCURVE",
"0 249 CURVE SMOOTH",
"0 116 OFFCURVE",
"69 40 OFFCURVE",
"197 40 CURVE SMOOTH",
"324 40 OFFCURVE",
"395 123 OFFCURVE",
"395 249 CURVE SMOOTH",
"395 293 OFFCURVE",
"388 331 OFFCURVE",
"373 364 CURVE",
"603 364 LINE SMOOTH",
"710 364 OFFCURVE",
"757 325 OFFCURVE",
"757 245 CURVE SMOOTH",
"757 177 OFFCURVE",
"718 116 OFFCURVE",
"650 28 CURVE SMOOTH",
"595 -44 OFFCURVE",
"555 -110 OFFCURVE",
"555 -187 CURVE SMOOTH",
"555 -217 OFFCURVE",
"562 -243 OFFCURVE",
"574 -264 CURVE"
);
},
{
closed = 1;
nodes = (
"118 123 OFFCURVE",
"79 166 OFFCURVE",
"79 251 CURVE SMOOTH",
"79 295 OFFCURVE",
"86 333 OFFCURVE",
"99 364 CURVE",
"296 364 LINE",
"309 333 OFFCURVE",
"316 295 OFFCURVE",
"316 251 CURVE SMOOTH",
"316 166 OFFCURVE",
"271 123 OFFCURVE",
"197 123 CURVE SMOOTH"
);
}
);
width = 880;
}
);
},
{
glyphname = u184B_1848;
lastChange = "2019-09-24 14:05:55 +0000";
layers = (
{
layerId = UUID0;
paths = (
{
closed = 1;
nodes = (
"311 40 OFFCURVE",
"370 72 OFFCURVE",
"396 135 CURVE",
"424 71 OFFCURVE",
"474 40 OFFCURVE",
"538 40 CURVE SMOOTH",
"683 40 OFFCURVE",
"752 146 OFFCURVE",
"752 375 CURVE SMOOTH",
"752 586 OFFCURVE",
"653 752 OFFCURVE",
"461 778 CURVE",
"440 827 OFFCURVE",
"412 886 OFFCURVE",
"376 953 CURVE",
"305 913 LINE",
"335 857 OFFCURVE",
"357 813 OFFCURVE",
"372 780 CURVE",
"162 764 OFFCURVE",
"45 601 OFFCURVE",
"45 375 CURVE SMOOTH",
"45 155 OFFCURVE",
"107 40 OFFCURVE",
"249 40 CURVE SMOOTH"
);
},
{
closed = 1;
nodes = (
"144 123 OFFCURVE",
"124 222 OFFCURVE",
"124 364 CURVE",
"359 364 LINE",
"359 283 LINE SMOOTH",
"359 192 OFFCURVE",
"322 123 OFFCURVE",
"248 123 CURVE SMOOTH"
);
},
{
closed = 1;
nodes = (
"471 123 OFFCURVE",
"438 177 OFFCURVE",
"438 286 CURVE SMOOTH",
"438 364 LINE",
"673 364 LINE",
"668 188 OFFCURVE",
"638 123 OFFCURVE",
"538 123 CURVE SMOOTH"
);
},
{
closed = 1;
nodes = (
"148 605 OFFCURVE",
"234 699 OFFCURVE",
"405 699 CURVE SMOOTH",
"556 699 OFFCURVE",
"647 596 OFFCURVE",
"668 444 CURVE",
"127 444 LINE"
);
}
);
width = 797;
}
);
},
{
glyphname = u184B_1848.ini;
lastChange = "2019-09-24 14:05:55 +0000";
layers = (
{
layerId = UUID0;
paths = (
{
closed = 1;
nodes = (
"311 40 OFFCURVE",
"370 72 OFFCURVE",
"396 135 CURVE",
"424 71 OFFCURVE",
"474 40 OFFCURVE",
"538 40 CURVE SMOOTH",
"681 40 OFFCURVE",
"750 146 OFFCURVE",
"752 364 CURVE",
"963 364 LINE",
"963 444 LINE",
"748 444 LINE",
"730 621 OFFCURVE",
"626 757 OFFCURVE",
"461 778 CURVE",
"440 827 OFFCURVE",
"412 886 OFFCURVE",
"376 953 CURVE",
"305 913 LINE",
"335 857 OFFCURVE",
"357 813 OFFCURVE",
"372 780 CURVE",
"162 764 OFFCURVE",
"45 601 OFFCURVE",
"45 375 CURVE SMOOTH",
"45 155 OFFCURVE",
"107 40 OFFCURVE",
"249 40 CURVE SMOOTH"
);
},
{
closed = 1;
nodes = (
"143 123 OFFCURVE",
"124 225 OFFCURVE",
"124 364 CURVE",
"359 364 LINE",
"359 283 LINE SMOOTH",
"359 191 OFFCURVE",
"322 123 OFFCURVE",
"248 123 CURVE SMOOTH"
);
},
{
closed = 1;
nodes = (
"471 123 OFFCURVE",
"438 177 OFFCURVE",
"438 286 CURVE SMOOTH",
"438 364 LINE",
"673 364 LINE",
"668 188 OFFCURVE",
"638 123 OFFCURVE",
"538 123 CURVE SMOOTH"
);
},
{
closed = 1;
nodes = (
"149 606 OFFCURVE",
"233 699 OFFCURVE",
"405 699 CURVE SMOOTH",
"557 699 OFFCURVE",
"647 596 OFFCURVE",
"668 444 CURVE",
"127 444 LINE"
);
}
);
width = 933;
}
);
},
{
glyphname = u184C;
lastChange = "2019-09-24 14:05:55 +0000";
layers = (
{
layerId = UUID0;
paths = (
{
closed = 1;
nodes = (
"405 63 LINE",
"328 198 OFFCURVE",
"289 320 OFFCURVE",
"289 430 CURVE SMOOTH",
"289 575 OFFCURVE",
"347 644 OFFCURVE",
"439 644 CURVE SMOOTH",
"528 644 OFFCURVE",
"580 573 OFFCURVE",
"592 409 CURVE",
"671 419 LINE",
"659 591 OFFCURVE",
"591 727 OFFCURVE",
"439 727 CURVE SMOOTH",
"304 727 OFFCURVE",
"210 616 OFFCURVE",
"210 444 CURVE",
"116 444 LINE",
"116 711 LINE",
"45 711 LINE",
"45 63 LINE"
);
},
{
closed = 1;
nodes = (
"116 364 LINE",
"213 364 LINE",
"221 293 OFFCURVE",
"242 220 OFFCURVE",
"276 146 CURVE",
"116 146 LINE"
);
}
);
width = 716;
}
);
unicode = 184C;
},
{
glyphname = u184C.fin;
lastChange = "2019-09-24 14:05:55 +0000";
layers = (
{
layerId = UUID0;
paths = (
{
closed = 1;
nodes = (
"506 -264 LINE",
"492 -238 OFFCURVE",
"485 -213 OFFCURVE",
"485 -187 CURVE SMOOTH",
"485 -118 OFFCURVE",
"516 -72 OFFCURVE",
"568 -7 CURVE SMOOTH",
"676 129 OFFCURVE",
"740 239 OFFCURVE",
"740 388 CURVE SMOOTH",
"740 588 OFFCURVE",
"640 727 OFFCURVE",
"449 727 CURVE SMOOTH",
"282 727 OFFCURVE",
"175 620 OFFCURVE",
"165 444 CURVE",
"71 444 LINE",
"71 711 LINE",
"0 711 LINE",
"0 63 LINE",
"360 63 LINE",
"283 193 OFFCURVE",
"244 312 OFFCURVE",
"244 419 CURVE SMOOTH",
"244 560 OFFCURVE",
"315 644 OFFCURVE",
"449 644 CURVE SMOOTH",
"587 644 OFFCURVE",
"662 542 OFFCURVE",
"662 388 CURVE SMOOTH",
"662 257 OFFCURVE",
"615 176 OFFCURVE",
"515 50 CURVE SMOOTH",
"448 -34 OFFCURVE",
"405 -94 OFFCURVE",
"405 -187 CURVE SMOOTH",
"405 -214 OFFCURVE",
"411 -239 OFFCURVE",
"424 -264 CURVE"
);
},
{
closed = 1;
nodes = (
"71 364 LINE",
"167 364 LINE",
"173 294 OFFCURVE",
"194 221 OFFCURVE",
"230 146 CURVE",
"71 146 LINE"
);
}
);
width = 785;
}
);
},
{
glyphname = u184C_1823;
lastChange = "2019-09-24 14:05:55 +0000";
layers = (
{
layerId = UUID0;
paths = (
{
closed = 1;
nodes = (
"788 40 OFFCURVE",
"869 146 OFFCURVE",
"869 303 CURVE SMOOTH",
"869 562 OFFCURVE",
"773 760 OFFCURVE",
"530 760 CURVE SMOOTH",
"348 760 OFFCURVE",
"226 636 OFFCURVE",
"211 444 CURVE",
"116 444 LINE",
"116 711 LINE",
"45 711 LINE",
"45 63 LINE",
"405 63 LINE",
"328 188 OFFCURVE",
"289 302 OFFCURVE",
"289 405 CURVE SMOOTH",
"289 567 OFFCURVE",
"376 677 OFFCURVE",
"530 677 CURVE SMOOTH",
"668 677 OFFCURVE",
"751 599 OFFCURVE",
"779 444 CURVE",
"512 444 LINE",
"488 397 OFFCURVE",
"474 330 OFFCURVE",
"474 275 CURVE SMOOTH",
"474 132 OFFCURVE",
"541 40 OFFCURVE",
"673 40 CURVE SMOOTH"
);
},
{
closed = 1;
nodes = (
"116 364 LINE",
"211 364 LINE",
"217 292 OFFCURVE",
"238 219 OFFCURVE",
"273 146 CURVE",
"116 146 LINE"
);
},
{
closed = 1;
nodes = (
"591 123 OFFCURVE",
"553 174 OFFCURVE",
"553 275 CURVE SMOOTH",
"553 311 OFFCURVE",
"559 341 OFFCURVE",
"569 364 CURVE",
"788 364 LINE",
"790 344 OFFCURVE",
"790 324 OFFCURVE",
"790 303 CURVE SMOOTH",
"790 204 OFFCURVE",
"751 123 OFFCURVE",
"667 123 CURVE SMOOTH"
);
}
);
width = 914;
}
);
},
{
glyphname = u184C_1823.ini;
lastChange = "2019-09-24 14:05:55 +0000";
layers = (
{
layerId = UUID0;
paths = (
{
closed = 1;
nodes = (
"786 40 OFFCURVE",
"869 141 OFFCURVE",
"869 302 CURVE SMOOTH",
"869 323 OFFCURVE",
"869 344 OFFCURVE",
"867 364 CURVE",
"1080 364 LINE",
"1080 444 LINE",
"858 444 LINE",
"823 649 OFFCURVE",
"711 760 OFFCURVE",
"530 760 CURVE SMOOTH",
"348 760 OFFCURVE",
"226 636 OFFCURVE",
"211 444 CURVE",
"116 444 LINE",
"116 711 LINE",
"45 711 LINE",
"45 63 LINE",
"405 63 LINE",
"328 188 OFFCURVE",
"289 302 OFFCURVE",
"289 405 CURVE SMOOTH",
"289 567 OFFCURVE",
"376 677 OFFCURVE",
"530 677 CURVE SMOOTH",
"668 677 OFFCURVE",
"751 599 OFFCURVE",
"779 444 CURVE",
"512 444 LINE",
"488 397 OFFCURVE",
"474 330 OFFCURVE",
"474 275 CURVE SMOOTH",
"474 132 OFFCURVE",
"541 40 OFFCURVE",
"674 40 CURVE SMOOTH"
);
},
{
closed = 1;
nodes = (
"116 364 LINE",
"211 364 LINE",
"217 292 OFFCURVE",
"238 219 OFFCURVE",
"273 146 CURVE",
"116 146 LINE"
);
},
{
closed = 1;
nodes = (
"591 123 OFFCURVE",
"553 174 OFFCURVE",
"553 275 CURVE SMOOTH",
"553 311 OFFCURVE",
"559 341 OFFCURVE",
"569 364 CURVE",
"788 364 LINE",
"790 344 OFFCURVE",
"790 322 OFFCURVE",
"790 301 CURVE SMOOTH",
"790 202 OFFCURVE",
"750 123 OFFCURVE",
"667 123 CURVE SMOOTH"
);
}
);
width = 1050;
}
);
},
{
glyphname = u184C_1844;
lastChange = "2019-09-24 14:05:55 +0000";
layers = (
{
layerId = UUID0;
paths = (
{
closed = 1;
nodes = (
"956 92 LINE",
"935 110 OFFCURVE",
"900 119 OFFCURVE",
"851 119 CURVE SMOOTH",
"810 119 LINE SMOOTH",
"719 119 OFFCURVE",
"673 167 OFFCURVE",
"673 263 CURVE SMOOTH",
"673 364 LINE",
"956 364 LINE",
"956 444 LINE",
"670 444 LINE",
"656 599 OFFCURVE",
"586 727 OFFCURVE",
"439 727 CURVE SMOOTH",
"304 727 OFFCURVE",
"210 616 OFFCURVE",
"210 444 CURVE",
"116 444 LINE",
"116 711 LINE",
"45 711 LINE",
"45 63 LINE",
"405 63 LINE",
"328 198 OFFCURVE",
"289 320 OFFCURVE",
"289 430 CURVE SMOOTH",
"289 575 OFFCURVE",
"347 644 OFFCURVE",
"439 644 CURVE SMOOTH",
"542 644 OFFCURVE",
"594 554 OFFCURVE",
"594 374 CURVE SMOOTH",
"594 263 LINE SMOOTH",
"594 109 OFFCURVE",
"671 36 OFFCURVE",
"810 36 CURVE SMOOTH",
"851 36 LINE SMOOTH",
"901 36 OFFCURVE",
"936 27 OFFCURVE",
"956 9 CURVE"
);
},
{
closed = 1;
nodes = (
"116 364 LINE",
"213 364 LINE",
"221 293 OFFCURVE",
"242 220 OFFCURVE",
"276 146 CURVE",
"116 146 LINE"
);
}
);
width = 1001;
}
);
},
{
glyphname = u184C_1844.ini;
lastChange = "2019-09-24 14:05:55 +0000";
layers = (
{
layerId = UUID0;
paths = (
{
closed = 1;
nodes = (
"956 92 LINE",
"935 110 OFFCURVE",
"900 119 OFFCURVE",
"851 119 CURVE SMOOTH",
"810 119 LINE SMOOTH",
"719 119 OFFCURVE",
"673 167 OFFCURVE",
"673 263 CURVE SMOOTH",
"673 364 LINE",
"1108 364 LINE",
"1108 444 LINE",
"670 444 LINE",
"656 599 OFFCURVE",
"586 727 OFFCURVE",
"439 727 CURVE SMOOTH",
"304 727 OFFCURVE",
"210 616 OFFCURVE",
"210 444 CURVE",
"116 444 LINE",
"116 711 LINE",
"45 711 LINE",
"45 63 LINE",
"405 63 LINE",
"328 198 OFFCURVE",
"289 320 OFFCURVE",
"289 430 CURVE SMOOTH",
"289 575 OFFCURVE",
"347 644 OFFCURVE",
"439 644 CURVE SMOOTH",
"542 644 OFFCURVE",
"594 554 OFFCURVE",
"594 374 CURVE SMOOTH",
"594 263 LINE SMOOTH",
"594 109 OFFCURVE",
"671 36 OFFCURVE",
"810 36 CURVE SMOOTH",
"851 36 LINE SMOOTH",
"901 36 OFFCURVE",
"936 27 OFFCURVE",
"956 9 CURVE"
);
},
{
closed = 1;
nodes = (
"116 364 LINE",
"213 364 LINE",
"221 293 OFFCURVE",
"242 220 OFFCURVE",
"276 146 CURVE",
"116 146 LINE"
);
}
);
width = 1078;
}
);
},
{
glyphname = u184C_1845;
lastChange = "2019-09-24 14:05:55 +0000";
layers = (
{
layerId = UUID0;
paths = (
{
closed = 1;
nodes = (
"1016 92 LINE",
"995 110 OFFCURVE",
"960 119 OFFCURVE",
"911 119 CURVE SMOOTH",
"882 119 LINE",
"882 364 LINE",
"1168 364 LINE SMOOTH",
"1239 364 OFFCURVE",
"1266 333 OFFCURVE",
"1266 279 CURVE SMOOTH",
"1266 236 OFFCURVE",
"1259 197 OFFCURVE",
"1244 162 CURVE",
"1318 162 LINE",
"1334 197 OFFCURVE",
"1343 236 OFFCURVE",
"1343 279 CURVE SMOOTH",
"1343 389 OFFCURVE",
"1285 444 OFFCURVE",
"1168 444 CURVE SMOOTH",
"803 444 LINE",
"803 119 LINE",
"770 119 LINE SMOOTH",
"705 119 OFFCURVE",
"673 154 OFFCURVE",
"673 223 CURVE SMOOTH",
"673 374 LINE SMOOTH",
"673 567 OFFCURVE",
"605 727 OFFCURVE",
"439 727 CURVE SMOOTH",
"304 727 OFFCURVE",
"210 616 OFFCURVE",
"210 444 CURVE",
"116 444 LINE",
"116 711 LINE",
"45 711 LINE",
"45 63 LINE",
"405 63 LINE",
"328 198 OFFCURVE",
"289 320 OFFCURVE",
"289 430 CURVE SMOOTH",
"289 575 OFFCURVE",
"347 644 OFFCURVE",
"439 644 CURVE SMOOTH",
"542 644 OFFCURVE",
"594 554 OFFCURVE",
"594 374 CURVE SMOOTH",
"594 223 LINE SMOOTH",
"594 99 OFFCURVE",
"653 36 OFFCURVE",
"770 36 CURVE SMOOTH",
"911 36 LINE SMOOTH",
"961 36 OFFCURVE",
"996 27 OFFCURVE",
"1016 9 CURVE"
);
},
{
closed = 1;
nodes = (
"116 364 LINE",
"213 364 LINE",
"221 293 OFFCURVE",
"242 220 OFFCURVE",
"276 146 CURVE",
"116 146 LINE"
);
}
);
width = 1388;
}
);
},
{
glyphname = u184C_1845.ini;
lastChange = "2019-09-24 14:05:55 +0000";
layers = (
{
layerId = UUID0;
paths = (
{
closed = 1;
nodes = (
"1016 92 LINE",
"995 110 OFFCURVE",
"960 119 OFFCURVE",
"911 119 CURVE SMOOTH",
"882 119 LINE",
"882 364 LINE",
"1168 364 LINE",
"1168 444 LINE",
"803 444 LINE",
"803 119 LINE",
"770 119 LINE SMOOTH",
"705 119 OFFCURVE",
"673 154 OFFCURVE",
"673 223 CURVE SMOOTH",
"673 374 LINE SMOOTH",
"673 567 OFFCURVE",
"605 727 OFFCURVE",
"439 727 CURVE SMOOTH",
"304 727 OFFCURVE",
"210 616 OFFCURVE",
"210 444 CURVE",
"116 444 LINE",
"116 711 LINE",
"45 711 LINE",
"45 63 LINE",
"405 63 LINE",
"328 198 OFFCURVE",
"289 320 OFFCURVE",
"289 430 CURVE SMOOTH",
"289 575 OFFCURVE",
"347 644 OFFCURVE",
"439 644 CURVE SMOOTH",
"542 644 OFFCURVE",
"594 554 OFFCURVE",
"594 374 CURVE SMOOTH",
"594 223 LINE SMOOTH",
"594 99 OFFCURVE",
"653 36 OFFCURVE",
"770 36 CURVE SMOOTH",
"911 36 LINE SMOOTH",
"961 36 OFFCURVE",
"996 27 OFFCURVE",
"1016 9 CURVE"
);
},
{
closed = 1;
nodes = (
"116 364 LINE",
"213 364 LINE",
"221 293 OFFCURVE",
"242 220 OFFCURVE",
"276 146 CURVE",
"116 146 LINE"
);
}
);
width = 1138;
}
);
},
{
glyphname = u184C_1820.ini;
lastChange = "2019-09-24 14:05:55 +0000";
layers = (
{
layerId = UUID0;
paths = (
{
closed = 1;
nodes = (
"405 63 LINE",
"328 198 OFFCURVE",
"289 320 OFFCURVE",
"289 430 CURVE SMOOTH",
"289 575 OFFCURVE",
"347 644 OFFCURVE",
"441 644 CURVE SMOOTH",
"561 644 OFFCURVE",
"583 526 OFFCURVE",
"595 361 CURVE SMOOTH",
"614 96 LINE",
"680 96 LINE",
"699 364 LINE",
"909 364 LINE",
"909 444 LINE",
"668 444 LINE",
"647 614 OFFCURVE",
"589 727 OFFCURVE",
"439 727 CURVE SMOOTH",
"304 727 OFFCURVE",
"210 616 OFFCURVE",
"210 444 CURVE",
"116 444 LINE",
"116 711 LINE",
"45 711 LINE",
"45 63 LINE"
);
},
{
closed = 1;
nodes = (
"116 364 LINE",
"213 364 LINE",
"221 293 OFFCURVE",
"242 220 OFFCURVE",
"276 146 CURVE",
"116 146 LINE"
);
}
);
width = 879;
}
);
},
{
glyphname = u184C_1820;
lastChange = "2019-09-24 14:05:55 +0000";
layers = (
{
layerId = UUID0;
paths = (
{
closed = 1;
nodes = (
"962 -264 LINE",
"948 -238 OFFCURVE",
"941 -213 OFFCURVE",
"941 -187 CURVE SMOOTH",
"941 -125 OFFCURVE",
"961 -92 OFFCURVE",
"1008 -31 CURVE SMOOTH",
"1082 64 OFFCURVE",
"1141 155 OFFCURVE",
"1141 245 CURVE SMOOTH",
"1141 373 OFFCURVE",
"1063 444 OFFCURVE",
"910 444 CURVE SMOOTH",
"668 444 LINE",
"647 614 OFFCURVE",
"589 727 OFFCURVE",
"439 727 CURVE SMOOTH",
"306 727 OFFCURVE",
"210 616 OFFCURVE",
"210 444 CURVE",
"116 444 LINE",
"116 711 LINE",
"45 711 LINE",
"45 63 LINE",
"405 63 LINE",
"328 198 OFFCURVE",
"289 320 OFFCURVE",
"289 430 CURVE SMOOTH",
"289 575 OFFCURVE",
"347 644 OFFCURVE",
"439 644 CURVE SMOOTH",
"558 644 OFFCURVE",
"583 534 OFFCURVE",
"595 364 CURVE SMOOTH",
"614 96 LINE",
"680 96 LINE",
"699 364 LINE",
"909 364 LINE SMOOTH",
"1015 364 OFFCURVE",
"1063 326 OFFCURVE",
"1063 242 CURVE SMOOTH",
"1063 173 OFFCURVE",
"1021 114 OFFCURVE",
"956 28 CURVE SMOOTH",
"902 -44 OFFCURVE",
"861 -108 OFFCURVE",
"861 -187 CURVE SMOOTH",
"861 -216 OFFCURVE",
"867 -242 OFFCURVE",
"880 -264 CURVE"
);
},
{
closed = 1;
nodes = (
"116 364 LINE",
"213 364 LINE",
"221 293 OFFCURVE",
"242 220 OFFCURVE",
"276 146 CURVE",
"116 146 LINE"
);
}
);
width = 1186;
}
);
},
{
glyphname = u184C_1847;
lastChange = "2019-09-24 14:05:55 +0000";
layers = (
{
layerId = UUID0;
paths = (
{
closed = 1;
nodes = (
"823 -81 LINE",
"799 -39 OFFCURVE",
"775 8 OFFCURVE",
"752 59 CURVE",
"831 99 OFFCURVE",
"869 196 OFFCURVE",
"869 303 CURVE SMOOTH",
"869 562 OFFCURVE",
"773 760 OFFCURVE",
"530 760 CURVE SMOOTH",
"348 760 OFFCURVE",
"226 636 OFFCURVE",
"211 444 CURVE",
"116 444 LINE",
"116 711 LINE",
"45 711 LINE",
"45 63 LINE",
"405 63 LINE",
"328 188 OFFCURVE",
"289 302 OFFCURVE",
"289 405 CURVE SMOOTH",
"289 567 OFFCURVE",
"376 677 OFFCURVE",
"530 677 CURVE SMOOTH",
"668 677 OFFCURVE",
"751 599 OFFCURVE",
"779 444 CURVE",
"512 444 LINE",
"488 397 OFFCURVE",
"474 330 OFFCURVE",
"474 275 CURVE SMOOTH",
"474 133 OFFCURVE",
"541 40 OFFCURVE",
"672 40 CURVE",
"694 -10 OFFCURVE",
"721 -64 OFFCURVE",
"752 -121 CURVE"
);
},
{
closed = 1;
nodes = (
"116 364 LINE",
"211 364 LINE",
"217 292 OFFCURVE",
"238 219 OFFCURVE",
"273 146 CURVE",
"116 146 LINE"
);
},
{
closed = 1;
nodes = (
"591 123 OFFCURVE",
"553 174 OFFCURVE",
"553 275 CURVE SMOOTH",
"553 311 OFFCURVE",
"559 341 OFFCURVE",
"569 364 CURVE",
"788 364 LINE",
"790 344 OFFCURVE",
"790 324 OFFCURVE",
"790 303 CURVE SMOOTH",
"790 204 OFFCURVE",
"751 123 OFFCURVE",
"667 123 CURVE SMOOTH"
);
}
);
width = 914;
}
);
},
{
glyphname = u184C_1847.ini;
lastChange = "2019-09-24 14:05:55 +0000";
layers = (
{
layerId = UUID0;
paths = (
{
closed = 1;
nodes = (
"823 -81 LINE",
"799 -39 OFFCURVE",
"775 8 OFFCURVE",
"752 59 CURVE",
"831 99 OFFCURVE",
"869 196 OFFCURVE",
"869 303 CURVE SMOOTH",
"869 324 OFFCURVE",
"869 344 OFFCURVE",
"867 364 CURVE",
"1080 364 LINE",
"1080 444 LINE",
"858 444 LINE",
"823 649 OFFCURVE",
"711 760 OFFCURVE",
"530 760 CURVE SMOOTH",
"348 760 OFFCURVE",
"226 636 OFFCURVE",
"211 444 CURVE",
"116 444 LINE",
"116 711 LINE",
"45 711 LINE",
"45 63 LINE",
"405 63 LINE",
"328 188 OFFCURVE",
"289 302 OFFCURVE",
"289 405 CURVE SMOOTH",
"289 567 OFFCURVE",
"376 677 OFFCURVE",
"530 677 CURVE SMOOTH",
"668 677 OFFCURVE",
"751 599 OFFCURVE",
"779 444 CURVE",
"512 444 LINE",
"488 397 OFFCURVE",
"474 330 OFFCURVE",
"474 275 CURVE SMOOTH",
"474 133 OFFCURVE",
"541 40 OFFCURVE",
"672 40 CURVE",
"694 -10 OFFCURVE",
"721 -64 OFFCURVE",
"752 -121 CURVE"
);
},
{
closed = 1;
nodes = (
"116 364 LINE",
"211 364 LINE",
"217 292 OFFCURVE",
"238 219 OFFCURVE",
"273 146 CURVE",
"116 146 LINE"
);
},
{
closed = 1;
nodes = (
"591 123 OFFCURVE",
"553 174 OFFCURVE",
"553 275 CURVE SMOOTH",
"553 311 OFFCURVE",
"559 341 OFFCURVE",
"569 364 CURVE",
"788 364 LINE",
"790 344 OFFCURVE",
"790 324 OFFCURVE",
"790 303 CURVE SMOOTH",
"790 204 OFFCURVE",
"751 123 OFFCURVE",
"667 123 CURVE SMOOTH"
);
}
);
width = 1050;
}
);
},
{
glyphname = u184C_1848;
lastChange = "2019-09-24 14:05:55 +0000";
layers = (
{
layerId = UUID0;
paths = (
{
closed = 1;
nodes = (
"788 40 OFFCURVE",
"869 145 OFFCURVE",
"869 302 CURVE SMOOTH",
"869 533 OFFCURVE",
"792 720 OFFCURVE",
"596 754 CURVE",
"570 819 OFFCURVE",
"538 885 OFFCURVE",
"501 953 CURVE",
"430 913 LINE",
"463 851 OFFCURVE",
"489 800 OFFCURVE",
"507 759 CURVE",
"339 751 OFFCURVE",
"225 626 OFFCURVE",
"211 444 CURVE",
"116 444 LINE",
"116 711 LINE",
"45 711 LINE",
"45 63 LINE",
"405 63 LINE",
"328 188 OFFCURVE",
"289 302 OFFCURVE",
"289 405 CURVE SMOOTH",
"289 567 OFFCURVE",
"376 677 OFFCURVE",
"530 677 CURVE SMOOTH",
"668 677 OFFCURVE",
"751 599 OFFCURVE",
"779 444 CURVE",
"512 444 LINE",
"488 397 OFFCURVE",
"474 330 OFFCURVE",
"474 275 CURVE SMOOTH",
"474 132 OFFCURVE",
"541 40 OFFCURVE",
"674 40 CURVE SMOOTH"
);
},
{
closed = 1;
nodes = (
"116 364 LINE",
"211 364 LINE",
"217 292 OFFCURVE",
"238 219 OFFCURVE",
"273 146 CURVE",
"116 146 LINE"
);
},
{
closed = 1;
nodes = (
"591 123 OFFCURVE",
"553 174 OFFCURVE",
"553 275 CURVE SMOOTH",
"553 311 OFFCURVE",
"559 341 OFFCURVE",
"569 364 CURVE",
"788 364 LINE",
"790 344 OFFCURVE",
"790 323 OFFCURVE",
"790 302 CURVE SMOOTH",
"790 203 OFFCURVE",
"751 123 OFFCURVE",
"667 123 CURVE SMOOTH"
);
}
);
width = 914;
}
);
},
{
glyphname = u184C_1848.ini;
lastChange = "2019-09-24 14:05:55 +0000";
layers = (
{
layerId = UUID0;
paths = (
{
closed = 1;
nodes = (
"788 40 OFFCURVE",
"869 145 OFFCURVE",
"869 302 CURVE SMOOTH",
"869 323 OFFCURVE",
"869 344 OFFCURVE",
"867 364 CURVE",
"1080 364 LINE",
"1080 444 LINE",
"858 444 LINE",
"833 608 OFFCURVE",
"746 726 OFFCURVE",
"596 754 CURVE",
"570 819 OFFCURVE",
"538 885 OFFCURVE",
"501 953 CURVE",
"430 913 LINE",
"463 851 OFFCURVE",
"489 800 OFFCURVE",
"507 759 CURVE",
"339 751 OFFCURVE",
"225 626 OFFCURVE",
"211 444 CURVE",
"116 444 LINE",
"116 711 LINE",
"45 711 LINE",
"45 63 LINE",
"405 63 LINE",
"328 188 OFFCURVE",
"289 302 OFFCURVE",
"289 405 CURVE SMOOTH",
"289 567 OFFCURVE",
"376 677 OFFCURVE",
"530 677 CURVE SMOOTH",
"668 677 OFFCURVE",
"751 599 OFFCURVE",
"779 444 CURVE",
"512 444 LINE",
"488 397 OFFCURVE",
"474 331 OFFCURVE",
"474 275 CURVE SMOOTH",
"474 132 OFFCURVE",
"541 40 OFFCURVE",
"674 40 CURVE SMOOTH"
);
},
{
closed = 1;
nodes = (
"116 364 LINE",
"211 364 LINE",
"217 292 OFFCURVE",
"238 219 OFFCURVE",
"273 146 CURVE",
"116 146 LINE"
);
},
{
closed = 1;
nodes = (
"591 123 OFFCURVE",
"553 174 OFFCURVE",
"553 275 CURVE SMOOTH",
"553 311 OFFCURVE",
"559 341 OFFCURVE",
"569 364 CURVE",
"788 364 LINE",
"790 344 OFFCURVE",
"790 322 OFFCURVE",
"790 301 CURVE SMOOTH",
"790 202 OFFCURVE",
"751 123 OFFCURVE",
"667 123 CURVE SMOOTH"
);
}
);
width = 1050;
}
);
},
{
glyphname = u183B.ini;
lastChange = "2019-09-24 14:05:55 +0000";
layers = (
{
layerId = UUID0;
paths = (
{
closed = 1;
nodes = (
"245 85 LINE",
"175 181 OFFCURVE",
"135 269 OFFCURVE",
"125 364 CURVE",
"285 364 LINE",
"285 444 LINE",
"125 444 LINE",
"133 576 OFFCURVE",
"188 644 OFFCURVE",
"273 644 CURVE SMOOTH",
"393 644 OFFCURVE",
"417 530 OFFCURVE",
"428 364 CURVE",
"502 364 LINE",
"492 610 OFFCURVE",
"421 727 OFFCURVE",
"273 727 CURVE SMOOTH",
"133 727 OFFCURVE",
"45 601 OFFCURVE",
"45 407 CURVE SMOOTH",
"45 292 OFFCURVE",
"88 170 OFFCURVE",
"174 42 CURVE"
);
}
);
width = 428;
}
);
},
{
glyphname = u183B.fin;
lastChange = "2019-09-24 14:05:55 +0000";
layers = (
{
layerId = UUID0;
paths = (
{
closed = 1;
nodes = (
"341 -264 LINE",
"327 -238 OFFCURVE",
"320 -213 OFFCURVE",
"320 -187 CURVE SMOOTH",
"320 -121 OFFCURVE",
"348 -76 OFFCURVE",
"403 -7 CURVE SMOOTH",
"450 52 OFFCURVE",
"489 108 OFFCURVE",
"518 163 CURVE SMOOTH",
"556 234 OFFCURVE",
"575 304 OFFCURVE",
"575 388 CURVE SMOOTH",
"575 588 OFFCURVE",
"475 727 OFFCURVE",
"284 727 CURVE SMOOTH",
"104 727 OFFCURVE",
"-2 601 OFFCURVE",
"-2 407 CURVE SMOOTH",
"-2 292 OFFCURVE",
"41 170 OFFCURVE",
"127 42 CURVE",
"198 85 LINE",
"126 185 OFFCURVE",
"87 270 OFFCURVE",
"79 364 CURVE",
"238 364 LINE",
"238 444 LINE",
"78 444 LINE",
"90 579 OFFCURVE",
"167 644 OFFCURVE",
"284 644 CURVE SMOOTH",
"422 644 OFFCURVE",
"497 542 OFFCURVE",
"497 388 CURVE SMOOTH",
"497 306 OFFCURVE",
"479 244 OFFCURVE",
"438 174 CURVE SMOOTH",
"418 140 OFFCURVE",
"389 98 OFFCURVE",
"350 50 CURVE SMOOTH",
"281 -35 OFFCURVE",
"240 -98 OFFCURVE",
"240 -187 CURVE SMOOTH",
"240 -214 OFFCURVE",
"247 -240 OFFCURVE",
"259 -264 CURVE"
);
}
);
width = 620;
}
);
},
{
glyphname = u1854.fin;
lastChange = "2019-09-24 14:05:55 +0000";
layers = (
{
layerId = UUID0;
paths = (
{
closed = 1;
nodes = (
"43 44 OFFCURVE",
"89 77 OFFCURVE",
"137 103 CURVE SMOOTH",
"245 161 LINE SMOOTH",
"319 201 OFFCURVE",
"351 262 OFFCURVE",
"351 364 CURVE",
"560 364 LINE SMOOTH",
"630 364 OFFCURVE",
"658 333 OFFCURVE",
"658 279 CURVE SMOOTH",
"658 236 OFFCURVE",
"651 197 OFFCURVE",
"636 162 CURVE",
"710 162 LINE",
"727 197 OFFCURVE",
"735 236 OFFCURVE",
"735 279 CURVE SMOOTH",
"735 389 OFFCURVE",
"677 444 OFFCURVE",
"560 444 CURVE SMOOTH",
"0 444 LINE",
"0 364 LINE",
"274 364 LINE",
"274 293 OFFCURVE",
"255 254 OFFCURVE",
"196 222 CURVE SMOOTH",
"114 178 LINE SMOOTH",
"60 149 OFFCURVE",
"22 122 OFFCURVE",
"0 100 CURVE",
"0 5 LINE"
);
}
);
width = 780;
}
);
},
{
glyphname = u185C;
lastChange = "2019-09-24 14:05:55 +0000";
layers = (
{
layerId = UUID0;
paths = (
{
closed = 1;
nodes = (
"222 -124 OFFCURVE",
"273 -118 OFFCURVE",
"359 -118 CURVE SMOOTH",
"480 -118 LINE",
"480 -52 LINE",
"458 13 OFFCURVE",
"447 80 OFFCURVE",
"447 151 CURVE SMOOTH",
"447 222 OFFCURVE",
"457 293 OFFCURVE",
"477 364 CURVE",
"682 364 LINE",
"682 444 LINE",
"63 444 LINE",
"45 364 LINE",
"403 364 LINE",
"385 302 OFFCURVE",
"375 238 OFFCURVE",
"374 170 CURVE",
"337 170 LINE SMOOTH",
"239 170 OFFCURVE",
"160 167 OFFCURVE",
"102 128 CURVE",
"102 43 LINE",
"167 84 OFFCURVE",
"236 90 OFFCURVE",
"337 90 CURVE SMOOTH",
"376 90 LINE",
"378 49 OFFCURVE",
"385 6 OFFCURVE",
"395 -38 CURVE",
"359 -38 LINE SMOOTH",
"280 -38 OFFCURVE",
"218 -40 OFFCURVE",
"168 -80 CURVE",
"168 -164 LINE"
);
}
);
width = 727;
}
);
unicode = 185C;
},
{
glyphname = u185C.med;
lastChange = "2019-09-24 14:05:55 +0000";
layers = (
{
layerId = UUID0;
paths = (
{
closed = 1;
nodes = (
"116 -125 OFFCURVE",
"172 -118 OFFCURVE",
"257 -118 CURVE SMOOTH",
"378 -118 LINE",
"378 -52 LINE",
"356 12 OFFCURVE",
"345 80 OFFCURVE",
"345 151 CURVE SMOOTH",
"345 223 OFFCURVE",
"355 294 OFFCURVE",
"375 364 CURVE",
"580 364 LINE",
"580 444 LINE",
"0 444 LINE",
"0 364 LINE",
"301 364 LINE",
"283 302 OFFCURVE",
"273 238 OFFCURVE",
"272 170 CURVE",
"235 170 LINE SMOOTH",
"136 170 OFFCURVE",
"59 167 OFFCURVE",
"0 128 CURVE",
"0 43 LINE",
"65 84 OFFCURVE",
"134 90 OFFCURVE",
"235 90 CURVE SMOOTH",
"274 90 LINE",
"276 49 OFFCURVE",
"283 6 OFFCURVE",
"293 -38 CURVE",
"257 -38 LINE SMOOTH",
"177 -38 OFFCURVE",
"111 -43 OFFCURVE",
"66 -80 CURVE",
"66 -164 LINE"
);
}
);
width = 550;
}
);
},
{
glyphname = u185C.fin;
lastChange = "2019-09-24 14:05:55 +0000";
layers = (
{
layerId = UUID0;
paths = (
{
closed = 1;
nodes = (
"116 -125 OFFCURVE",
"172 -118 OFFCURVE",
"257 -118 CURVE SMOOTH",
"378 -118 LINE",
"378 -52 LINE",
"356 12 OFFCURVE",
"345 80 OFFCURVE",
"345 151 CURVE SMOOTH",
"345 223 OFFCURVE",
"355 294 OFFCURVE",
"375 364 CURVE",
"580 364 LINE SMOOTH",
"650 364 OFFCURVE",
"678 333 OFFCURVE",
"678 279 CURVE SMOOTH",
"678 235 OFFCURVE",
"671 197 OFFCURVE",
"656 162 CURVE",
"730 162 LINE",
"747 197 OFFCURVE",
"755 236 OFFCURVE",
"755 279 CURVE SMOOTH",
"755 389 OFFCURVE",
"697 444 OFFCURVE",
"580 444 CURVE SMOOTH",
"0 444 LINE",
"0 364 LINE",
"301 364 LINE",
"283 302 OFFCURVE",
"273 238 OFFCURVE",
"272 170 CURVE",
"235 170 LINE SMOOTH",
"136 170 OFFCURVE",
"59 167 OFFCURVE",
"0 128 CURVE",
"0 43 LINE",
"65 84 OFFCURVE",
"134 90 OFFCURVE",
"235 90 CURVE SMOOTH",
"274 90 LINE",
"276 49 OFFCURVE",
"283 6 OFFCURVE",
"293 -38 CURVE",
"257 -38 LINE SMOOTH",
"177 -38 OFFCURVE",
"111 -43 OFFCURVE",
"66 -80 CURVE",
"66 -164 LINE"
);
}
);
width = 800;
}
);
},
{
glyphname = u1861;
lastChange = "2019-09-24 14:05:55 +0000";
layers = (
{
layerId = UUID0;
paths = (
{
closed = 1;
nodes = (
"798 -31 LINE",
"725 100 OFFCURVE",
"669 231 OFFCURVE",
"631 364 CURVE",
"843 364 LINE",
"843 444 LINE",
"90 444 LINE",
"59 392 OFFCURVE",
"45 336 OFFCURVE",
"45 260 CURVE SMOOTH",
"45 123 OFFCURVE",
"111 40 OFFCURVE",
"242 40 CURVE SMOOTH",
"369 40 OFFCURVE",
"440 123 OFFCURVE",
"440 249 CURVE SMOOTH",
"440 294 OFFCURVE",
"433 333 OFFCURVE",
"420 364 CURVE",
"552 364 LINE",
"590 220 OFFCURVE",
"647 77 OFFCURVE",
"725 -67 CURVE"
);
},
{
closed = 1;
nodes = (
"164 123 OFFCURVE",
"124 169 OFFCURVE",
"124 262 CURVE SMOOTH",
"124 303 OFFCURVE",
"131 336 OFFCURVE",
"144 364 CURVE",
"341 364 LINE",
"354 333 OFFCURVE",
"361 295 OFFCURVE",
"361 251 CURVE SMOOTH",
"361 166 OFFCURVE",
"315 123 OFFCURVE",
"242 123 CURVE SMOOTH"
);
}
);
width = 888;
}
);
unicode = 1861;
},
{
glyphname = u1827;
lastChange = "2019-09-24 14:05:55 +0000";
layers = (
{
layerId = UUID0;
paths = (
{
closed = 1;
nodes = (
"838 -119 OFFCURVE",
"870 -106 OFFCURVE",
"884 -85 CURVE",
"884 6 LINE",
"865 -22 OFFCURVE",
"837 -36 OFFCURVE",
"801 -36 CURVE SMOOTH",
"736 -36 OFFCURVE",
"693 51 OFFCURVE",
"648 153 CURVE SMOOTH",
"617 224 OFFCURVE",
"591 294 OFFCURVE",
"571 364 CURVE",
"980 364 LINE SMOOTH",
"1051 364 OFFCURVE",
"1078 333 OFFCURVE",
"1078 279 CURVE SMOOTH",
"1078 236 OFFCURVE",
"1071 197 OFFCURVE",
"1056 162 CURVE",
"1130 162 LINE",
"1146 197 OFFCURVE",
"1155 236 OFFCURVE",
"1155 279 CURVE SMOOTH",
"1155 389 OFFCURVE",
"1097 444 OFFCURVE",
"980 444 CURVE SMOOTH",
"444 444 LINE SMOOTH",
"360 444 OFFCURVE",
"307 416 OFFCURVE",
"285 361 CURVE",
"281 361 LINE",
"278 445 LINE SMOOTH",
"273 575 OFFCURVE",
"248 653 OFFCURVE",
"139 653 CURVE SMOOTH",
"100 653 OFFCURVE",
"57 643 OFFCURVE",
"10 623 CURVE",
"10 550 LINE",
"52 567 OFFCURVE",
"88 575 OFFCURVE",
"118 575 CURVE SMOOTH",
"179 575 OFFCURVE",
"194 520 OFFCURVE",
"200 437 CURVE SMOOTH",
"226 74 LINE",
"292 74 LINE",
"302 219 LINE SMOOTH",
"309 326 OFFCURVE",
"335 364 OFFCURVE",
"445 364 CURVE SMOOTH",
"492 364 LINE",
"515 280 OFFCURVE",
"541 203 OFFCURVE",
"570 132 CURVE SMOOTH",
"632 -21 OFFCURVE",
"684 -119 OFFCURVE",
"801 -119 CURVE SMOOTH"
);
}
);
width = 1200;
}
);
unicode = 1827;
},
{
glyphname = u1827.ini;
lastChange = "2019-09-24 14:05:55 +0000";
layers = (
{
layerId = UUID0;
paths = (
{
closed = 1;
nodes = (
"838 -119 OFFCURVE",
"870 -106 OFFCURVE",
"884 -85 CURVE",
"884 6 LINE",
"865 -22 OFFCURVE",
"837 -36 OFFCURVE",
"801 -36 CURVE SMOOTH",
"736 -36 OFFCURVE",
"693 51 OFFCURVE",
"648 153 CURVE SMOOTH",
"617 224 OFFCURVE",
"591 294 OFFCURVE",
"571 364 CURVE",
"980 364 LINE",
"980 444 LINE",
"444 444 LINE SMOOTH",
"360 444 OFFCURVE",
"307 416 OFFCURVE",
"285 361 CURVE",
"281 361 LINE",
"278 445 LINE SMOOTH",
"273 575 OFFCURVE",
"248 653 OFFCURVE",
"139 653 CURVE SMOOTH",
"100 653 OFFCURVE",
"57 643 OFFCURVE",
"10 623 CURVE",
"10 550 LINE",
"52 567 OFFCURVE",
"88 575 OFFCURVE",
"118 575 CURVE SMOOTH",
"179 575 OFFCURVE",
"194 520 OFFCURVE",
"200 437 CURVE SMOOTH",
"226 74 LINE",
"292 74 LINE",
"302 219 LINE SMOOTH",
"309 326 OFFCURVE",
"335 364 OFFCURVE",
"445 364 CURVE SMOOTH",
"492 364 LINE",
"515 280 OFFCURVE",
"541 203 OFFCURVE",
"570 132 CURVE SMOOTH",
"632 -21 OFFCURVE",
"684 -119 OFFCURVE",
"801 -119 CURVE SMOOTH"
);
}
);
width = 950;
}
);
},
{
glyphname = u1827.fin;
lastChange = "2019-09-24 14:05:55 +0000";
layers = (
{
layerId = UUID0;
paths = (
{
closed = 1;
nodes = (
"346 -119 OFFCURVE",
"377 -106 OFFCURVE",
"392 -85 CURVE",
"392 6 LINE",
"373 -22 OFFCURVE",
"345 -36 OFFCURVE",
"309 -36 CURVE SMOOTH",
"244 -36 OFFCURVE",
"202 49 OFFCURVE",
"156 152 CURVE SMOOTH",
"124 224 OFFCURVE",
"99 294 OFFCURVE",
"79 364 CURVE",
"488 364 LINE SMOOTH",
"559 364 OFFCURVE",
"586 333 OFFCURVE",
"586 279 CURVE SMOOTH",
"586 235 OFFCURVE",
"579 196 OFFCURVE",
"564 162 CURVE",
"638 162 LINE",
"655 199 OFFCURVE",
"663 238 OFFCURVE",
"663 279 CURVE SMOOTH",
"663 389 OFFCURVE",
"604 444 OFFCURVE",
"488 444 CURVE SMOOTH",
"0 444 LINE",
"0 364 LINE",
"20 292 OFFCURVE",
"42 223 OFFCURVE",
"68 157 CURVE SMOOTH",
"132 -6 OFFCURVE",
"187 -119 OFFCURVE",
"309 -119 CURVE SMOOTH"
);
}
);
width = 708;
}
);
},
{
glyphname = u1828.medV3;
lastChange = "2019-09-24 14:05:55 +0000";
layers = (
{
layerId = UUID0;
paths = (
{
closed = 1;
nodes = (
"253 96 LINE",
"272 364 LINE",
"482 364 LINE",
"482 444 LINE",
"0 444 LINE",
"0 364 LINE",
"168 364 LINE",
"187 96 LINE"
);
},
{
closed = 1;
nodes = (
"246 -128 OFFCURVE",
"292 -90 OFFCURVE",
"352 -47 CURVE",
"291 22 LINE",
"251 -17 OFFCURVE",
"211 -66 OFFCURVE",
"170 -124 CURVE",
"213 -163 LINE"
);
}
);
width = 452;
}
);
},
{
glyphname = u182A.finV1;
lastChange = "2019-09-24 14:05:55 +0000";
layers = (
{
layerId = UUID0;
paths = (
{
closed = 1;
nodes = (
"596 -264 LINE",
"582 -240 OFFCURVE",
"575 -214 OFFCURVE",
"575 -187 CURVE SMOOTH",
"575 -130 OFFCURVE",
"595 -91 OFFCURVE",
"642 -31 CURVE SMOOTH",
"718 66 OFFCURVE",
"775 153 OFFCURVE",
"775 245 CURVE SMOOTH",
"775 373 OFFCURVE",
"698 444 OFFCURVE",
"544 444 CURVE SMOOTH",
"0 444 LINE",
"0 364 LINE",
"20 364 LINE",
"7 333 OFFCURVE",
"0 294 OFFCURVE",
"0 249 CURVE SMOOTH",
"0 116 OFFCURVE",
"69 40 OFFCURVE",
"197 40 CURVE SMOOTH",
"324 40 OFFCURVE",
"395 123 OFFCURVE",
"395 249 CURVE SMOOTH",
"395 293 OFFCURVE",
"388 331 OFFCURVE",
"373 364 CURVE",
"543 364 LINE SMOOTH",
"650 364 OFFCURVE",
"697 325 OFFCURVE",
"697 243 CURVE SMOOTH",
"697 175 OFFCURVE",
"657 117 OFFCURVE",
"590 28 CURVE SMOOTH",
"536 -44 OFFCURVE",
"495 -109 OFFCURVE",
"495 -187 CURVE SMOOTH",
"495 -217 OFFCURVE",
"501 -243 OFFCURVE",
"514 -264 CURVE"
);
},
{
closed = 1;
nodes = (
"118 123 OFFCURVE",
"79 166 OFFCURVE",
"79 251 CURVE SMOOTH",
"79 295 OFFCURVE",
"86 333 OFFCURVE",
"99 364 CURVE",
"296 364 LINE",
"309 333 OFFCURVE",
"316 295 OFFCURVE",
"316 251 CURVE SMOOTH",
"316 166 OFFCURVE",
"271 123 OFFCURVE",
"197 123 CURVE SMOOTH"
);
}
);
width = 820;
}
);
},
{
glyphname = u182A_1820;
lastChange = "2019-09-24 14:05:55 +0000";
layers = (
{
layerId = UUID0;
paths = (
{
closed = 1;
nodes = (
"946 -264 LINE",
"932 -238 OFFCURVE",
"925 -213 OFFCURVE",
"925 -187 CURVE SMOOTH",
"925 -124 OFFCURVE",
"943 -95 OFFCURVE",
"992 -31 CURVE SMOOTH",
"1066 66 OFFCURVE",
"1125 155 OFFCURVE",
"1125 245 CURVE SMOOTH",
"1125 373 OFFCURVE",
"1047 444 OFFCURVE",
"894 444 CURVE SMOOTH",
"652 444 LINE",
"625 637 OFFCURVE",
"535 782 OFFCURVE",
"352 782 CURVE SMOOTH",
"150 782 OFFCURVE",
"45 630 OFFCURVE",
"45 408 CURVE SMOOTH",
"45 161 OFFCURVE",
"119 40 OFFCURVE",
"270 40 CURVE SMOOTH",
"376 40 OFFCURVE",
"451 137 OFFCURVE",
"451 275 CURVE SMOOTH",
"451 312 OFFCURVE",
"440 410 OFFCURVE",
"428 444 CURVE",
"124 444 LINE",
"126 592 OFFCURVE",
"204 699 OFFCURVE",
"352 699 CURVE SMOOTH",
"493 699 OFFCURVE",
"563 586 OFFCURVE",
"579 364 CURVE SMOOTH",
"598 96 LINE",
"664 96 LINE",
"683 364 LINE",
"893 364 LINE SMOOTH",
"1000 364 OFFCURVE",
"1047 325 OFFCURVE",
"1047 245 CURVE SMOOTH",
"1047 177 OFFCURVE",
"1008 116 OFFCURVE",
"940 28 CURVE SMOOTH",
"885 -44 OFFCURVE",
"845 -110 OFFCURVE",
"845 -187 CURVE SMOOTH",
"845 -217 OFFCURVE",
"852 -242 OFFCURVE",
"864 -264 CURVE"
);
},
{
closed = 1;
nodes = (
"173 123 OFFCURVE",
"126 203 OFFCURVE",
"124 364 CURVE",
"362 364 LINE",
"369 345 OFFCURVE",
"372 315 OFFCURVE",
"372 275 CURVE SMOOTH",
"372 190 OFFCURVE",
"337 123 OFFCURVE",
"264 123 CURVE SMOOTH"
);
}
);
width = 1170;
}
);
},
{
glyphname = u182A_1827;
lastChange = "2019-09-24 14:05:55 +0000";
layers = (
{
layerId = UUID0;
paths = (
{
closed = 1;
nodes = (
"896 -119 OFFCURVE",
"926 -106 OFFCURVE",
"940 -85 CURVE",
"940 6 LINE",
"921 -22 OFFCURVE",
"894 -36 OFFCURVE",
"858 -36 CURVE SMOOTH",
"809 -36 OFFCURVE",
"769 13 OFFCURVE",
"725 106 CURVE SMOOTH",
"681 199 OFFCURVE",
"655 287 OFFCURVE",
"641 364 CURVE",
"1036 364 LINE SMOOTH",
"1106 364 OFFCURVE",
"1134 333 OFFCURVE",
"1134 279 CURVE SMOOTH",
"1134 235 OFFCURVE",
"1126 196 OFFCURVE",
"1112 162 CURVE",
"1186 162 LINE",
"1203 197 OFFCURVE",
"1211 236 OFFCURVE",
"1211 279 CURVE SMOOTH",
"1211 389 OFFCURVE",
"1153 444 OFFCURVE",
"1036 444 CURVE SMOOTH",
"626 444 LINE",
"589 648 OFFCURVE",
"512 782 OFFCURVE",
"330 782 CURVE SMOOTH",
"138 782 OFFCURVE",
"45 624 OFFCURVE",
"45 408 CURVE SMOOTH",
"45 161 OFFCURVE",
"120 40 OFFCURVE",
"271 40 CURVE SMOOTH",
"376 40 OFFCURVE",
"451 137 OFFCURVE",
"451 275 CURVE SMOOTH",
"451 312 OFFCURVE",
"440 410 OFFCURVE",
"428 444 CURVE",
"124 444 LINE",
"126 588 OFFCURVE",
"194 699 OFFCURVE",
"330 699 CURVE SMOOTH",
"469 699 OFFCURVE",
"522 589 OFFCURVE",
"552 418 CURVE SMOOTH",
"576 279 OFFCURVE",
"614 153 OFFCURVE",
"667 41 CURVE SMOOTH",
"713 -56 OFFCURVE",
"765 -119 OFFCURVE",
"858 -119 CURVE SMOOTH"
);
},
{
closed = 1;
nodes = (
"173 123 OFFCURVE",
"126 203 OFFCURVE",
"124 364 CURVE",
"362 364 LINE",
"369 345 OFFCURVE",
"372 315 OFFCURVE",
"372 275 CURVE SMOOTH",
"372 190 OFFCURVE",
"337 123 OFFCURVE",
"264 123 CURVE SMOOTH"
);
}
);
width = 1256;
}
);
},
{
glyphname = u182B;
lastChange = "2019-09-24 14:05:55 +0000";
layers = (
{
layerId = UUID0;
paths = (
{
closed = 1;
nodes = (
"109 68 OFFCURVE",
"162 73 OFFCURVE",
"231 73 CURVE SMOOTH",
"346 73 OFFCURVE",
"418 158 OFFCURVE",
"418 275 CURVE SMOOTH",
"418 332 OFFCURVE",
"411 388 OFFCURVE",
"397 444 CURVE",
"124 444 LINE",
"126 588 OFFCURVE",
"194 699 OFFCURVE",
"330 699 CURVE SMOOTH",
"468 699 OFFCURVE",
"537 571 OFFCURVE",
"550 409 CURVE",
"630 419 LINE",
"616 614 OFFCURVE",
"511 782 OFFCURVE",
"330 782 CURVE SMOOTH",
"138 782 OFFCURVE",
"45 624 OFFCURVE",
"45 408 CURVE SMOOTH",
"45 364 LINE",
"329 364 LINE",
"335 344 OFFCURVE",
"339 314 OFFCURVE",
"339 275 CURVE SMOOTH",
"339 201 OFFCURVE",
"298 153 OFFCURVE",
"231 153 CURVE SMOOTH",
"166 153 OFFCURVE",
"104 150 OFFCURVE",
"62 122 CURVE",
"62 42 LINE"
);
}
);
width = 675;
}
);
unicode = 182B;
},
{
glyphname = u182B.ini;
lastChange = "2019-09-24 14:05:55 +0000";
layers = (
{
layerId = UUID0;
paths = (
{
closed = 1;
nodes = (
"109 68 OFFCURVE",
"162 73 OFFCURVE",
"231 73 CURVE SMOOTH",
"346 73 OFFCURVE",
"418 158 OFFCURVE",
"418 275 CURVE SMOOTH",
"418 332 OFFCURVE",
"411 388 OFFCURVE",
"397 444 CURVE",
"124 444 LINE",
"126 588 OFFCURVE",
"194 699 OFFCURVE",
"330 699 CURVE SMOOTH",
"462 699 OFFCURVE",
"547 578 OFFCURVE",
"552 364 CURVE",
"626 364 LINE",
"626 586 OFFCURVE",
"526 782 OFFCURVE",
"330 782 CURVE SMOOTH",
"138 782 OFFCURVE",
"45 624 OFFCURVE",
"45 408 CURVE SMOOTH",
"45 364 LINE",
"329 364 LINE",
"335 344 OFFCURVE",
"339 314 OFFCURVE",
"339 275 CURVE SMOOTH",
"339 201 OFFCURVE",
"298 153 OFFCURVE",
"231 153 CURVE SMOOTH",
"166 153 OFFCURVE",
"104 150 OFFCURVE",
"62 122 CURVE",
"62 42 LINE"
);
}
);
width = 552;
}
);
},
{
glyphname = u182B_1820;
lastChange = "2019-09-24 14:05:55 +0000";
layers = (
{
layerId = UUID0;
paths = (
{
closed = 1;
nodes = (
"913 -264 LINE",
"899 -240 OFFCURVE",
"892 -214 OFFCURVE",
"892 -187 CURVE SMOOTH",
"892 -128 OFFCURVE",
"910 -94 OFFCURVE",
"959 -31 CURVE SMOOTH",
"1035 66 OFFCURVE",
"1092 153 OFFCURVE",
"1092 245 CURVE SMOOTH",
"1092 373 OFFCURVE",
"1015 444 OFFCURVE",
"861 444 CURVE SMOOTH",
"618 444 LINE",
"586 665 OFFCURVE",
"488 782 OFFCURVE",
"330 782 CURVE SMOOTH",
"138 782 OFFCURVE",
"45 624 OFFCURVE",
"45 408 CURVE SMOOTH",
"45 364 LINE",
"329 364 LINE",
"335 344 OFFCURVE",
"339 314 OFFCURVE",
"339 275 CURVE SMOOTH",
"339 201 OFFCURVE",
"298 153 OFFCURVE",
"231 153 CURVE SMOOTH",
"166 153 OFFCURVE",
"104 150 OFFCURVE",
"62 122 CURVE",
"62 42 LINE",
"109 68 OFFCURVE",
"162 73 OFFCURVE",
"231 73 CURVE SMOOTH",
"346 73 OFFCURVE",
"418 158 OFFCURVE",
"418 275 CURVE SMOOTH",
"418 332 OFFCURVE",
"411 388 OFFCURVE",
"397 444 CURVE",
"124 444 LINE",
"126 588 OFFCURVE",
"194 699 OFFCURVE",
"330 699 CURVE SMOOTH",
"461 699 OFFCURVE",
"530 586 OFFCURVE",
"546 364 CURVE SMOOTH",
"565 96 LINE",
"631 96 LINE",
"650 364 LINE",
"860 364 LINE SMOOTH",
"967 364 OFFCURVE",
"1014 325 OFFCURVE",
"1014 245 CURVE SMOOTH",
"1014 175 OFFCURVE",
"969 111 OFFCURVE",
"907 28 CURVE SMOOTH",
"851 -47 OFFCURVE",
"812 -109 OFFCURVE",
"812 -187 CURVE SMOOTH",
"812 -217 OFFCURVE",
"818 -243 OFFCURVE",
"831 -264 CURVE"
);
}
);
width = 1137;
}
);
},
{
glyphname = u182B_1822;
lastChange = "2019-09-24 14:05:55 +0000";
layers = (
{
layerId = UUID0;
paths = (
{
closed = 1;
nodes = (
"780 -31 LINE",
"708 99 OFFCURVE",
"646 234 OFFCURVE",
"620 364 CURVE",
"925 364 LINE SMOOTH",
"996 364 OFFCURVE",
"1023 333 OFFCURVE",
"1023 279 CURVE SMOOTH",
"1023 235 OFFCURVE",
"1016 196 OFFCURVE",
"1001 162 CURVE",
"1075 162 LINE",
"1092 199 OFFCURVE",
"1100 238 OFFCURVE",
"1100 279 CURVE SMOOTH",
"1100 389 OFFCURVE",
"1042 444 OFFCURVE",
"925 444 CURVE SMOOTH",
"605 444 LINE",
"571 646 OFFCURVE",
"496 782 OFFCURVE",
"319 782 CURVE SMOOTH",
"132 782 OFFCURVE",
"45 621 OFFCURVE",
"45 408 CURVE SMOOTH",
"45 364 LINE",
"329 364 LINE",
"335 344 OFFCURVE",
"339 314 OFFCURVE",
"339 275 CURVE SMOOTH",
"339 201 OFFCURVE",
"298 153 OFFCURVE",
"231 153 CURVE SMOOTH",
"166 153 OFFCURVE",
"104 150 OFFCURVE",
"62 122 CURVE",
"62 42 LINE",
"109 68 OFFCURVE",
"162 73 OFFCURVE",
"231 73 CURVE SMOOTH",
"346 73 OFFCURVE",
"418 158 OFFCURVE",
"418 275 CURVE SMOOTH",
"418 332 OFFCURVE",
"411 388 OFFCURVE",
"397 444 CURVE",
"124 444 LINE",
"126 585 OFFCURVE",
"189 699 OFFCURVE",
"319 699 CURVE SMOOTH",
"435 699 OFFCURVE",
"499 602 OFFCURVE",
"530 418 CURVE SMOOTH",
"561 231 OFFCURVE",
"609 122 OFFCURVE",
"707 -67 CURVE"
);
}
);
width = 1145;
}
);
},
{
glyphname = u182B_1825.V1;
lastChange = "2019-09-24 14:05:55 +0000";
layers = (
{
layerId = UUID0;
paths = (
{
closed = 1;
nodes = (
"647 40 OFFCURVE",
"716 144 OFFCURVE",
"719 364 CURVE",
"930 364 LINE SMOOTH",
"1000 364 OFFCURVE",
"1028 333 OFFCURVE",
"1028 279 CURVE SMOOTH",
"1028 235 OFFCURVE",
"1021 196 OFFCURVE",
"1006 162 CURVE",
"1080 162 LINE",
"1097 199 OFFCURVE",
"1105 238 OFFCURVE",
"1105 279 CURVE SMOOTH",
"1105 389 OFFCURVE",
"1047 444 OFFCURVE",
"930 444 CURVE SMOOTH",
"715 444 LINE",
"693 652 OFFCURVE",
"566 782 OFFCURVE",
"372 782 CURVE SMOOTH",
"176 782 OFFCURVE",
"45 639 OFFCURVE",
"45 412 CURVE SMOOTH",
"45 364 LINE",
"326 364 LINE",
"326 275 LINE SMOOTH",
"326 195 OFFCURVE",
"284 153 OFFCURVE",
"225 153 CURVE SMOOTH",
"162 153 OFFCURVE",
"104 150 OFFCURVE",
"62 122 CURVE",
"62 42 LINE",
"109 68 OFFCURVE",
"159 73 OFFCURVE",
"225 73 CURVE SMOOTH",
"282 73 OFFCURVE",
"328 94 OFFCURVE",
"363 136 CURVE",
"388 72 OFFCURVE",
"436 40 OFFCURVE",
"505 40 CURVE SMOOTH"
);
},
{
closed = 1;
nodes = (
"438 123 OFFCURVE",
"405 177 OFFCURVE",
"405 286 CURVE SMOOTH",
"405 364 LINE",
"640 364 LINE",
"636 219 OFFCURVE",
"619 123 OFFCURVE",
"506 123 CURVE SMOOTH"
);
},
{
closed = 1;
nodes = (
"127 595 OFFCURVE",
"223 699 OFFCURVE",
"372 699 CURVE SMOOTH",
"522 699 OFFCURVE",
"614 596 OFFCURVE",
"635 444 CURVE",
"124 444 LINE"
);
}
);
width = 1150;
}
);
},
{
glyphname = u182B_1827;
lastChange = "2019-09-24 14:05:55 +0000";
layers = (
{
layerId = UUID0;
paths = (
{
closed = 1;
nodes = (
"873 -119 OFFCURVE",
"904 -106 OFFCURVE",
"918 -85 CURVE",
"918 6 LINE",
"899 -22 OFFCURVE",
"872 -36 OFFCURVE",
"836 -36 CURVE SMOOTH",
"787 -36 OFFCURVE",
"747 13 OFFCURVE",
"703 106 CURVE SMOOTH",
"659 199 OFFCURVE",
"633 287 OFFCURVE",
"619 364 CURVE",
"1014 364 LINE SMOOTH",
"1084 364 OFFCURVE",
"1112 333 OFFCURVE",
"1112 279 CURVE SMOOTH",
"1112 235 OFFCURVE",
"1104 196 OFFCURVE",
"1090 162 CURVE",
"1164 162 LINE",
"1181 199 OFFCURVE",
"1189 238 OFFCURVE",
"1189 279 CURVE SMOOTH",
"1189 389 OFFCURVE",
"1131 444 OFFCURVE",
"1014 444 CURVE SMOOTH",
"604 444 LINE",
"567 645 OFFCURVE",
"496 782 OFFCURVE",
"319 782 CURVE SMOOTH",
"132 782 OFFCURVE",
"45 621 OFFCURVE",
"45 408 CURVE SMOOTH",
"45 364 LINE",
"329 364 LINE",
"335 344 OFFCURVE",
"339 313 OFFCURVE",
"339 274 CURVE SMOOTH",
"339 200 OFFCURVE",
"298 153 OFFCURVE",
"231 153 CURVE SMOOTH",
"166 153 OFFCURVE",
"104 150 OFFCURVE",
"62 122 CURVE",
"62 42 LINE",
"109 68 OFFCURVE",
"162 73 OFFCURVE",
"231 73 CURVE SMOOTH",
"346 73 OFFCURVE",
"418 158 OFFCURVE",
"418 275 CURVE SMOOTH",
"418 332 OFFCURVE",
"411 388 OFFCURVE",
"397 444 CURVE",
"124 444 LINE",
"126 585 OFFCURVE",
"189 699 OFFCURVE",
"319 699 CURVE SMOOTH",
"453 699 OFFCURVE",
"502 585 OFFCURVE",
"530 418 CURVE SMOOTH",
"553 279 OFFCURVE",
"592 153 OFFCURVE",
"645 41 CURVE SMOOTH",
"691 -56 OFFCURVE",
"743 -119 OFFCURVE",
"836 -119 CURVE SMOOTH"
);
}
);
width = 1234;
}
);
},
{
glyphname = u182C_1821;
lastChange = "2019-09-24 14:05:55 +0000";
layers = (
{
layerId = UUID0;
paths = (
{
closed = 1;
nodes = (
"797 -264 LINE",
"783 -238 OFFCURVE",
"776 -213 OFFCURVE",
"776 -187 CURVE SMOOTH",
"776 -125 OFFCURVE",
"796 -92 OFFCURVE",
"843 -31 CURVE SMOOTH",
"917 64 OFFCURVE",
"976 155 OFFCURVE",
"976 245 CURVE SMOOTH",
"976 373 OFFCURVE",
"898 444 OFFCURVE",
"745 444 CURVE SMOOTH",
"503 444 LINE",
"482 614 OFFCURVE",
"424 727 OFFCURVE",
"274 727 CURVE SMOOTH",
"134 727 OFFCURVE",
"45 605 OFFCURVE",
"45 418 CURVE SMOOTH",
"45 300 OFFCURVE",
"88 174 OFFCURVE",
"174 42 CURVE",
"245 85 LINE",
"169 197 OFFCURVE",
"124 291 OFFCURVE",
"124 417 CURVE SMOOTH",
"124 571 OFFCURVE",
"182 644 OFFCURVE",
"274 644 CURVE SMOOTH",
"394 644 OFFCURVE",
"418 531 OFFCURVE",
"430 361 CURVE SMOOTH",
"449 96 LINE",
"515 96 LINE",
"534 364 LINE",
"744 364 LINE SMOOTH",
"851 364 OFFCURVE",
"898 324 OFFCURVE",
"898 244 CURVE SMOOTH",
"898 176 OFFCURVE",
"859 116 OFFCURVE",
"791 28 CURVE SMOOTH",
"736 -44 OFFCURVE",
"696 -108 OFFCURVE",
"696 -187 CURVE SMOOTH",
"696 -216 OFFCURVE",
"702 -242 OFFCURVE",
"715 -264 CURVE"
);
}
);
width = 1021;
}
);
},
{
glyphname = u182C_1822;
lastChange = "2019-09-24 14:05:55 +0000";
layers = (
{
layerId = UUID0;
paths = (
{
closed = 1;
nodes = (
"695 -31 LINE",
"611 101 OFFCURVE",
"558 232 OFFCURVE",
"533 364 CURVE",
"840 364 LINE SMOOTH",
"911 364 OFFCURVE",
"938 333 OFFCURVE",
"938 279 CURVE SMOOTH",
"938 236 OFFCURVE",
"931 197 OFFCURVE",
"916 162 CURVE",
"990 162 LINE",
"1007 199 OFFCURVE",
"1015 238 OFFCURVE",
"1015 279 CURVE SMOOTH",
"1015 389 OFFCURVE",
"957 444 OFFCURVE",
"840 444 CURVE SMOOTH",
"523 444 LINE",
"501 628 OFFCURVE",
"443 760 OFFCURVE",
"287 760 CURVE SMOOTH",
"127 760 OFFCURVE",
"45 608 OFFCURVE",
"45 417 CURVE SMOOTH",
"45 299 OFFCURVE",
"88 174 OFFCURVE",
"174 42 CURVE",
"245 85 LINE",
"169 197 OFFCURVE",
"124 291 OFFCURVE",
"124 417 CURVE SMOOTH",
"124 557 OFFCURVE",
"170 677 OFFCURVE",
"287 677 CURVE SMOOTH",
"400 677 OFFCURVE",
"426 577 OFFCURVE",
"447 418 CURVE SMOOTH",
"469 253 OFFCURVE",
"529 82 OFFCURVE",
"622 -67 CURVE"
);
}
);
width = 1060;
}
);
},
{
glyphname = u1832.medV1;
lastChange = "2019-09-24 14:05:55 +0000";
layers = (
{
layerId = UUID0;
paths = (
{
closed = 1;
nodes = (
"425 96 LINE",
"444 364 LINE",
"654 364 LINE",
"654 444 LINE",
"414 444 LINE",
"406 640 OFFCURVE",
"361 777 OFFCURVE",
"197 777 CURVE SMOOTH",
"79 777 OFFCURVE",
"-1 691 OFFCURVE",
"-1 563 CURVE SMOOTH",
"-1 522 OFFCURVE",
"7 482 OFFCURVE",
"24 444 CURVE",
"0 444 LINE",
"0 364 LINE",
"340 364 LINE",
"359 96 LINE"
);
},
{
closed = 1;
nodes = (
"86 471 OFFCURVE",
"78 511 OFFCURVE",
"78 563 CURVE SMOOTH",
"78 642 OFFCURVE",
"121 694 OFFCURVE",
"197 694 CURVE SMOOTH",
"301 694 OFFCURVE",
"329 584 OFFCURVE",
"334 444 CURVE",
"101 444 LINE"
);
}
);
width = 624;
}
);
},
{
glyphname = u1832.fin;
lastChange = "2019-09-24 14:05:55 +0000";
layers = (
{
layerId = UUID0;
paths = (
{
closed = 1;
nodes = (
"425 96 LINE",
"444 364 LINE",
"654 364 LINE SMOOTH",
"725 364 OFFCURVE",
"752 333 OFFCURVE",
"752 279 CURVE SMOOTH",
"752 235 OFFCURVE",
"745 196 OFFCURVE",
"730 162 CURVE",
"804 162 LINE",
"821 199 OFFCURVE",
"829 238 OFFCURVE",
"829 279 CURVE SMOOTH",
"829 389 OFFCURVE",
"771 444 OFFCURVE",
"654 444 CURVE SMOOTH",
"414 444 LINE",
"406 643 OFFCURVE",
"361 777 OFFCURVE",
"197 777 CURVE SMOOTH",
"79 777 OFFCURVE",
"-1 691 OFFCURVE",
"-1 563 CURVE SMOOTH",
"-1 522 OFFCURVE",
"7 482 OFFCURVE",
"24 444 CURVE",
"0 444 LINE",
"0 364 LINE",
"340 364 LINE",
"359 96 LINE"
);
},
{
closed = 1;
nodes = (
"86 471 OFFCURVE",
"78 511 OFFCURVE",
"78 563 CURVE SMOOTH",
"78 642 OFFCURVE",
"121 694 OFFCURVE",
"197 694 CURVE SMOOTH",
"301 694 OFFCURVE",
"329 584 OFFCURVE",
"334 444 CURVE",
"101 444 LINE"
);
}
);
width = 874;
}
);
},
{
glyphname = u1835;
lastChange = "2019-09-24 14:05:55 +0000";
layers = (
{
layerId = UUID0;
paths = (
{
closed = 1;
nodes = (
"306 -31 LINE",
"233 100 OFFCURVE",
"177 231 OFFCURVE",
"139 364 CURVE",
"451 364 LINE",
"451 444 LINE",
"45 444 LINE",
"73 275 OFFCURVE",
"139 110 OFFCURVE",
"233 -67 CURVE"
);
}
);
width = 496;
}
);
unicode = 1835;
},
{
glyphname = u1835.fin;
lastChange = "2019-09-24 14:05:55 +0000";
layers = (
{
layerId = UUID0;
paths = (
{
closed = 1;
nodes = (
"43 44 OFFCURVE",
"89 77 OFFCURVE",
"137 103 CURVE SMOOTH",
"245 161 LINE SMOOTH",
"319 201 OFFCURVE",
"351 262 OFFCURVE",
"351 364 CURVE",
"560 364 LINE SMOOTH",
"630 364 OFFCURVE",
"658 333 OFFCURVE",
"658 279 CURVE SMOOTH",
"658 236 OFFCURVE",
"651 197 OFFCURVE",
"636 162 CURVE",
"710 162 LINE",
"727 197 OFFCURVE",
"735 236 OFFCURVE",
"735 279 CURVE SMOOTH",
"735 389 OFFCURVE",
"677 444 OFFCURVE",
"560 444 CURVE SMOOTH",
"0 444 LINE",
"0 364 LINE",
"274 364 LINE",
"274 293 OFFCURVE",
"255 254 OFFCURVE",
"196 222 CURVE SMOOTH",
"114 178 LINE SMOOTH",
"60 149 OFFCURVE",
"22 122 OFFCURVE",
"0 100 CURVE",
"0 5 LINE"
);
}
);
width = 780;
}
);
},
{
glyphname = u1836.medV2;
lastChange = "2019-09-24 14:05:55 +0000";
layers = (
{
layerId = UUID0;
paths = (
{
closed = 1;
nodes = (
"199 85 LINE",
"125 188 OFFCURVE",
"77 287 OFFCURVE",
"77 407 CURVE SMOOTH",
"77 544 OFFCURVE",
"134 609 OFFCURVE",
"226 609 CURVE SMOOTH",
"342 609 OFFCURVE",
"371 514 OFFCURVE",
"381 364 CURVE",
"455 364 LINE",
"445 587 OFFCURVE",
"375 692 OFFCURVE",
"226 692 CURVE SMOOTH",
"77 692 OFFCURVE",
"-2 573 OFFCURVE",
"-2 407 CURVE SMOOTH",
"-2 292 OFFCURVE",
"41 170 OFFCURVE",
"127 42 CURVE"
);
}
);
width = 381;
}
);
},
{
glyphname = u183B;
lastChange = "2019-09-24 14:05:55 +0000";
layers = (
{
layerId = UUID0;
paths = (
{
closed = 1;
nodes = (
"245 85 LINE",
"173 185 OFFCURVE",
"134 270 OFFCURVE",
"126 364 CURVE",
"285 364 LINE",
"285 444 LINE",
"125 444 LINE",
"133 579 OFFCURVE",
"189 644 OFFCURVE",
"273 644 CURVE SMOOTH",
"362 644 OFFCURVE",
"414 573 OFFCURVE",
"426 409 CURVE",
"505 419 LINE",
"493 591 OFFCURVE",
"425 727 OFFCURVE",
"273 727 CURVE SMOOTH",
"133 727 OFFCURVE",
"45 602 OFFCURVE",
"45 408 CURVE SMOOTH",
"45 293 OFFCURVE",
"88 170 OFFCURVE",
"174 42 CURVE"
);
}
);
width = 550;
}
);
unicode = 183B;
},
{
glyphname = u183B_1820;
lastChange = "2019-09-24 14:05:55 +0000";
layers = (
{
layerId = UUID0;
paths = (
{
closed = 1;
nodes = (
"797 -264 LINE",
"783 -238 OFFCURVE",
"776 -213 OFFCURVE",
"776 -187 CURVE SMOOTH",
"776 -125 OFFCURVE",
"795 -92 OFFCURVE",
"843 -31 CURVE SMOOTH",
"916 63 OFFCURVE",
"976 155 OFFCURVE",
"976 245 CURVE SMOOTH",
"976 373 OFFCURVE",
"898 444 OFFCURVE",
"745 444 CURVE SMOOTH",
"503 444 LINE",
"482 614 OFFCURVE",
"424 727 OFFCURVE",
"274 727 CURVE SMOOTH",
"135 727 OFFCURVE",
"45 606 OFFCURVE",
"45 417 CURVE SMOOTH",
"45 299 OFFCURVE",
"88 174 OFFCURVE",
"174 42 CURVE",
"245 85 LINE",
"183 174 OFFCURVE",
"136 262 OFFCURVE",
"126 364 CURVE",
"285 364 LINE",
"285 444 LINE",
"124 444 LINE",
"130 579 OFFCURVE",
"188 644 OFFCURVE",
"274 644 CURVE SMOOTH",
"394 644 OFFCURVE",
"418 533 OFFCURVE",
"430 363 CURVE SMOOTH",
"449 96 LINE",
"515 96 LINE",
"534 364 LINE",
"744 364 LINE SMOOTH",
"851 364 OFFCURVE",
"898 325 OFFCURVE",
"898 243 CURVE SMOOTH",
"898 175 OFFCURVE",
"859 116 OFFCURVE",
"791 28 CURVE SMOOTH",
"736 -44 OFFCURVE",
"696 -108 OFFCURVE",
"696 -187 CURVE SMOOTH",
"696 -216 OFFCURVE",
"702 -242 OFFCURVE",
"715 -264 CURVE"
);
}
);
width = 1021;
}
);
},
{
glyphname = u183B_1822.ini;
lastChange = "2019-09-24 14:05:55 +0000";
layers = (
{
layerId = UUID0;
paths = (
{
closed = 1;
nodes = (
"695 -31 LINE",
"611 101 OFFCURVE",
"558 232 OFFCURVE",
"533 364 CURVE",
"840 364 LINE",
"840 444 LINE",
"523 444 LINE",
"501 628 OFFCURVE",
"444 760 OFFCURVE",
"287 760 CURVE SMOOTH",
"126 760 OFFCURVE",
"45 606 OFFCURVE",
"45 417 CURVE SMOOTH",
"45 299 OFFCURVE",
"88 174 OFFCURVE",
"174 42 CURVE",
"245 85 LINE",
"183 174 OFFCURVE",
"136 262 OFFCURVE",
"126 364 CURVE",
"285 364 LINE",
"285 444 LINE",
"124 444 LINE",
"129 572 OFFCURVE",
"177 677 OFFCURVE",
"287 677 CURVE SMOOTH",
"400 677 OFFCURVE",
"428 573 OFFCURVE",
"447 418 CURVE SMOOTH",
"467 253 OFFCURVE",
"531 82 OFFCURVE",
"622 -67 CURVE"
);
}
);
width = 810;
}
);
},
{
glyphname = u183B_1822;
lastChange = "2019-09-24 14:05:55 +0000";
layers = (
{
layerId = UUID0;
paths = (
{
closed = 1;
nodes = (
"695 -31 LINE",
"611 101 OFFCURVE",
"558 232 OFFCURVE",
"533 364 CURVE",
"840 364 LINE SMOOTH",
"911 364 OFFCURVE",
"938 333 OFFCURVE",
"938 279 CURVE SMOOTH",
"938 236 OFFCURVE",
"931 197 OFFCURVE",
"916 162 CURVE",
"990 162 LINE",
"1007 199 OFFCURVE",
"1015 238 OFFCURVE",
"1015 279 CURVE SMOOTH",
"1015 389 OFFCURVE",
"957 444 OFFCURVE",
"840 444 CURVE SMOOTH",
"523 444 LINE",
"501 628 OFFCURVE",
"443 760 OFFCURVE",
"288 760 CURVE SMOOTH",
"127 760 OFFCURVE",
"45 606 OFFCURVE",
"45 417 CURVE SMOOTH",
"45 299 OFFCURVE",
"88 174 OFFCURVE",
"174 42 CURVE",
"245 85 LINE",
"183 174 OFFCURVE",
"136 262 OFFCURVE",
"126 364 CURVE",
"285 364 LINE",
"285 444 LINE",
"124 444 LINE",
"129 572 OFFCURVE",
"177 677 OFFCURVE",
"287 677 CURVE SMOOTH",
"400 677 OFFCURVE",
"426 577 OFFCURVE",
"447 418 CURVE SMOOTH",
"469 253 OFFCURVE",
"528 85 OFFCURVE",
"622 -67 CURVE"
);
}
);
width = 1060;
}
);
},
{
glyphname = u183B_1823.ini;
lastChange = "2019-09-24 14:05:55 +0000";
layers = (
{
layerId = UUID0;
paths = (
{
closed = 1;
nodes = (
"624 40 OFFCURVE",
"704 145 OFFCURVE",
"704 303 CURVE SMOOTH",
"704 324 OFFCURVE",
"704 344 OFFCURVE",
"702 364 CURVE",
"915 364 LINE",
"915 444 LINE",
"693 444 LINE",
"658 649 OFFCURVE",
"545 760 OFFCURVE",
"365 760 CURVE SMOOTH",
"170 760 OFFCURVE",
"45 616 OFFCURVE",
"45 408 CURVE SMOOTH",
"45 290 OFFCURVE",
"86 152 OFFCURVE",
"146 42 CURVE",
"219 73 LINE",
"164 174 OFFCURVE",
"133 271 OFFCURVE",
"126 364 CURVE",
"263 364 LINE",
"263 444 LINE",
"125 444 LINE",
"138 588 OFFCURVE",
"226 677 OFFCURVE",
"365 677 CURVE SMOOTH",
"503 677 OFFCURVE",
"586 599 OFFCURVE",
"614 444 CURVE",
"367 444 LINE",
"342 397 OFFCURVE",
"329 330 OFFCURVE",
"329 275 CURVE SMOOTH",
"329 134 OFFCURVE",
"391 40 OFFCURVE",
"519 40 CURVE SMOOTH"
);
},
{
closed = 1;
nodes = (
"443 123 OFFCURVE",
"408 174 OFFCURVE",
"408 275 CURVE SMOOTH",
"408 312 OFFCURVE",
"414 342 OFFCURVE",
"424 364 CURVE",
"623 364 LINE",
"625 344 OFFCURVE",
"625 324 OFFCURVE",
"625 303 CURVE SMOOTH",
"625 183 OFFCURVE",
"579 123 OFFCURVE",
"512 123 CURVE SMOOTH"
);
}
);
width = 885;
}
);
},
{
glyphname = u183B_1823;
lastChange = "2019-09-24 14:05:55 +0000";
layers = (
{
layerId = UUID0;
paths = (
{
closed = 1;
nodes = (
"626 40 OFFCURVE",
"704 148 OFFCURVE",
"704 303 CURVE SMOOTH",
"704 561 OFFCURVE",
"606 760 OFFCURVE",
"365 760 CURVE SMOOTH",
"170 760 OFFCURVE",
"45 616 OFFCURVE",
"45 408 CURVE SMOOTH",
"45 290 OFFCURVE",
"86 152 OFFCURVE",
"146 42 CURVE",
"219 73 LINE",
"164 174 OFFCURVE",
"133 271 OFFCURVE",
"126 364 CURVE",
"263 364 LINE",
"263 444 LINE",
"125 444 LINE",
"138 588 OFFCURVE",
"227 677 OFFCURVE",
"365 677 CURVE SMOOTH",
"503 677 OFFCURVE",
"586 599 OFFCURVE",
"614 444 CURVE",
"367 444 LINE",
"343 397 OFFCURVE",
"329 330 OFFCURVE",
"329 275 CURVE SMOOTH",
"329 132 OFFCURVE",
"391 40 OFFCURVE",
"519 40 CURVE SMOOTH"
);
},
{
closed = 1;
nodes = (
"443 123 OFFCURVE",
"408 174 OFFCURVE",
"408 275 CURVE SMOOTH",
"408 312 OFFCURVE",
"414 342 OFFCURVE",
"424 364 CURVE",
"623 364 LINE",
"625 344 OFFCURVE",
"625 324 OFFCURVE",
"625 303 CURVE SMOOTH",
"625 183 OFFCURVE",
"579 123 OFFCURVE",
"512 123 CURVE SMOOTH"
);
}
);
width = 749;
}
);
},
{
glyphname = u183B_1825.V1;
lastChange = "2019-09-24 14:05:55 +0000";
layers = (
{
layerId = UUID0;
paths = (
{
closed = 1;
nodes = (
"628 40 OFFCURVE",
"704 148 OFFCURVE",
"704 303 CURVE SMOOTH",
"704 324 OFFCURVE",
"704 344 OFFCURVE",
"702 364 CURVE",
"915 364 LINE SMOOTH",
"985 364 OFFCURVE",
"1013 333 OFFCURVE",
"1013 279 CURVE SMOOTH",
"1013 236 OFFCURVE",
"1006 197 OFFCURVE",
"991 162 CURVE",
"1065 162 LINE",
"1082 197 OFFCURVE",
"1090 236 OFFCURVE",
"1090 279 CURVE SMOOTH",
"1090 389 OFFCURVE",
"1032 444 OFFCURVE",
"915 444 CURVE SMOOTH",
"693 444 LINE",
"658 649 OFFCURVE",
"545 760 OFFCURVE",
"365 760 CURVE SMOOTH",
"171 760 OFFCURVE",
"45 617 OFFCURVE",
"45 408 CURVE SMOOTH",
"45 290 OFFCURVE",
"86 152 OFFCURVE",
"146 42 CURVE",
"219 73 LINE",
"164 174 OFFCURVE",
"133 271 OFFCURVE",
"126 364 CURVE",
"263 364 LINE",
"263 444 LINE",
"125 444 LINE",
"138 588 OFFCURVE",
"227 677 OFFCURVE",
"365 677 CURVE SMOOTH",
"503 677 OFFCURVE",
"586 599 OFFCURVE",
"614 444 CURVE",
"367 444 LINE",
"343 397 OFFCURVE",
"329 330 OFFCURVE",
"329 275 CURVE SMOOTH",
"329 134 OFFCURVE",
"390 40 OFFCURVE",
"518 40 CURVE SMOOTH"
);
},
{
closed = 1;
nodes = (
"443 123 OFFCURVE",
"408 174 OFFCURVE",
"408 275 CURVE SMOOTH",
"408 312 OFFCURVE",
"414 342 OFFCURVE",
"424 364 CURVE",
"623 364 LINE",
"625 344 OFFCURVE",
"625 324 OFFCURVE",
"625 303 CURVE SMOOTH",
"625 183 OFFCURVE",
"579 123 OFFCURVE",
"512 123 CURVE SMOOTH"
);
}
);
width = 1135;
}
);
},
{
glyphname = u183B_1825.ini;
lastChange = "2019-09-24 14:05:55 +0000";
layers = (
{
layerId = UUID0;
paths = (
{
closed = 1;
nodes = (
"1061 -31 LINE",
"988 100 OFFCURVE",
"932 231 OFFCURVE",
"894 364 CURVE",
"1206 364 LINE",
"1206 444 LINE",
"693 444 LINE",
"658 649 OFFCURVE",
"545 760 OFFCURVE",
"365 760 CURVE SMOOTH",
"170 760 OFFCURVE",
"45 616 OFFCURVE",
"45 408 CURVE SMOOTH",
"45 290 OFFCURVE",
"86 152 OFFCURVE",
"146 42 CURVE",
"219 73 LINE",
"164 174 OFFCURVE",
"133 271 OFFCURVE",
"126 364 CURVE",
"263 364 LINE",
"263 444 LINE",
"125 444 LINE",
"138 588 OFFCURVE",
"226 677 OFFCURVE",
"365 677 CURVE SMOOTH",
"503 677 OFFCURVE",
"586 599 OFFCURVE",
"614 444 CURVE",
"367 444 LINE",
"343 397 OFFCURVE",
"329 330 OFFCURVE",
"329 275 CURVE SMOOTH",
"329 134 OFFCURVE",
"391 40 OFFCURVE",
"519 40 CURVE SMOOTH",
"627 40 OFFCURVE",
"704 148 OFFCURVE",
"704 303 CURVE SMOOTH",
"704 324 OFFCURVE",
"704 344 OFFCURVE",
"702 364 CURVE",
"815 364 LINE",
"853 221 OFFCURVE",
"910 78 OFFCURVE",
"988 -67 CURVE"
);
},
{
closed = 1;
nodes = (
"443 123 OFFCURVE",
"408 174 OFFCURVE",
"408 275 CURVE SMOOTH",
"408 312 OFFCURVE",
"414 342 OFFCURVE",
"424 364 CURVE",
"623 364 LINE",
"625 344 OFFCURVE",
"625 324 OFFCURVE",
"625 303 CURVE SMOOTH",
"625 183 OFFCURVE",
"579 123 OFFCURVE",
"512 123 CURVE SMOOTH"
);
}
);
width = 1176;
}
);
},
{
glyphname = u1839_1820;
lastChange = "2019-09-24 14:05:55 +0000";
layers = (
{
layerId = UUID0;
paths = (
{
closed = 1;
nodes = (
"946 -264 LINE",
"932 -238 OFFCURVE",
"925 -213 OFFCURVE",
"925 -187 CURVE SMOOTH",
"925 -124 OFFCURVE",
"943 -95 OFFCURVE",
"992 -31 CURVE SMOOTH",
"1066 66 OFFCURVE",
"1125 155 OFFCURVE",
"1125 245 CURVE SMOOTH",
"1125 373 OFFCURVE",
"1047 444 OFFCURVE",
"894 444 CURVE SMOOTH",
"652 444 LINE",
"625 637 OFFCURVE",
"535 782 OFFCURVE",
"352 782 CURVE SMOOTH",
"151 782 OFFCURVE",
"45 630 OFFCURVE",
"45 408 CURVE SMOOTH",
"45 202 OFFCURVE",
"96 83 OFFCURVE",
"201 50 CURVE",
"180 14 OFFCURVE",
"169 -24 OFFCURVE",
"169 -64 CURVE SMOOTH",
"169 -113 OFFCURVE",
"179 -152 OFFCURVE",
"199 -182 CURVE",
"289 -182 LINE",
"264 -148 OFFCURVE",
"251 -108 OFFCURVE",
"251 -63 CURVE SMOOTH",
"251 -25 OFFCURVE",
"258 9 OFFCURVE",
"271 40 CURVE",
"275 40 LINE SMOOTH",
"376 40 OFFCURVE",
"451 138 OFFCURVE",
"451 273 CURVE SMOOTH",
"451 310 OFFCURVE",
"440 410 OFFCURVE",
"428 444 CURVE",
"124 444 LINE",
"126 592 OFFCURVE",
"204 699 OFFCURVE",
"352 699 CURVE SMOOTH",
"493 699 OFFCURVE",
"563 586 OFFCURVE",
"579 364 CURVE SMOOTH",
"598 96 LINE",
"664 96 LINE",
"683 364 LINE",
"893 364 LINE SMOOTH",
"1000 364 OFFCURVE",
"1047 325 OFFCURVE",
"1047 243 CURVE SMOOTH",
"1047 175 OFFCURVE",
"1008 116 OFFCURVE",
"940 28 CURVE SMOOTH",
"885 -44 OFFCURVE",
"845 -110 OFFCURVE",
"845 -187 CURVE SMOOTH",
"845 -217 OFFCURVE",
"852 -242 OFFCURVE",
"864 -264 CURVE"
);
},
{
closed = 1;
nodes = (
"173 123 OFFCURVE",
"126 203 OFFCURVE",
"124 364 CURVE",
"362 364 LINE",
"369 345 OFFCURVE",
"372 311 OFFCURVE",
"372 271 CURVE SMOOTH",
"372 186 OFFCURVE",
"334 123 OFFCURVE",
"264 123 CURVE SMOOTH"
);
}
);
width = 1170;
}
);
},
{
glyphname = u1839;
lastChange = "2019-09-24 14:05:55 +0000";
layers = (
{
layerId = UUID0;
paths = (
{
closed = 1;
nodes = (
"289 -182 LINE",
"264 -148 OFFCURVE",
"251 -108 OFFCURVE",
"251 -63 CURVE SMOOTH",
"251 -25 OFFCURVE",
"258 9 OFFCURVE",
"271 40 CURVE",
"274 40 LINE SMOOTH",
"375 40 OFFCURVE",
"451 136 OFFCURVE",
"451 274 CURVE SMOOTH",
"451 311 OFFCURVE",
"440 410 OFFCURVE",
"428 444 CURVE",
"124 444 LINE",
"126 590 OFFCURVE",
"198 699 OFFCURVE",
"335 699 CURVE SMOOTH",
"476 699 OFFCURVE",
"543 567 OFFCURVE",
"555 409 CURVE",
"635 419 LINE",
"622 614 OFFCURVE",
"516 782 OFFCURVE",
"335 782 CURVE SMOOTH",
"141 782 OFFCURVE",
"45 624 OFFCURVE",
"45 408 CURVE SMOOTH",
"45 202 OFFCURVE",
"96 83 OFFCURVE",
"201 50 CURVE",
"180 14 OFFCURVE",
"169 -24 OFFCURVE",
"169 -64 CURVE SMOOTH",
"169 -113 OFFCURVE",
"179 -152 OFFCURVE",
"199 -182 CURVE"
);
},
{
closed = 1;
nodes = (
"173 123 OFFCURVE",
"126 203 OFFCURVE",
"124 364 CURVE",
"362 364 LINE",
"369 345 OFFCURVE",
"372 314 OFFCURVE",
"372 274 CURVE SMOOTH",
"372 189 OFFCURVE",
"336 123 OFFCURVE",
"264 123 CURVE SMOOTH"
);
}
);
width = 680;
}
);
unicode = 1839;
},
{
glyphname = u1839.fin;
lastChange = "2019-09-24 14:05:55 +0000";
layers = (
{
layerId = UUID0;
paths = (
{
closed = 1;
nodes = (
"479 -264 LINE",
"465 -238 OFFCURVE",
"458 -213 OFFCURVE",
"458 -187 CURVE SMOOTH",
"458 -119 OFFCURVE",
"482 -79 OFFCURVE",
"536 -7 CURVE SMOOTH",
"594 70 OFFCURVE",
"636 139 OFFCURVE",
"663 199 CURVE SMOOTH",
"690 259 OFFCURVE",
"702 324 OFFCURVE",
"702 390 CURVE SMOOTH",
"702 634 OFFCURVE",
"569 782 OFFCURVE",
"344 782 CURVE SMOOTH",
"123 782 OFFCURVE",
"-1 640 OFFCURVE",
"-1 408 CURVE SMOOTH",
"-1 203 OFFCURVE",
"49 83 OFFCURVE",
"155 50 CURVE",
"134 13 OFFCURVE",
"123 -25 OFFCURVE",
"123 -64 CURVE SMOOTH",
"123 -112 OFFCURVE",
"133 -152 OFFCURVE",
"153 -182 CURVE",
"243 -182 LINE",
"218 -148 OFFCURVE",
"205 -108 OFFCURVE",
"205 -63 CURVE SMOOTH",
"205 -25 OFFCURVE",
"212 9 OFFCURVE",
"225 40 CURVE",
"228 40 LINE SMOOTH",
"330 40 OFFCURVE",
"405 138 OFFCURVE",
"405 275 CURVE SMOOTH",
"405 316 OFFCURVE",
"395 403 OFFCURVE",
"382 444 CURVE",
"78 444 LINE",
"82 606 OFFCURVE",
"182 699 OFFCURVE",
"344 699 CURVE SMOOTH",
"523 699 OFFCURVE",
"623 583 OFFCURVE",
"623 388 CURVE SMOOTH",
"623 330 OFFCURVE",
"613 277 OFFCURVE",
"594 230 CURVE SMOOTH",
"575 183 OFFCURVE",
"539 123 OFFCURVE",
"484 50 CURVE SMOOTH",
"420 -35 OFFCURVE",
"378 -102 OFFCURVE",
"378 -187 CURVE SMOOTH",
"378 -214 OFFCURVE",
"384 -239 OFFCURVE",
"397 -264 CURVE"
);
},
{
closed = 1;
nodes = (
"127 123 OFFCURVE",
"81 203 OFFCURVE",
"78 364 CURVE",
"316 364 LINE",
"323 343 OFFCURVE",
"326 313 OFFCURVE",
"326 275 CURVE SMOOTH",
"326 190 OFFCURVE",
"291 123 OFFCURVE",
"218 123 CURVE SMOOTH"
);
}
);
width = 747;
}
);
},
{
glyphname = u1839.ini;
lastChange = "2019-09-24 14:05:55 +0000";
layers = (
{
layerId = UUID0;
paths = (
{
closed = 1;
nodes = (
"289 -182 LINE",
"264 -148 OFFCURVE",
"251 -108 OFFCURVE",
"251 -63 CURVE SMOOTH",
"251 -25 OFFCURVE",
"258 9 OFFCURVE",
"271 40 CURVE",
"275 40 LINE SMOOTH",
"376 40 OFFCURVE",
"451 138 OFFCURVE",
"451 274 CURVE SMOOTH",
"451 311 OFFCURVE",
"440 410 OFFCURVE",
"428 444 CURVE",
"124 444 LINE",
"126 590 OFFCURVE",
"198 699 OFFCURVE",
"335 699 CURVE SMOOTH",
"467 699 OFFCURVE",
"552 576 OFFCURVE",
"557 364 CURVE",
"631 364 LINE",
"631 586 OFFCURVE",
"532 782 OFFCURVE",
"336 782 CURVE SMOOTH",
"141 782 OFFCURVE",
"45 624 OFFCURVE",
"45 408 CURVE SMOOTH",
"45 202 OFFCURVE",
"96 83 OFFCURVE",
"201 50 CURVE",
"180 14 OFFCURVE",
"169 -24 OFFCURVE",
"169 -64 CURVE SMOOTH",
"169 -113 OFFCURVE",
"179 -152 OFFCURVE",
"199 -182 CURVE"
);
},
{
closed = 1;
nodes = (
"173 123 OFFCURVE",
"126 203 OFFCURVE",
"124 364 CURVE",
"362 364 LINE",
"369 345 OFFCURVE",
"372 315 OFFCURVE",
"372 275 CURVE SMOOTH",
"372 190 OFFCURVE",
"337 123 OFFCURVE",
"264 123 CURVE SMOOTH"
);
}
);
width = 557;
}
);
},
{
glyphname = u1839_1822;
lastChange = "2019-09-24 14:05:55 +0000";
layers = (
{
layerId = UUID0;
paths = (
{
closed = 1;
nodes = (
"289 -182 LINE",
"264 -148 OFFCURVE",
"251 -108 OFFCURVE",
"251 -63 CURVE SMOOTH",
"251 -25 OFFCURVE",
"258 9 OFFCURVE",
"271 40 CURVE",
"277 40 LINE SMOOTH",
"375 40 OFFCURVE",
"451 138 OFFCURVE",
"451 273 CURVE SMOOTH",
"451 310 OFFCURVE",
"440 410 OFFCURVE",
"428 444 CURVE",
"124 444 LINE",
"126 588 OFFCURVE",
"194 699 OFFCURVE",
"330 699 CURVE SMOOTH",
"469 699 OFFCURVE",
"523 589 OFFCURVE",
"552 418 CURVE SMOOTH",
"584 231 OFFCURVE",
"631 122 OFFCURVE",
"729 -67 CURVE",
"802 -31 LINE",
"722 113 OFFCURVE",
"668 238 OFFCURVE",
"642 364 CURVE",
"947 364 LINE SMOOTH",
"1018 364 OFFCURVE",
"1045 333 OFFCURVE",
"1045 279 CURVE SMOOTH",
"1045 235 OFFCURVE",
"1038 196 OFFCURVE",
"1023 162 CURVE",
"1097 162 LINE",
"1114 199 OFFCURVE",
"1122 238 OFFCURVE",
"1122 279 CURVE SMOOTH",
"1122 389 OFFCURVE",
"1063 444 OFFCURVE",
"947 444 CURVE SMOOTH",
"627 444 LINE",
"589 650 OFFCURVE",
"514 782 OFFCURVE",
"330 782 CURVE SMOOTH",
"138 782 OFFCURVE",
"45 624 OFFCURVE",
"45 408 CURVE SMOOTH",
"45 202 OFFCURVE",
"96 83 OFFCURVE",
"201 50 CURVE",
"180 14 OFFCURVE",
"169 -24 OFFCURVE",
"169 -64 CURVE SMOOTH",
"169 -113 OFFCURVE",
"179 -152 OFFCURVE",
"199 -182 CURVE"
);
},
{
closed = 1;
nodes = (
"173 123 OFFCURVE",
"126 203 OFFCURVE",
"124 364 CURVE",
"362 364 LINE",
"369 345 OFFCURVE",
"372 315 OFFCURVE",
"372 275 CURVE SMOOTH",
"372 189 OFFCURVE",
"337 123 OFFCURVE",
"264 123 CURVE SMOOTH"
);
}
);
width = 1167;
}
);
},
{
glyphname = u1839_1823.ini;
lastChange = "2019-09-24 14:05:55 +0000";
layers = (
{
layerId = UUID0;
paths = (
{
closed = 1;
nodes = (
"288 -182 LINE",
"263 -148 OFFCURVE",
"250 -108 OFFCURVE",
"250 -63 CURVE SMOOTH",
"250 -23 OFFCURVE",
"257 11 OFFCURVE",
"271 41 CURVE",
"323 47 OFFCURVE",
"372 79 OFFCURVE",
"396 135 CURVE",
"424 71 OFFCURVE",
"474 40 OFFCURVE",
"538 40 CURVE SMOOTH",
"681 40 OFFCURVE",
"750 146 OFFCURVE",
"752 364 CURVE",
"963 364 LINE",
"963 444 LINE",
"748 444 LINE",
"726 652 OFFCURVE",
"598 782 OFFCURVE",
"405 782 CURVE SMOOTH",
"178 782 OFFCURVE",
"45 617 OFFCURVE",
"45 375 CURVE SMOOTH",
"45 173 OFFCURVE",
"97 70 OFFCURVE",
"198 45 CURVE",
"178 10 OFFCURVE",
"168 -26 OFFCURVE",
"168 -64 CURVE SMOOTH",
"168 -113 OFFCURVE",
"178 -152 OFFCURVE",
"198 -182 CURVE"
);
},
{
closed = 1;
nodes = (
"145 123 OFFCURVE",
"124 222 OFFCURVE",
"124 364 CURVE",
"359 364 LINE",
"359 285 LINE SMOOTH",
"359 194 OFFCURVE",
"325 123 OFFCURVE",
"249 123 CURVE SMOOTH"
);
},
{
closed = 1;
nodes = (
"471 123 OFFCURVE",
"438 177 OFFCURVE",
"438 286 CURVE SMOOTH",
"438 364 LINE",
"673 364 LINE",
"668 188 OFFCURVE",
"638 123 OFFCURVE",
"538 123 CURVE SMOOTH"
);
},
{
closed = 1;
nodes = (
"147 605 OFFCURVE",
"234 699 OFFCURVE",
"405 699 CURVE SMOOTH",
"556 699 OFFCURVE",
"647 596 OFFCURVE",
"668 444 CURVE",
"127 444 LINE"
);
}
);
width = 933;
}
);
},
{
glyphname = u1839_1825.V1;
lastChange = "2019-09-24 14:05:55 +0000";
layers = (
{
layerId = UUID0;
paths = (
{
closed = 1;
nodes = (
"288 -182 LINE",
"263 -148 OFFCURVE",
"250 -108 OFFCURVE",
"250 -63 CURVE SMOOTH",
"250 -23 OFFCURVE",
"257 11 OFFCURVE",
"271 41 CURVE",
"323 47 OFFCURVE",
"372 79 OFFCURVE",
"396 135 CURVE",
"424 71 OFFCURVE",
"474 40 OFFCURVE",
"538 40 CURVE SMOOTH",
"681 40 OFFCURVE",
"750 146 OFFCURVE",
"752 364 CURVE",
"963 364 LINE SMOOTH",
"1034 364 OFFCURVE",
"1061 333 OFFCURVE",
"1061 279 CURVE SMOOTH",
"1061 236 OFFCURVE",
"1054 197 OFFCURVE",
"1039 162 CURVE",
"1113 162 LINE",
"1130 198 OFFCURVE",
"1138 237 OFFCURVE",
"1138 279 CURVE SMOOTH",
"1138 389 OFFCURVE",
"1080 444 OFFCURVE",
"963 444 CURVE SMOOTH",
"748 444 LINE",
"726 652 OFFCURVE",
"597 782 OFFCURVE",
"405 782 CURVE SMOOTH",
"178 782 OFFCURVE",
"45 617 OFFCURVE",
"45 375 CURVE SMOOTH",
"45 173 OFFCURVE",
"97 70 OFFCURVE",
"198 45 CURVE",
"178 10 OFFCURVE",
"168 -26 OFFCURVE",
"168 -64 CURVE SMOOTH",
"168 -113 OFFCURVE",
"178 -152 OFFCURVE",
"198 -182 CURVE"
);
},
{
closed = 1;
nodes = (
"145 123 OFFCURVE",
"124 222 OFFCURVE",
"124 364 CURVE",
"359 364 LINE",
"359 286 LINE SMOOTH",
"359 195 OFFCURVE",
"325 123 OFFCURVE",
"249 123 CURVE SMOOTH"
);
},
{
closed = 1;
nodes = (
"471 123 OFFCURVE",
"438 177 OFFCURVE",
"438 286 CURVE SMOOTH",
"438 364 LINE",
"673 364 LINE",
"668 188 OFFCURVE",
"638 123 OFFCURVE",
"538 123 CURVE SMOOTH"
);
},
{
closed = 1;
nodes = (
"145 605 OFFCURVE",
"236 699 OFFCURVE",
"405 699 CURVE SMOOTH",
"556 699 OFFCURVE",
"647 596 OFFCURVE",
"668 444 CURVE",
"127 444 LINE"
);
}
);
width = 1183;
}
);
},
{
glyphname = u1839_1825.ini;
lastChange = "2019-09-24 14:05:55 +0000";
layers = (
{
layerId = UUID0;
paths = (
{
closed = 1;
nodes = (
"288 -182 LINE",
"263 -148 OFFCURVE",
"250 -108 OFFCURVE",
"250 -63 CURVE SMOOTH",
"250 -23 OFFCURVE",
"257 11 OFFCURVE",
"271 41 CURVE",
"323 47 OFFCURVE",
"372 79 OFFCURVE",
"396 135 CURVE",
"424 71 OFFCURVE",
"474 40 OFFCURVE",
"538 40 CURVE SMOOTH",
"681 40 OFFCURVE",
"750 146 OFFCURVE",
"752 364 CURVE",
"863 364 LINE",
"901 220 OFFCURVE",
"958 77 OFFCURVE",
"1036 -67 CURVE",
"1109 -31 LINE",
"1037 97 OFFCURVE",
"981 229 OFFCURVE",
"942 364 CURVE",
"1254 364 LINE",
"1254 444 LINE",
"748 444 LINE",
"726 652 OFFCURVE",
"598 782 OFFCURVE",
"406 782 CURVE SMOOTH",
"179 782 OFFCURVE",
"45 617 OFFCURVE",
"45 375 CURVE SMOOTH",
"45 173 OFFCURVE",
"97 70 OFFCURVE",
"198 45 CURVE",
"178 10 OFFCURVE",
"168 -26 OFFCURVE",
"168 -64 CURVE SMOOTH",
"168 -113 OFFCURVE",
"178 -152 OFFCURVE",
"198 -182 CURVE"
);
},
{
closed = 1;
nodes = (
"145 123 OFFCURVE",
"124 222 OFFCURVE",
"124 364 CURVE",
"359 364 LINE",
"359 286 LINE SMOOTH",
"359 195 OFFCURVE",
"325 123 OFFCURVE",
"249 123 CURVE SMOOTH"
);
},
{
closed = 1;
nodes = (
"471 123 OFFCURVE",
"438 177 OFFCURVE",
"438 286 CURVE SMOOTH",
"438 364 LINE",
"673 364 LINE",
"668 188 OFFCURVE",
"638 123 OFFCURVE",
"538 123 CURVE SMOOTH"
);
},
{
closed = 1;
nodes = (
"147 605 OFFCURVE",
"235 699 OFFCURVE",
"405 699 CURVE SMOOTH",
"556 699 OFFCURVE",
"647 596 OFFCURVE",
"668 444 CURVE",
"127 444 LINE"
);
}
);
width = 1224;
}
);
},
{
glyphname = u182C_1827;
lastChange = "2019-09-24 14:05:55 +0000";
layers = (
{
layerId = UUID0;
paths = (
{
closed = 1;
nodes = (
"774 -119 OFFCURVE",
"805 -106 OFFCURVE",
"819 -85 CURVE",
"819 6 LINE",
"801 -22 OFFCURVE",
"773 -36 OFFCURVE",
"737 -36 CURVE SMOOTH",
"678 -36 OFFCURVE",
"637 33 OFFCURVE",
"599 117 CURVE SMOOTH",
"566 190 OFFCURVE",
"542 271 OFFCURVE",
"530 364 CURVE",
"915 364 LINE SMOOTH",
"985 364 OFFCURVE",
"1013 333 OFFCURVE",
"1013 279 CURVE SMOOTH",
"1013 236 OFFCURVE",
"1006 197 OFFCURVE",
"991 162 CURVE",
"1065 162 LINE",
"1082 197 OFFCURVE",
"1090 236 OFFCURVE",
"1090 279 CURVE SMOOTH",
"1090 389 OFFCURVE",
"1032 444 OFFCURVE",
"915 444 CURVE SMOOTH",
"521 444 LINE",
"499 627 OFFCURVE",
"443 760 OFFCURVE",
"287 760 CURVE SMOOTH",
"126 760 OFFCURVE",
"45 606 OFFCURVE",
"45 417 CURVE SMOOTH",
"45 299 OFFCURVE",
"88 174 OFFCURVE",
"174 42 CURVE",
"245 85 LINE",
"169 197 OFFCURVE",
"124 291 OFFCURVE",
"124 417 CURVE SMOOTH",
"124 557 OFFCURVE",
"170 677 OFFCURVE",
"287 677 CURVE SMOOTH",
"336 677 OFFCURVE",
"372 657 OFFCURVE",
"395 616 CURVE SMOOTH",
"418 576 OFFCURVE",
"435 510 OFFCURVE",
"445 418 CURVE SMOOTH",
"460 280 OFFCURVE",
"493 154 OFFCURVE",
"547 41 CURVE SMOOTH",
"594 -58 OFFCURVE",
"644 -119 OFFCURVE",
"737 -119 CURVE SMOOTH"
);
}
);
width = 1135;
}
);
},
{
glyphname = u1838;
lastChange = "2019-09-24 14:05:55 +0000";
layers = (
{
layerId = UUID0;
paths = (
{
closed = 1;
nodes = (
"408 -119 OFFCURVE",
"439 -106 OFFCURVE",
"454 -85 CURVE",
"454 6 LINE",
"435 -22 OFFCURVE",
"407 -36 OFFCURVE",
"371 -36 CURVE SMOOTH",
"306 -36 OFFCURVE",
"264 49 OFFCURVE",
"218 152 CURVE SMOOTH",
"186 224 OFFCURVE",
"161 294 OFFCURVE",
"141 364 CURVE",
"550 364 LINE",
"550 444 LINE",
"45 444 LINE",
"70 311 OFFCURVE",
"115 177 OFFCURVE",
"181 41 CURVE SMOOTH",
"228 -56 OFFCURVE",
"279 -119 OFFCURVE",
"371 -119 CURVE SMOOTH"
);
}
);
width = 595;
}
);
unicode = 1838;
},
{
glyphname = u183E;
lastChange = "2019-09-24 14:05:55 +0000";
layers = (
{
layerId = UUID0;
paths = (
{
closed = 1;
nodes = (
"901 -57 LINE",
"827 82 OFFCURVE",
"790 215 OFFCURVE",
"787 364 CURVE",
"1043 364 LINE",
"1043 444 LINE",
"711 444 LINE",
"711 366 LINE SMOOTH",
"711 221 OFFCURVE",
"739 94 OFFCURVE",
"795 -17 CURVE",
"671 -72 LINE",
"596 69 OFFCURVE",
"567 199 OFFCURVE",
"567 364 CURVE SMOOTH",
"567 444 LINE",
"444 444 LINE SMOOTH",
"360 444 OFFCURVE",
"307 416 OFFCURVE",
"285 361 CURVE",
"281 361 LINE",
"278 445 LINE SMOOTH",
"273 575 OFFCURVE",
"248 653 OFFCURVE",
"139 653 CURVE SMOOTH",
"100 653 OFFCURVE",
"57 643 OFFCURVE",
"10 623 CURVE",
"10 550 LINE",
"52 567 OFFCURVE",
"88 575 OFFCURVE",
"118 575 CURVE SMOOTH",
"179 575 OFFCURVE",
"194 520 OFFCURVE",
"200 437 CURVE SMOOTH",
"226 74 LINE",
"292 74 LINE",
"302 219 LINE SMOOTH",
"309 326 OFFCURVE",
"335 364 OFFCURVE",
"445 364 CURVE SMOOTH",
"492 364 LINE",
"492 166 OFFCURVE",
"537 -6 OFFCURVE",
"632 -182 CURVE"
);
}
);
width = 1088;
}
);
unicode = 183E;
},
{
glyphname = u183F;
lastChange = "2019-09-24 14:05:55 +0000";
layers = (
{
layerId = UUID0;
paths = (
{
closed = 1;
nodes = (
"454 -117 OFFCURVE",
"508 -83 OFFCURVE",
"545 -14 CURVE",
"479 27 LINE",
"461 -12 OFFCURVE",
"425 -35 OFFCURVE",
"382 -35 CURVE SMOOTH",
"219 -35 OFFCURVE",
"124 173 OFFCURVE",
"124 374 CURVE SMOOTH",
"124 559 OFFCURVE",
"213 715 OFFCURVE",
"379 715 CURVE SMOOTH",
"458 715 OFFCURVE",
"501 680 OFFCURVE",
"527 592 CURVE",
"525 590 LINE",
"512 599 OFFCURVE",
"497 603 OFFCURVE",
"480 603 CURVE SMOOTH",
"441 603 OFFCURVE",
"398 593 OFFCURVE",
"351 573 CURVE",
"351 500 LINE",
"393 517 OFFCURVE",
"428 525 OFFCURVE",
"459 525 CURVE SMOOTH",
"519 525 OFFCURVE",
"537 482 OFFCURVE",
"543 404 CURVE SMOOTH",
"567 74 LINE",
"633 74 LINE",
"643 219 LINE SMOOTH",
"651 332 OFFCURVE",
"676 364 OFFCURVE",
"786 364 CURVE SMOOTH",
"863 364 LINE",
"863 444 LINE",
"785 444 LINE SMOOTH",
"701 444 OFFCURVE",
"648 416 OFFCURVE",
"626 361 CURVE",
"622 361 LINE",
"619 444 LINE SMOOTH",
"611 676 OFFCURVE",
"533 792 OFFCURVE",
"379 792 CURVE SMOOTH",
"175 792 OFFCURVE",
"45 597 OFFCURVE",
"45 374 CURVE SMOOTH",
"45 131 OFFCURVE",
"161 -117 OFFCURVE",
"382 -117 CURVE SMOOTH"
);
}
);
width = 908;
}
);
unicode = 183F;
},
